<svg width="77" height="175" viewBox="0 0 77 175" fill="none" xmlns="http://www.w3.org/2000/svg">
<path opacity="0.5" fill-rule="evenodd" clip-rule="evenodd" d="M-230.58 149.244L-294.823 149.244C-322.535 149.244 -345 126.779 -345 99.0671C-345 71.3552 -322.535 48.8902 -294.823 48.8902L-234.337 48.8902C-233.655 21.7729 -211.459 2.2879e-08 -184.177 2.7553e-08L26.8231 6.37025e-08C54.535 6.84502e-08 77 22.4649 77 50.1768C77 64.9895 70.5814 78.303 60.3738 87.4878C70.5814 96.6726 77 109.986 77 124.799C77 152.511 54.535 174.976 26.8231 174.976L-186.75 174.976C-205.587 174.976 -221.999 164.596 -230.58 149.244Z" fill="white"/>
</svg>
