<svg width="101" height="56" viewBox="0 0 101 56" fill="none" xmlns="http://www.w3.org/2000/svg">
<path opacity="0.5" fill-rule="evenodd" clip-rule="evenodd" d="M36.0009 47.3333L16 47.3333C7.16343 47.3333 -6.88209e-09 40.1699 -5.36817e-09 31.3333C-3.85425e-09 22.4968 7.16344 15.3333 16 15.3333L35.3368 15.3333C35.5142 6.83478 42.4589 7.27431e-09 51 8.7376e-09L118.333 2.02734e-08C126.986 2.17558e-08 134 7.01421 134 15.6667C134 20.8064 131.525 25.368 127.702 28.2248C130.757 31.0837 132.667 35.1522 132.667 39.6667C132.667 48.3191 125.652 55.3333 117 55.3333L49.6666 55.3333C43.7992 55.3333 38.6852 52.1079 36.0009 47.3333Z" fill="white"/>
</svg>
