<svg width="78" height="83" viewBox="0 0 78 83" fill="none" xmlns="http://www.w3.org/2000/svg">
<path opacity="0.5" fill-rule="evenodd" clip-rule="evenodd" d="M54.0013 71L24 71C10.7452 71 -1.03231e-08 60.2548 -8.05225e-09 47C-5.78137e-09 33.7452 10.7452 23 24 23L53.0052 23C53.2713 10.2522 63.6884 1.09114e-08 76.5 1.31063e-08L177.5 3.04101e-08C190.479 3.26337e-08 201 10.5213 201 23.5C201 31.2096 197.288 38.052 191.553 42.3371C196.136 46.6255 199 52.7283 199 59.5C199 72.4787 188.479 83 175.5 83L74.5 83C65.6989 83 58.0278 78.1618 54.0013 71Z" fill="white"/>
</svg>
