<svg width="227" height="128" viewBox="0 0 227 128" fill="none" xmlns="http://www.w3.org/2000/svg">
<path opacity="0.5" fill-rule="evenodd" clip-rule="evenodd" d="M83.2791 109.494L37.0121 109.494C16.5709 109.494 -1.59199e-08 92.9231 -1.24178e-08 72.4819C-8.91574e-09 52.0407 16.5709 35.4699 37.012 35.4699L81.743 35.4699C82.1534 15.8106 98.2183 1.68272e-08 117.976 2.02122e-08L273.735 4.68975e-08C293.75 5.03266e-08 309.976 16.2256 309.976 36.241C309.976 48.1304 304.251 58.6826 295.407 65.291C302.474 71.9045 306.892 81.3159 306.892 91.759C306.892 111.774 290.666 128 270.651 128L114.892 128C101.319 128 89.4886 120.539 83.2791 109.494Z" fill="white"/>
</svg>
