<svg width="225" height="91" viewBox="0 0 225 91" fill="none" xmlns="http://www.w3.org/2000/svg">
<path opacity="0.5" fill-rule="evenodd" clip-rule="evenodd" d="M-82.5799 65.2439L-146.823 65.2439C-174.535 65.2439 -197 42.779 -197 15.0671C-197 -12.6448 -174.535 -35.1098 -146.823 -35.1098L-86.3375 -35.1098C-85.655 -62.2271 -63.4586 -84 -36.1768 -84L174.823 -84C202.535 -84 225 -61.5351 225 -33.8232C225 -19.0105 218.581 -5.697 208.374 3.48782C218.581 12.6726 225 25.9861 225 40.7988C225 68.5107 202.535 90.9756 174.823 90.9756L-38.75 90.9756C-57.5868 90.9756 -73.9993 80.5958 -82.5799 65.2439Z" fill="white"/>
</svg>
