<svg width="1600" height="430" viewBox="0 0 1600 430" fill="none" xmlns="http://www.w3.org/2000/svg">
<path d="M1237.03 356.164H1251.03L1262.44 465.14H1225.44L1237.03 356.164Z" fill="#BCE8BB"/>
<path d="M1236.93 356.164H1250.84L1256.89 414.819H1230.89L1236.93 356.164Z" fill="#BCE8BB"/>
<path d="M1285.99 404.864C1299.95 406.27 1290.7 389.487 1283.96 374.563C1277.21 359.639 1262.62 331.564 1240.21 331.564C1221.86 331.564 1187.07 397.438 1195.22 403.636C1201.73 408.595 1217.03 404.704 1227.21 396.899C1230.27 403.786 1234.88 407.009 1242.21 407.56C1249.54 408.111 1253.82 403.097 1259.59 396.899C1261.63 399.195 1273.82 403.636 1285.99 404.864Z" fill="#BCE8BB"/>
<path fill-rule="evenodd" clip-rule="evenodd" d="M1283.36 372.893C1274.95 356.337 1260.41 334.395 1239.76 334.395C1229.15 334.395 1213.47 354.679 1202.47 374.665C1209.96 373.907 1218.85 370.304 1225.64 365.096C1228.96 372.578 1234.41 380.358 1242.37 380.956C1250.34 381.555 1256.28 373.749 1260.82 365.096C1262.69 367.201 1272.42 370.968 1283.36 372.893Z" fill="#BCE8BB"/>
<path d="M1285.99 366.942C1299.35 371.225 1290.7 351.565 1283.96 336.641C1277.21 321.717 1262.62 293.642 1240.21 293.642C1221.86 293.642 1187.07 359.517 1195.22 365.714C1201.73 370.673 1217.03 358.52 1227.21 350.715C1230.27 357.602 1234.88 369.087 1242.21 369.638C1249.54 370.189 1253.82 356.913 1259.59 350.715C1261.63 353.011 1273.82 363.037 1285.99 366.942Z" fill="#BCE8BB"/>
<path fill-rule="evenodd" clip-rule="evenodd" d="M1277.07 321.302C1280.3 328.186 1282.66 333.224 1282.28 333.186C1271.94 332.147 1259.94 327.579 1258.21 325.634C1254.66 332.38 1249.21 336.676 1242.98 336.209C1236.75 335.743 1231.06 330.553 1228.47 324.72C1219.81 331.331 1203.76 333.791 1204.88 331.977C1206.81 328.874 1208.62 325.446 1210.33 321.842C1220.65 305.313 1233.22 290.858 1242.18 290.858C1253.01 290.858 1262.16 296.897 1269.63 305.029C1270.02 305.998 1270.4 306.923 1270.8 307.789C1272.93 312.493 1275.15 317.222 1277.07 321.302Z" fill="#BCE8BB"/>
<path d="M1281.68 322.302C1291.35 325.627 1284.13 308.472 1278.66 296.3C1273.18 284.128 1262.34 261.309 1244.19 260.019C1227.22 258.813 1196.45 315.433 1203.07 320.488C1208.36 324.532 1222.38 316.559 1230.65 310.193C1233.13 315.81 1236.87 325.178 1242.83 325.627C1248.78 326.076 1252.26 315.249 1256.94 310.193C1258.6 312.066 1273.05 319.336 1281.68 322.302Z" fill="#BCE8BB"/>
<path d="M1085.03 356.164H1099.03L1110.44 465.14H1073.44L1085.03 356.164Z" fill="#BCE8BB"/>
<path d="M1084.93 356.164H1098.84L1104.89 414.819H1078.89L1084.93 356.164Z" fill="#BCE8BB"/>
<path d="M1133.99 404.864C1147.95 406.27 1138.7 389.487 1131.96 374.563C1125.21 359.639 1110.62 331.564 1088.21 331.564C1069.86 331.564 1035.07 397.438 1043.22 403.636C1049.73 408.595 1065.03 404.704 1075.21 396.899C1078.27 403.786 1082.88 407.009 1090.21 407.56C1097.54 408.111 1101.82 403.097 1107.59 396.899C1109.63 399.195 1121.82 403.636 1133.99 404.864Z" fill="#BCE8BB"/>
<path fill-rule="evenodd" clip-rule="evenodd" d="M1131.36 372.893C1122.95 356.337 1108.41 334.395 1087.76 334.395C1077.15 334.395 1061.47 354.679 1050.47 374.665C1057.96 373.907 1066.85 370.304 1073.64 365.096C1076.96 372.578 1082.41 380.358 1090.37 380.956C1098.34 381.555 1104.28 373.749 1108.82 365.096C1110.69 367.201 1120.42 370.968 1131.36 372.893Z" fill="#BCE8BB"/>
<path d="M1133.99 366.942C1147.35 371.225 1138.7 351.565 1131.96 336.641C1125.21 321.717 1110.62 293.642 1088.21 293.642C1069.86 293.642 1035.07 359.517 1043.22 365.714C1049.73 370.673 1065.03 358.52 1075.21 350.715C1078.27 357.602 1082.88 369.087 1090.21 369.638C1097.54 370.189 1101.82 356.913 1107.59 350.715C1109.63 353.011 1121.82 363.037 1133.99 366.942Z" fill="#BCE8BB"/>
<path fill-rule="evenodd" clip-rule="evenodd" d="M1125.07 321.302C1128.3 328.186 1130.66 333.224 1130.28 333.186C1119.94 332.147 1107.94 327.579 1106.21 325.634C1102.66 332.38 1097.21 336.676 1090.98 336.209C1084.75 335.743 1079.06 330.553 1076.47 324.72C1067.81 331.331 1051.76 333.791 1052.88 331.977C1054.81 328.874 1056.62 325.446 1058.33 321.842C1068.65 305.313 1081.22 290.858 1090.18 290.858C1101.01 290.858 1110.16 296.897 1117.63 305.029C1118.02 305.998 1118.4 306.923 1118.8 307.789C1120.93 312.493 1123.15 317.222 1125.07 321.302Z" fill="#BCE8BB"/>
<path d="M1129.68 322.302C1139.35 325.627 1132.13 308.472 1126.66 296.3C1121.18 284.128 1110.34 261.309 1092.19 260.019C1075.22 258.813 1044.45 315.433 1051.07 320.488C1056.36 324.532 1070.38 316.559 1078.65 310.193C1081.13 315.81 1084.87 325.178 1090.83 325.627C1096.78 326.076 1100.26 315.249 1104.94 310.193C1106.6 312.066 1121.05 319.336 1129.68 322.302Z" fill="#BCE8BB"/>
<path d="M1488.03 356.164H1502.03L1513.44 465.14H1476.44L1488.03 356.164Z" fill="#BCE8BB"/>
<path d="M1487.93 356.164H1501.84L1507.89 414.819H1481.89L1487.93 356.164Z" fill="#BCE8BB"/>
<path d="M1536.99 404.864C1550.95 406.27 1541.7 389.487 1534.96 374.563C1528.21 359.639 1513.62 331.564 1491.21 331.564C1472.86 331.564 1438.07 397.438 1446.22 403.636C1452.73 408.595 1468.03 404.704 1478.21 396.899C1481.27 403.786 1485.88 407.009 1493.21 407.56C1500.55 408.111 1504.82 403.097 1510.59 396.899C1512.63 399.195 1524.82 403.636 1536.99 404.864Z" fill="#BCE8BB"/>
<path fill-rule="evenodd" clip-rule="evenodd" d="M1534.36 372.893C1525.95 356.337 1511.41 334.395 1490.76 334.395C1480.15 334.395 1464.47 354.679 1453.47 374.665C1460.96 373.907 1469.85 370.304 1476.64 365.096C1479.96 372.578 1485.41 380.358 1493.37 380.956C1501.34 381.555 1507.28 373.749 1511.82 365.096C1513.69 367.201 1523.42 370.968 1534.36 372.893Z" fill="#BCE8BB"/>
<path d="M1536.99 366.942C1550.35 371.225 1541.7 351.565 1534.96 336.641C1528.21 321.717 1513.62 293.642 1491.21 293.642C1472.86 293.642 1438.07 359.517 1446.22 365.714C1452.73 370.673 1468.03 358.52 1478.21 350.715C1481.27 357.602 1485.88 369.087 1493.21 369.638C1500.55 370.189 1504.82 356.913 1510.59 350.715C1512.63 353.011 1524.82 363.037 1536.99 366.942Z" fill="#BCE8BB"/>
<path fill-rule="evenodd" clip-rule="evenodd" d="M1528.07 321.302C1531.3 328.186 1533.66 333.224 1533.28 333.186C1522.94 332.147 1510.94 327.579 1509.21 325.634C1505.66 332.38 1500.21 336.676 1493.98 336.209C1487.75 335.743 1482.06 330.553 1479.47 324.72C1470.81 331.331 1454.76 333.791 1455.88 331.977C1457.81 328.874 1459.62 325.446 1461.33 321.842C1471.65 305.313 1484.22 290.858 1493.18 290.858C1504.01 290.858 1513.16 296.897 1520.63 305.029C1521.02 305.998 1521.4 306.923 1521.8 307.789C1523.93 312.493 1526.15 317.222 1528.07 321.302Z" fill="#BCE8BB"/>
<path d="M1532.68 322.302C1542.35 325.627 1535.13 308.472 1529.66 296.3C1524.18 284.128 1513.34 261.309 1495.19 260.019C1478.22 258.813 1447.45 315.433 1454.07 320.488C1459.36 324.532 1473.38 316.559 1481.65 310.193C1484.13 315.81 1487.87 325.178 1493.83 325.627C1499.78 326.076 1503.26 315.249 1507.94 310.193C1509.6 312.066 1524.05 319.336 1532.68 322.302Z" fill="#BCE8BB"/>
<path d="M733.694 310.275H753.438L769.53 463.975H717.348L733.694 310.275Z" fill="#BCE8BB"/>
<path d="M733.552 310.275H753.168L761.696 393.002H725.024L733.552 310.275Z" fill="#BCE8BB"/>
<path d="M802.748 378.961C822.431 380.945 809.39 357.274 799.876 336.225C790.361 315.176 769.776 275.58 738.179 275.58C712.287 275.58 663.225 368.489 674.715 377.23C683.906 384.223 705.483 378.736 719.845 367.728C724.154 377.441 730.659 381.987 741 382.764C751.341 383.541 757.372 376.47 765.51 367.728C768.383 370.966 785.576 377.23 802.748 378.961Z" fill="#BCE8BB"/>
<path fill-rule="evenodd" clip-rule="evenodd" d="M799.036 333.87C787.171 310.519 766.662 279.573 737.546 279.573C722.571 279.573 700.461 308.18 684.94 336.369C695.503 335.3 708.043 330.218 717.627 322.872C722.308 333.425 729.993 344.398 741.228 345.242C752.463 346.086 760.843 335.077 767.241 322.872C769.875 325.842 783.599 331.155 799.036 333.87Z" fill="#BCE8BB"/>
<path d="M802.748 325.476C821.586 331.518 809.39 303.789 799.876 282.74C790.361 261.691 769.776 222.095 738.179 222.095C712.287 222.095 663.225 315.004 674.715 323.745C683.906 330.738 705.483 313.598 719.845 302.59C724.154 312.303 730.659 328.502 741 329.279C751.341 330.056 757.372 311.332 765.51 302.59C768.383 305.828 785.576 319.969 802.748 325.476Z" fill="#BCE8BB"/>
<path fill-rule="evenodd" clip-rule="evenodd" d="M790.155 261.106C794.714 270.815 798.051 277.921 797.516 277.867C782.922 276.401 766.001 269.958 763.56 267.216C758.556 276.73 750.869 282.789 742.081 282.131C733.293 281.473 725.274 274.153 721.612 265.927C709.407 275.25 686.761 278.72 688.351 276.161C691.072 271.786 693.614 266.951 696.034 261.868C710.588 238.555 728.315 218.168 740.958 218.168C756.232 218.168 769.138 226.685 779.67 238.154C780.213 239.522 780.757 240.825 781.312 242.047C784.321 248.682 787.453 255.351 790.155 261.106Z" fill="#BCE8BB"/>
<path d="M796.663 262.516C810.308 267.206 800.125 243.011 792.399 225.843C784.672 208.676 765.173 181.605 739.578 179.785C715.642 178.084 676.462 252.828 685.793 259.957C693.257 265.661 713.025 254.416 724.689 245.438C728.188 253.36 733.471 266.572 741.868 267.206C750.266 267.84 755.164 252.568 761.773 245.438C764.106 248.079 784.495 258.334 796.663 262.516Z" fill="#BCE8BB"/>
<path fill-rule="evenodd" clip-rule="evenodd" d="M785.655 212.91C788.432 217.81 790.133 220.81 789.84 220.726C789.207 220.545 788.426 220.327 787.533 220.077C780.007 217.974 764.486 213.636 761.696 210.492C759.992 212.63 758.452 214.617 757.042 216.435C750.799 224.492 747.108 229.255 742.933 229.255C737.692 229.255 734.576 224.751 730.611 219.02C728.753 216.334 726.708 213.379 724.171 210.492C708.567 222.452 697.733 221.579 697.733 221.579C697.733 221.579 703.496 200.227 713.59 180.916C722.782 170.516 731.881 163.585 739.252 163.585C748.315 163.585 756.544 166.584 763.938 171.418C764.043 171.648 764.149 171.88 764.255 172.114C771.048 187.143 780.331 203.518 785.655 212.91Z" fill="#BCE8BB"/>
<path d="M783.809 208.719C795.356 215.363 788.259 193.884 781.885 179.485C775.51 165.086 761.718 138 740.549 138C723.202 138 690.331 201.555 698.029 207.535C704.187 212.319 718.643 200.594 728.265 193.064C731.152 199.708 735.511 210.789 742.439 211.321C749.367 211.852 753.408 199.043 758.86 193.064C760.785 195.279 774.572 203.404 783.809 208.719Z" fill="#BCE8BB"/>
<path d="M267.694 310.275H287.438L303.53 463.975H251.348L267.694 310.275Z" fill="#BCE8BB"/>
<path d="M267.552 310.275H287.168L295.696 393.002H259.024L267.552 310.275Z" fill="#BCE8BB"/>
<path d="M336.748 378.961C356.431 380.945 343.39 357.274 333.876 336.225C324.361 315.176 303.776 275.58 272.179 275.58C246.287 275.58 197.225 368.489 208.715 377.23C217.906 384.223 239.483 378.736 253.845 367.728C258.154 377.441 264.659 381.987 275 382.764C285.341 383.541 291.372 376.47 299.51 367.728C302.383 370.966 319.576 377.23 336.748 378.961Z" fill="#BCE8BB"/>
<path fill-rule="evenodd" clip-rule="evenodd" d="M333.036 333.87C321.171 310.519 300.662 279.573 271.546 279.573C256.571 279.573 234.461 308.18 218.94 336.369C229.503 335.3 242.043 330.218 251.627 322.872C256.308 333.425 263.993 344.398 275.228 345.242C286.463 346.086 294.843 335.077 301.241 322.872C303.875 325.842 317.599 331.155 333.036 333.87Z" fill="#BCE8BB"/>
<path d="M336.748 325.476C355.586 331.518 343.39 303.789 333.876 282.74C324.361 261.691 303.776 222.095 272.179 222.095C246.287 222.095 197.225 315.004 208.715 323.745C217.906 330.738 239.483 313.598 253.845 302.59C258.154 312.303 264.659 328.502 275 329.279C285.341 330.056 291.372 311.332 299.51 302.59C302.383 305.828 319.576 319.969 336.748 325.476Z" fill="#BCE8BB"/>
<path fill-rule="evenodd" clip-rule="evenodd" d="M324.155 261.106C328.714 270.815 332.051 277.921 331.516 277.867C316.922 276.401 300.001 269.958 297.56 267.216C292.556 276.73 284.869 282.789 276.081 282.131C267.293 281.473 259.274 274.153 255.612 265.927C243.407 275.25 220.761 278.72 222.351 276.161C225.072 271.786 227.614 266.951 230.034 261.868C244.588 238.555 262.315 218.168 274.958 218.168C290.232 218.168 303.138 226.685 313.67 238.154C314.213 239.522 314.757 240.825 315.312 242.047C318.321 248.682 321.453 255.351 324.155 261.106Z" fill="#BCE8BB"/>
<path d="M330.663 262.516C344.308 267.206 334.125 243.011 326.399 225.843C318.672 208.676 299.173 181.605 273.578 179.785C249.642 178.084 210.462 252.828 219.793 259.957C227.257 265.661 247.025 254.416 258.689 245.438C262.188 253.36 267.471 266.572 275.868 267.206C284.266 267.84 289.164 252.568 295.773 245.438C298.106 248.079 318.495 258.334 330.663 262.516Z" fill="#BCE8BB"/>
<path fill-rule="evenodd" clip-rule="evenodd" d="M319.655 212.91C322.432 217.81 324.133 220.81 323.84 220.726C323.207 220.545 322.426 220.327 321.533 220.077C314.007 217.974 298.486 213.636 295.696 210.492C293.991 212.63 292.452 214.617 291.042 216.435C284.799 224.492 281.108 229.255 276.933 229.255C271.692 229.255 268.576 224.751 264.611 219.02C262.753 216.334 260.708 213.379 258.171 210.492C242.567 222.452 231.733 221.579 231.733 221.579C231.733 221.579 237.496 200.227 247.59 180.916C256.782 170.516 265.881 163.585 273.252 163.585C282.315 163.585 290.544 166.584 297.938 171.418C298.043 171.648 298.149 171.88 298.255 172.114C305.048 187.143 314.331 203.518 319.655 212.91Z" fill="#BCE8BB"/>
<path d="M317.809 208.719C329.356 215.363 322.259 193.884 315.885 179.485C309.51 165.086 295.718 138 274.549 138C257.202 138 224.331 201.555 232.029 207.535C238.187 212.319 252.643 200.594 262.265 193.064C265.152 199.708 269.511 210.789 276.439 211.321C283.367 211.852 287.408 199.043 292.86 193.064C294.785 195.279 308.572 203.404 317.809 208.719Z" fill="#BCE8BB"/>
<rect x="963.953" y="300.665" width="25.0153" height="117.929" fill="#BCE8BB"/>
<rect x="964.02" y="257.064" width="25.0153" height="117.929" fill="#BCE8BB"/>
<path d="M976.193 236.34L1047.37 359.63H905.012L976.193 236.34Z" fill="#BCE8BB"/>
<path d="M976.259 189.883L1036.61 294.412H915.91L976.259 189.883Z" fill="#BCE8BB"/>
<path d="M999.457 229.69H953.074L946.231 241.096H1006.3L999.457 229.69Z" fill="#BCE8BB"/>
<path d="M1009.75 294.321H942.724L936.347 304.967H1016.18L1009.75 294.321Z" fill="#BCE8BB"/>
<path d="M977.053 147L1025.02 230.087H929.083L977.053 147Z" fill="#BCE8BB"/>
<rect x="367.024" y="356.296" width="24.3018" height="114.566" fill="#BCE8BB"/>
<rect x="367.09" y="313.938" width="24.3018" height="114.566" fill="#BCE8BB"/>
<rect x="336.05" y="311.48" width="87.9496" height="87.9496" rx="43.9748" fill="#BCE8BB"/>
<rect x="340.478" y="255.474" width="80.4856" height="80.4856" rx="40.2428" fill="#BCE8BB"/>
<rect x="346.381" y="212" width="68.067" height="68.067" rx="34.0335" fill="#BCE8BB"/>
<path fill-rule="evenodd" clip-rule="evenodd" d="M336.321 350.698C336.109 352.45 336 354.233 336 356.042C336 380.329 355.688 400.017 379.975 400.017C404.261 400.017 423.95 380.329 423.95 356.042C423.95 354.233 423.84 352.45 423.628 350.698C420.991 372.465 402.453 389.33 379.975 389.33C357.497 389.33 338.958 372.465 336.321 350.698Z" fill="#BCE8BB"/>
<rect x="52.0245" y="356.296" width="24.3018" height="114.566" fill="#BCE8BB"/>
<rect x="52.0896" y="313.938" width="24.3018" height="114.566" fill="#BCE8BB"/>
<rect x="21.0504" y="311.48" width="87.9496" height="87.9496" rx="43.9748" fill="#BCE8BB"/>
<rect x="25.4782" y="255.474" width="80.4856" height="80.4856" rx="40.2428" fill="#BCE8BB"/>
<rect x="31.3806" y="212" width="68.067" height="68.067" rx="34.0335" fill="#BCE8BB"/>
<path fill-rule="evenodd" clip-rule="evenodd" d="M21.3214 350.698C21.1092 352.45 21 354.233 21 356.042C21 380.329 40.6882 400.017 64.9748 400.017C89.2614 400.017 108.95 380.329 108.95 356.042C108.95 354.233 108.84 352.45 108.628 350.698C105.991 372.465 87.4525 389.33 64.9748 389.33C42.497 389.33 23.9582 372.465 21.3214 350.698Z" fill="#BCE8BB"/>
<path d="M579.105 346.451H593.104L604.513 455.427H567.516L579.105 346.451Z" fill="#BCE8BB"/>
<path d="M579.005 346.451H592.912L598.959 405.106H572.958L579.005 346.451Z" fill="#BCE8BB"/>
<path fill-rule="evenodd" clip-rule="evenodd" d="M524.112 295.021C524.112 278.775 537.281 265.606 553.526 265.606C569.771 265.606 582.941 278.775 582.941 295.021V297.122C582.941 298.226 582.88 299.316 582.761 300.388C595.004 303.946 603.951 315.247 603.951 328.637V330.738C603.951 346.984 590.782 360.153 574.537 360.153C565.751 360.153 557.865 356.302 552.476 350.195C547.086 356.302 539.2 360.153 530.415 360.153C514.169 360.153 501 346.984 501 330.738V328.637C501 314.511 510.959 302.71 524.238 299.872C524.154 298.967 524.112 298.049 524.112 297.122V295.021Z" fill="#BCE8BB"/>
<path fill-rule="evenodd" clip-rule="evenodd" d="M590.247 384.75C580.277 396.742 562.472 398.381 550.48 388.411C538.488 378.44 536.849 360.636 546.819 348.643L548.109 347.092C548.787 346.277 549.5 345.51 550.246 344.791C543.393 334.651 543.723 320.817 551.942 310.932L553.231 309.381C563.202 297.389 581.006 295.75 592.999 305.72C599.484 311.112 602.942 318.796 603.172 326.612C610.899 325.412 619.084 327.408 625.57 332.8C637.562 342.771 639.201 360.575 629.23 372.568L627.941 374.119C619.27 384.547 604.676 387.147 593.131 381.091C592.638 381.811 592.106 382.514 591.537 383.199L590.247 384.75Z" fill="#BCE8BB"/>
<path fill-rule="evenodd" clip-rule="evenodd" d="M583.198 285.543C583.198 269.117 596.513 255.801 612.939 255.801C629.365 255.801 642.68 269.117 642.68 285.543V287.667C642.68 288.783 642.619 289.885 642.499 290.97C654.878 294.568 663.924 305.994 663.924 319.533V321.657C663.924 338.083 650.609 351.399 634.183 351.399C625.3 351.399 617.327 347.504 611.877 341.33C606.427 347.504 598.454 351.399 589.571 351.399C573.145 351.399 559.829 338.083 559.829 321.657V319.533C559.829 305.249 569.898 293.317 583.326 290.448C583.241 289.533 583.198 288.605 583.198 287.667V285.543Z" fill="#BCE8BB"/>
<path fill-rule="evenodd" clip-rule="evenodd" d="M572.366 243.74C572.366 227.314 585.681 213.998 602.107 213.998C618.533 213.998 631.849 227.314 631.849 243.74V245.864C631.849 246.98 631.787 248.082 631.667 249.167C644.046 252.764 653.092 264.191 653.092 277.73V279.854C653.092 296.28 639.777 309.596 623.351 309.596C614.468 309.596 606.495 305.701 601.045 299.527C595.595 305.701 587.622 309.596 578.739 309.596C562.313 309.596 548.997 296.28 548.997 279.854V277.73C548.997 263.446 559.067 251.514 572.494 248.645C572.409 247.729 572.366 246.802 572.366 245.864V243.74Z" fill="#BCE8BB"/>
<path fill-rule="evenodd" clip-rule="evenodd" d="M529.849 255.964C529.849 242.486 540.775 231.56 554.252 231.56C567.73 231.56 578.656 242.486 578.656 255.964V257.707C578.656 258.623 578.605 259.527 578.507 260.417C588.663 263.369 596.086 272.744 596.086 283.853V285.596C596.086 299.074 585.161 309.999 571.683 309.999C564.395 309.999 557.852 306.804 553.381 301.738C548.909 306.804 542.367 309.999 535.078 309.999C521.601 309.999 510.675 299.074 510.675 285.596V283.853C510.675 272.133 518.937 262.343 529.954 259.989C529.885 259.237 529.849 258.476 529.849 257.707V255.964Z" fill="#BCE8BB"/>
<path fill-rule="evenodd" clip-rule="evenodd" d="M608.255 232.444C617.511 242.24 617.074 257.685 607.278 266.942C597.482 276.198 582.037 275.761 572.78 265.965L571.583 264.698C570.954 264.032 570.37 263.34 569.83 262.626C560.421 267.456 548.586 265.74 540.956 257.665L539.759 256.398C530.503 246.603 530.94 231.157 540.736 221.901C546.034 216.895 552.983 214.724 559.713 215.335C559.484 208.582 562.044 201.766 567.342 196.76C577.138 187.504 592.583 187.941 601.839 197.737L603.037 199.004C611.086 207.523 611.805 220.313 605.414 229.591C605.981 230.089 606.529 230.618 607.058 231.177L608.255 232.444Z" fill="#BCE8BB"/>
<path fill-rule="evenodd" clip-rule="evenodd" d="M661.256 307.751C656.923 314.158 650.159 318.785 642.288 320.309C641.391 324.738 639.416 329.014 636.324 332.732L635.035 334.283C626.364 344.712 611.77 347.311 600.225 341.255C599.732 341.975 599.2 342.679 598.631 343.363L597.341 344.914C587.371 356.907 569.566 358.546 557.574 348.575C550.553 342.738 547.081 334.216 547.409 325.747C543.113 328.202 538.137 329.606 532.833 329.606C521.009 329.606 510.814 322.629 506.141 312.568C502.898 317.296 501 323.02 501 329.186V331.288C501 347.533 514.169 360.702 530.415 360.702C534.408 360.702 538.215 359.906 541.687 358.465C538.197 369.145 541.315 381.34 550.48 388.96C562.472 398.93 580.277 397.291 590.247 385.299L591.537 383.748C592.106 383.063 592.638 382.36 593.131 381.64C604.676 387.696 619.271 385.096 627.941 374.668L629.23 373.117C634.345 366.965 636.405 359.284 635.579 351.916C651.357 351.187 663.924 338.164 663.924 322.206V320.082C663.924 315.683 662.97 311.508 661.256 307.751Z" fill="#BCE8BB"/>
<path d="M447.105 346.451H461.104L472.513 455.427H435.516L447.105 346.451Z" fill="#BCE8BB"/>
<path d="M447.005 346.451H460.912L466.959 405.106H440.958L447.005 346.451Z" fill="#BCE8BB"/>
<path fill-rule="evenodd" clip-rule="evenodd" d="M392.112 295.021C392.112 278.775 405.281 265.606 421.526 265.606C437.771 265.606 450.941 278.775 450.941 295.021V297.122C450.941 298.226 450.88 299.316 450.761 300.388C463.004 303.946 471.951 315.247 471.951 328.637V330.738C471.951 346.984 458.782 360.153 442.537 360.153C433.751 360.153 425.865 356.302 420.476 350.195C415.086 356.302 407.2 360.153 398.415 360.153C382.169 360.153 369 346.984 369 330.738V328.637C369 314.511 378.959 302.71 392.238 299.872C392.154 298.967 392.112 298.049 392.112 297.122V295.021Z" fill="#BCE8BB"/>
<path fill-rule="evenodd" clip-rule="evenodd" d="M458.247 384.75C448.277 396.742 430.472 398.381 418.48 388.411C406.488 378.44 404.849 360.636 414.819 348.643L416.109 347.092C416.787 346.277 417.5 345.51 418.246 344.791C411.393 334.651 411.723 320.817 419.942 310.932L421.231 309.381C431.202 297.389 449.006 295.75 460.999 305.72C467.484 311.112 470.942 318.796 471.172 326.612C478.899 325.412 487.084 327.408 493.57 332.8C505.562 342.771 507.201 360.575 497.23 372.568L495.941 374.119C487.27 384.547 472.676 387.147 461.131 381.091C460.638 381.811 460.106 382.514 459.537 383.199L458.247 384.75Z" fill="#BCE8BB"/>
<path fill-rule="evenodd" clip-rule="evenodd" d="M451.198 285.543C451.198 269.117 464.513 255.801 480.939 255.801C497.365 255.801 510.68 269.117 510.68 285.543V287.667C510.68 288.783 510.619 289.885 510.499 290.97C522.878 294.568 531.924 305.994 531.924 319.533V321.657C531.924 338.083 518.609 351.399 502.183 351.399C493.3 351.399 485.327 347.504 479.877 341.33C474.427 347.504 466.454 351.399 457.571 351.399C441.145 351.399 427.829 338.083 427.829 321.657V319.533C427.829 305.249 437.899 293.317 451.326 290.448C451.241 289.533 451.198 288.605 451.198 287.667V285.543Z" fill="#BCE8BB"/>
<path fill-rule="evenodd" clip-rule="evenodd" d="M440.366 243.74C440.366 227.314 453.681 213.998 470.107 213.998C486.533 213.998 499.849 227.314 499.849 243.74V245.864C499.849 246.98 499.787 248.082 499.667 249.167C512.046 252.764 521.092 264.191 521.092 277.73V279.854C521.092 296.28 507.777 309.596 491.351 309.596C482.468 309.596 474.495 305.701 469.045 299.527C463.595 305.701 455.622 309.596 446.739 309.596C430.313 309.596 416.997 296.28 416.997 279.854V277.73C416.997 263.446 427.067 251.514 440.494 248.645C440.409 247.729 440.366 246.802 440.366 245.864V243.74Z" fill="#BCE8BB"/>
<path fill-rule="evenodd" clip-rule="evenodd" d="M397.849 255.964C397.849 242.486 408.775 231.56 422.252 231.56C435.73 231.56 446.656 242.486 446.656 255.964V257.707C446.656 258.623 446.605 259.527 446.507 260.417C456.663 263.369 464.086 272.744 464.086 283.853V285.596C464.086 299.074 453.161 309.999 439.683 309.999C432.395 309.999 425.852 306.804 421.381 301.738C416.909 306.804 410.367 309.999 403.078 309.999C389.601 309.999 378.675 299.074 378.675 285.596V283.853C378.675 272.133 386.937 262.343 397.954 259.989C397.885 259.237 397.849 258.476 397.849 257.707V255.964Z" fill="#BCE8BB"/>
<path fill-rule="evenodd" clip-rule="evenodd" d="M476.255 232.444C485.511 242.24 485.074 257.685 475.278 266.942C465.482 276.198 450.037 275.761 440.78 265.965L439.583 264.698C438.954 264.032 438.37 263.34 437.83 262.626C428.421 267.456 416.586 265.74 408.956 257.665L407.759 256.398C398.503 246.603 398.94 231.157 408.736 221.901C414.034 216.895 420.983 214.724 427.713 215.335C427.484 208.582 430.044 201.766 435.342 196.76C445.138 187.504 460.583 187.941 469.839 197.737L471.037 199.004C479.086 207.523 479.805 220.313 473.414 229.591C473.981 230.089 474.529 230.618 475.058 231.177L476.255 232.444Z" fill="#BCE8BB"/>
<path fill-rule="evenodd" clip-rule="evenodd" d="M529.256 307.751C524.923 314.158 518.159 318.785 510.288 320.309C509.391 324.738 507.416 329.014 504.324 332.732L503.035 334.283C494.364 344.712 479.77 347.311 468.225 341.255C467.732 341.975 467.2 342.679 466.631 343.363L465.341 344.914C455.371 356.907 437.566 358.546 425.574 348.575C418.553 342.738 415.081 334.216 415.409 325.747C411.113 328.202 406.137 329.606 400.833 329.606C389.009 329.606 378.814 322.629 374.141 312.568C370.898 317.296 369 323.02 369 329.186V331.288C369 347.533 382.169 360.702 398.415 360.702C402.408 360.702 406.215 359.906 409.687 358.465C406.197 369.145 409.315 381.34 418.48 388.96C430.472 398.93 448.277 397.291 458.247 385.299L459.537 383.748C460.106 383.063 460.638 382.36 461.131 381.64C472.676 387.696 487.271 385.096 495.941 374.668L497.23 373.117C502.345 366.965 504.405 359.284 503.579 351.916C519.357 351.187 531.924 338.164 531.924 322.206V320.082C531.924 315.683 530.97 311.508 529.256 307.751Z" fill="#BCE8BB"/>
<path d="M-34.0432 275.5H-10.9295L7.90827 455.427H-53.178L-34.0432 275.5Z" fill="#BCE8BB"/>
<path fill-rule="evenodd" clip-rule="evenodd" d="M-124.841 182.017C-124.841 159.927 -106.934 142.019 -84.8434 142.019H-67.7076C-45.6175 142.019 -27.7098 159.927 -27.7098 182.017V197.872C-8.12881 200.468 6.98001 217.23 6.98001 237.52V258.125C6.98001 280.215 -10.9276 298.123 -33.0178 298.123H-50.1535C-60.9834 298.123 -70.8079 293.819 -78.0099 286.828C-85.2119 293.819 -95.0365 298.123 -105.866 298.123H-123.002C-145.092 298.123 -163 280.215 -163 258.125V237.52C-163 216.046 -146.078 198.525 -124.841 197.564V182.017Z" fill="#BCE8BB"/>
<path fill-rule="evenodd" clip-rule="evenodd" d="M-19.8822 343.829C-34.0048 360.815 -59.2234 363.137 -76.2095 349.014L-86.4 340.542C-103.386 326.419 -105.708 301.201 -91.585 284.215L-82.734 273.569C-95.2329 259.034 -95.7917 237.183 -83.1276 221.951L-72.526 209.199C-58.4035 192.213 -33.1849 189.892 -16.1987 204.014L-6.00824 212.487C2.50799 219.567 7.33801 229.437 8.25761 239.66C18.4766 238.698 29.0622 241.645 37.5784 248.725L47.7689 257.198C64.755 271.32 67.0765 296.539 52.9539 313.525L42.3523 326.277C28.9542 342.391 5.56919 345.307 -11.2986 333.505L-19.8822 343.829Z" fill="#BCE8BB"/>
<path fill-rule="evenodd" clip-rule="evenodd" d="M-27.2859 165.828C-27.2859 143.738 -9.37825 125.83 12.7119 125.83H30.927C53.0171 125.83 70.9247 143.738 70.9247 165.828V182.251C90.6926 184.677 106 201.525 106 221.948V243.671C106 265.761 88.0924 283.669 66.0023 283.669H47.7872C37.0248 283.669 27.2553 279.418 20.0657 272.504C12.8762 279.418 3.10661 283.669 -7.65577 283.669H-25.8708C-47.961 283.669 -65.8686 265.761 -65.8686 243.671V221.949C-65.8686 200.332 -48.7207 182.721 -27.2859 181.975V165.828Z" fill="#BCE8BB"/>
<path fill-rule="evenodd" clip-rule="evenodd" d="M-45.1702 96.8082C-45.1702 74.718 -27.2626 56.8104 -5.17242 56.8104H13.0426C35.1328 56.8104 53.0404 74.718 53.0404 96.8081V113.231C72.8083 115.657 88.1157 132.505 88.1157 152.928V174.651C88.1157 196.741 70.2081 214.649 48.1179 214.649H29.9029C19.1405 214.649 9.37093 210.398 2.18138 203.484C-5.00817 210.398 -14.7777 214.649 -25.5401 214.649H-43.7551C-65.8453 214.649 -83.7529 196.741 -83.7529 174.651V152.929C-83.7529 131.312 -66.605 113.701 -45.1702 112.955V96.8082Z" fill="#BCE8BB"/>
<path fill-rule="evenodd" clip-rule="evenodd" d="M14.2872 87.4794C29.459 103.535 28.5287 129.052 12.4727 144.224C-3.58323 159.396 -29.1118 158.881 -44.2835 142.825L-46.6636 140.306C-47.6362 139.277 -48.5426 138.208 -49.3831 137.107C-64.8447 145.023 -84.3427 142.334 -96.8274 129.122L-99.2075 126.603C-114.379 110.547 -113.449 85.0302 -97.393 69.8585C-88.6883 61.6331 -77.1993 58.0185 -66.086 58.9914C-66.4285 47.8408 -62.1696 36.5748 -53.4648 28.3495C-37.4089 13.1777 -11.8803 13.6928 3.29141 29.7487L5.67151 32.2675C18.8478 46.2117 19.8791 67.2918 9.40507 82.5338C10.2663 83.2989 11.1013 84.1078 11.9071 84.9606L14.2872 87.4794Z" fill="#BCE8BB"/>
<path fill-rule="evenodd" clip-rule="evenodd" d="M104.777 213.001C98.2652 224.435 86.2769 232.346 72.3818 233.164C70.9024 238.357 68.341 243.334 64.6665 247.754L54.0649 260.505C40.6668 276.62 17.2818 279.536 0.413971 267.734L-8.16963 278.058C-22.2922 295.044 -47.5108 297.366 -64.4969 283.243L-74.6874 274.771C-83.7575 267.23 -88.6463 256.525 -89.083 245.599C-93.0988 246.953 -97.4001 247.688 -101.873 247.688H-119.009C-137.421 247.688 -152.928 235.246 -157.581 218.311C-161.026 224.22 -163 231.093 -163 238.427V259.032C-163 281.122 -145.092 299.029 -123.002 299.029H-105.866C-103.494 299.029 -101.17 298.823 -98.9107 298.427C-103.764 313.513 -99.3322 330.696 -86.3999 341.448L-76.2094 349.921C-59.2233 364.044 -34.0047 361.722 -19.8821 344.736L-11.2985 334.412C5.56934 346.214 28.9543 343.298 42.3524 327.183L52.954 314.432C60.1583 305.767 63.0834 294.959 61.9655 284.575H66.0024C88.0926 284.575 106 266.668 106 244.578V222.855C106 219.454 105.576 216.153 104.777 213.001Z" fill="#BCE8BB"/>
<path d="M1568.96 275.5H1592.07L1610.91 455.427H1549.82L1568.96 275.5Z" fill="#BCE8BB"/>
<path d="M1568.79 275.5H1591.75L1601.74 372.343H1558.81L1568.79 275.5Z" fill="#BCE8BB"/>
<path fill-rule="evenodd" clip-rule="evenodd" d="M1478.16 182.017C1478.16 159.927 1496.07 142.019 1518.16 142.019H1535.29C1557.38 142.019 1575.29 159.927 1575.29 182.017V197.872C1594.87 200.468 1609.98 217.23 1609.98 237.52V258.125C1609.98 280.215 1592.07 298.123 1569.98 298.123H1552.85C1542.02 298.123 1532.19 293.819 1524.99 286.828C1517.79 293.819 1507.96 298.123 1497.13 298.123H1480C1457.91 298.123 1440 280.215 1440 258.125V237.52C1440 216.046 1456.92 198.525 1478.16 197.564V182.017Z" fill="#BCE8BB"/>
<path fill-rule="evenodd" clip-rule="evenodd" d="M1583.12 343.829C1569 360.815 1543.78 363.137 1526.79 349.014L1516.6 340.542C1499.61 326.419 1497.29 301.201 1511.41 284.215L1520.27 273.569C1507.77 259.034 1507.21 237.183 1519.87 221.951L1530.47 209.199C1544.6 192.213 1569.82 189.892 1586.8 204.014L1596.99 212.487C1605.51 219.567 1610.34 229.437 1611.26 239.66C1621.48 238.698 1632.06 241.645 1640.58 248.725L1650.77 257.198C1667.76 271.32 1670.08 296.539 1655.95 313.525L1645.35 326.277C1631.95 342.391 1608.57 345.307 1591.7 333.505L1583.12 343.829Z" fill="#BCE8BB"/>
<path fill-rule="evenodd" clip-rule="evenodd" d="M1575.71 165.828C1575.71 143.738 1593.62 125.83 1615.71 125.83H1633.93C1656.02 125.83 1673.92 143.738 1673.92 165.828V182.251C1693.69 184.677 1709 201.525 1709 221.948V243.671C1709 265.761 1691.09 283.669 1669 283.669H1650.79C1640.02 283.669 1630.26 279.418 1623.07 272.504C1615.88 279.418 1606.11 283.669 1595.34 283.669H1577.13C1555.04 283.669 1537.13 265.761 1537.13 243.671V221.949C1537.13 200.332 1554.28 182.721 1575.71 181.975V165.828Z" fill="#BCE8BB"/>
<path fill-rule="evenodd" clip-rule="evenodd" d="M1557.83 96.8082C1557.83 74.718 1575.74 56.8104 1597.83 56.8104H1616.04C1638.13 56.8104 1656.04 74.718 1656.04 96.8081V113.231C1675.81 115.657 1691.12 132.505 1691.12 152.928V174.651C1691.12 196.741 1673.21 214.649 1651.12 214.649H1632.9C1622.14 214.649 1612.37 210.398 1605.18 203.484C1597.99 210.398 1588.22 214.649 1577.46 214.649H1559.24C1537.15 214.649 1519.25 196.741 1519.25 174.651V152.929C1519.25 131.312 1536.39 113.701 1557.83 112.955V96.8082Z" fill="#BCE8BB"/>
<path fill-rule="evenodd" clip-rule="evenodd" d="M1487.63 125.805C1487.63 103.715 1505.83 85.8071 1527.92 85.8071C1550.01 85.8071 1568.21 103.715 1568.21 125.805V129.27C1568.21 130.686 1568.14 132.085 1567.99 133.463C1584.67 138.329 1596.99 153.674 1596.99 171.852V175.318C1596.99 197.408 1578.79 215.315 1556.7 215.315C1544.73 215.315 1533.89 210.052 1526.48 201.712C1519.07 210.052 1508.24 215.315 1496.27 215.315C1474.18 215.315 1455.97 197.408 1455.97 175.318V171.852C1455.97 152.668 1469.7 136.637 1487.78 132.753C1487.68 131.605 1487.63 130.444 1487.63 129.27V125.805Z" fill="#BCE8BB"/>
<path fill-rule="evenodd" clip-rule="evenodd" d="M1617.29 87.4794C1632.46 103.535 1631.53 129.052 1615.47 144.224C1599.42 159.396 1573.89 158.881 1558.72 142.825L1556.34 140.306C1555.36 139.277 1554.46 138.208 1553.62 137.107C1538.16 145.023 1518.66 142.334 1506.17 129.122L1503.79 126.603C1488.62 110.547 1489.55 85.0302 1505.61 69.8585C1514.31 61.6331 1525.8 58.0185 1536.91 58.9914C1536.57 47.8408 1540.83 36.5748 1549.54 28.3495C1565.59 13.1777 1591.12 13.6928 1606.29 29.7487L1608.67 32.2675C1621.85 46.2117 1622.88 67.2918 1612.41 82.5338C1613.27 83.2989 1614.1 84.1078 1614.91 84.9606L1617.29 87.4794Z" fill="#BCE8BB"/>
<path fill-rule="evenodd" clip-rule="evenodd" d="M1707.78 213.001C1701.27 224.435 1689.28 232.346 1675.38 233.164C1673.9 238.357 1671.34 243.334 1667.67 247.754L1657.06 260.505C1643.67 276.62 1620.28 279.536 1603.41 267.734L1594.83 278.058C1580.71 295.044 1555.49 297.366 1538.5 283.243L1528.31 274.771C1519.24 267.23 1514.35 256.525 1513.92 245.599C1509.9 246.953 1505.6 247.688 1501.13 247.688H1483.99C1465.58 247.688 1450.07 235.246 1445.42 218.311C1441.97 224.22 1440 231.093 1440 238.427V259.032C1440 281.122 1457.91 299.029 1480 299.029H1497.13C1499.51 299.029 1501.83 298.823 1504.09 298.427C1499.24 313.513 1503.67 330.696 1516.6 341.448L1526.79 349.921C1543.78 364.044 1569 361.722 1583.12 344.736L1591.7 334.412C1608.57 346.214 1631.95 343.298 1645.35 327.183L1655.95 314.432C1663.16 305.767 1666.08 294.959 1664.97 284.575H1669C1691.09 284.575 1709 266.668 1709 244.578V222.855C1709 219.454 1708.58 216.153 1707.78 213.001Z" fill="#BCE8BB"/>
<rect x="797.772" y="265.943" width="101.047" height="101.047" rx="50.5237" fill="#BCE8BB"/>
<path d="M873.557 299.625C873.557 285.673 884.867 274.363 898.819 274.363V274.363V274.363C898.819 288.315 887.509 299.625 873.557 299.625V299.625V299.625Z" fill="#BCE8BB"/>
<path d="M833.92 290.663C820.966 289.442 811.455 277.95 812.676 264.996V264.996V264.996C825.63 266.217 835.142 277.709 833.92 290.663V290.663V290.663Z" fill="#BCE8BB"/>
<path d="M814.193 332.816C804.231 341.186 789.37 339.895 781 329.932V329.932V329.932C790.962 321.562 805.824 322.853 814.193 332.816V332.816V332.816Z" fill="#BCE8BB"/>
<path d="M907.912 340.862C897.949 349.232 883.088 347.941 874.718 337.979V337.979V337.979C884.681 329.609 899.542 330.9 907.912 340.862V340.862V340.862Z" fill="#BCE8BB"/>
<rect x="959.45" y="331.82" width="101.047" height="101.047" rx="50.5237" transform="rotate(119.838 959.45 331.82)" fill="#BCE8BB"/>
<path d="M892.526 380.8C904.628 387.742 908.812 403.18 901.87 415.282V415.282V415.282C889.768 408.341 885.584 392.903 892.526 380.8V380.8V380.8Z" fill="#BCE8BB"/>
<path d="M920.021 350.877C927.526 340.248 942.227 337.715 952.856 345.22V345.22V345.22C945.351 355.849 930.65 358.382 920.021 350.877V350.877V350.877Z" fill="#BCE8BB"/>
<path d="M893.271 312.792C890.968 299.986 899.482 287.737 912.288 285.434V285.434V285.434C914.592 298.24 906.078 310.489 893.271 312.792V312.792V312.792Z" fill="#BCE8BB"/>
<path d="M839.662 390.083C837.358 377.277 845.872 365.028 858.679 362.725V362.725V362.725C860.982 375.531 852.468 387.78 839.662 390.083V390.083V390.083Z" fill="#BCE8BB"/>
<rect x="1007.45" y="295.822" width="101.047" height="101.047" rx="50.5237" transform="rotate(119.838 1007.45 295.822)" fill="#BCE8BB"/>
<path d="M940.523 344.802C952.626 351.744 956.809 367.182 949.867 379.284V379.284V379.284C937.765 372.343 933.582 356.905 940.523 344.802V344.802V344.802Z" fill="#BCE8BB"/>
<path d="M968.019 314.879C975.523 304.25 990.224 301.717 1000.85 309.222V309.222V309.222C993.348 319.851 978.648 322.384 968.019 314.879V314.879V314.879Z" fill="#BCE8BB"/>
<path d="M941.269 276.794C938.965 263.988 947.479 251.739 960.285 249.436V249.436V249.436C962.589 262.242 954.075 274.491 941.269 276.794V276.794V276.794Z" fill="#BCE8BB"/>
<path d="M887.659 354.085C885.356 341.279 893.87 329.03 906.676 326.727V326.727V326.727C908.98 339.533 900.466 351.782 887.659 354.085V354.085V354.085Z" fill="#BCE8BB"/>
<rect x="982.335" y="249.677" width="94.5829" height="94.5829" rx="47.2914" transform="rotate(119.838 982.335 249.677)" fill="#BCE8BB"/>
<path d="M919.692 295.524C931.02 302.022 934.936 316.472 928.438 327.8V327.8V327.8C917.11 321.303 913.195 306.852 919.692 295.524V295.524V295.524Z" fill="#BCE8BB"/>
<path d="M945.428 267.515C952.453 257.566 966.213 255.195 976.162 262.22V262.22V262.22C969.138 272.169 955.378 274.54 945.428 267.515V267.515V267.515Z" fill="#BCE8BB"/>
<path d="M920.39 231.867C918.234 219.88 926.203 208.415 938.19 206.258V206.258V206.258C940.346 218.245 932.377 229.71 920.39 231.867V231.867V231.867Z" fill="#BCE8BB"/>
<path d="M870.21 304.213C868.054 292.226 876.023 280.761 888.01 278.605V278.605V278.605C890.166 290.592 882.197 302.057 870.21 304.213V304.213V304.213Z" fill="#BCE8BB"/>
<path fill-rule="evenodd" clip-rule="evenodd" d="M799.684 303.258C798.499 307.549 797.866 312.069 797.866 316.738C797.866 319.478 798.084 322.168 798.504 324.79C792.431 324.207 786.135 325.969 781.095 330.204C786.579 336.731 794.85 339.536 802.704 338.34C810.032 353.81 824.986 364.964 842.713 366.946C843.236 368.496 843.834 370.022 844.505 371.518C840.437 376.636 838.508 383.414 839.757 390.355C844.704 389.465 849.01 387.091 852.3 383.774C855.936 387.992 860.337 391.677 865.443 394.605C873.347 399.139 881.962 401.3 890.464 401.311C892.314 407.121 896.259 412.281 901.965 415.554C904.92 410.401 905.859 404.643 905.028 399.193C917.01 395.62 927.695 387.619 934.407 375.917C936.225 372.747 937.662 369.461 938.732 366.115C940.68 371.596 944.52 376.435 949.962 379.556C952.918 374.402 953.856 368.645 953.025 363.195C965.008 359.622 975.692 351.621 982.404 339.919C986.332 333.071 988.479 325.69 988.99 318.31C993.66 316.795 997.898 313.812 1000.95 309.493C997.055 306.744 992.616 305.342 988.184 305.191C987.473 301.523 986.359 297.939 984.86 294.51C983.754 298.493 982.137 302.404 979.985 306.155C970.172 323.263 951.869 332.459 933.433 331.478C933.16 331.994 932.877 332.507 932.585 333.017C918.701 357.221 887.825 365.588 863.621 351.705C855.716 347.171 849.501 340.825 845.198 333.491C824.84 333.185 807.4 320.839 799.684 303.258Z" fill="#BCE8BB"/>
<path d="M891.852 354.979H905.851L917.261 463.955H880.263L891.852 354.979Z" fill="#BCE8BB"/>
<path d="M891.752 354.979H905.952L911.964 413.633H885.705L891.752 354.979Z" fill="#BCE8BB"/>
<path fill-rule="evenodd" clip-rule="evenodd" d="M887.92 401.416C866.027 385.652 863.365 361.967 864.897 351.628L874.789 353.093C873.654 360.753 875.659 380.266 893.763 393.301L887.92 401.416Z" fill="#BCE8BB"/>
<path fill-rule="evenodd" clip-rule="evenodd" d="M904.456 385.417C926.35 369.653 929.011 345.968 927.479 335.629L917.588 337.094C918.723 344.754 916.718 364.267 898.614 377.302L904.456 385.417Z" fill="#BCE8BB"/>
<rect x="942.429" y="316.773" width="72.4067" height="72.4067" rx="36.2034" transform="rotate(119.838 942.429 316.773)" fill="#BCE8BB"/>
<path d="M894.474 351.871C903.146 356.845 906.144 367.907 901.17 376.579V376.579V376.579C892.498 371.605 889.5 360.543 894.474 351.871V351.871V351.871Z" fill="#BCE8BB"/>
<path d="M914.176 330.429C919.554 322.812 930.088 320.997 937.704 326.375V326.375V326.375C932.326 333.992 921.793 335.807 914.176 330.429V330.429V330.429Z" fill="#BCE8BB"/>
<path d="M895.008 303.139C893.357 293.963 899.458 285.185 908.635 283.535V283.535V283.535C910.285 292.711 904.185 301.488 895.008 303.139V303.139V303.139Z" fill="#BCE8BB"/>
<path d="M856.594 358.523C854.943 349.346 861.044 340.569 870.22 338.919V338.919V338.919C871.871 348.095 865.77 356.872 856.594 358.523V358.523V358.523Z" fill="#BCE8BB"/>
<rect x="823.847" y="200.948" width="94.5829" height="94.5829" rx="47.2914" transform="rotate(8.46442 823.847 200.948)" fill="#BCE8BB"/>
<path d="M889.371 242.574C891.293 229.657 903.323 220.744 916.24 222.666V222.666V222.666C914.318 235.583 902.288 244.496 889.371 242.574V242.574V242.574Z" fill="#BCE8BB"/>
<path d="M853.909 228.815C842.084 225.9 834.861 213.95 837.777 202.125V202.125V202.125C849.602 205.04 856.824 216.99 853.909 228.815V228.815V228.815Z" fill="#BCE8BB"/>
<path d="M829.838 265.123C819.461 271.5 805.88 268.257 799.503 257.881V257.881V257.881C809.88 251.504 823.461 254.747 829.838 265.123V265.123V265.123Z" fill="#BCE8BB"/>
<path d="M915.496 285.486C905.119 291.862 891.538 288.62 885.162 278.243V278.243V278.243C895.538 271.866 909.119 275.109 915.496 285.486V285.486V285.486Z" fill="#BCE8BB"/>
<rect x="179.281" y="353.17" width="19.8936" height="93.7843" fill="#BCE8BB"/>
<rect x="179.335" y="318.495" width="19.8936" height="93.7843" fill="#BCE8BB"/>
<path d="M232.267 356.423C232.267 380.96 212.376 400.85 187.84 400.85C163.304 400.85 143.413 380.96 143.413 356.423C143.413 331.887 163.304 282.379 187.84 282.379C212.376 282.379 232.267 331.887 232.267 356.423Z" fill="#BCE8BB"/>
<path fill-rule="evenodd" clip-rule="evenodd" d="M230.921 346.009C226.722 366.18 208.844 381.336 187.427 381.336C166.01 381.336 148.132 366.18 143.933 346.009C143.321 349.782 143 353.304 143 356.423C143 380.96 162.891 400.85 187.427 400.85C211.963 400.85 231.854 380.96 231.854 356.423C231.854 353.304 231.532 349.782 230.921 346.009Z" fill="#BCE8BB"/>
<path d="M224.997 299.541C224.997 319.469 208.524 335.625 188.205 335.625C167.885 335.625 151.413 319.469 151.413 299.541C151.413 279.612 167.885 239.4 188.205 239.4C208.524 239.4 224.997 279.612 224.997 299.541Z" fill="#BCE8BB"/>
<path d="M216.015 248.598C216.015 263.837 203.344 276.192 187.714 276.192C172.083 276.192 159.412 263.837 159.412 248.598C159.412 233.358 172.083 202.608 187.714 202.608C203.344 202.608 216.015 233.358 216.015 248.598Z" fill="#BCE8BB"/>
<rect x="1408.96" y="334.39" width="26.297" height="123.972" fill="#BCE8BB"/>
<rect x="1409.03" y="288.555" width="26.297" height="123.972" fill="#BCE8BB"/>
<path d="M1479 338.691C1479 371.125 1452.71 397.418 1420.27 397.418C1387.84 397.418 1361.55 371.125 1361.55 338.691C1361.55 306.257 1387.84 240.813 1420.27 240.813C1452.71 240.813 1479 306.257 1479 338.691Z" fill="#BCE8BB"/>
<path fill-rule="evenodd" clip-rule="evenodd" d="M1477.22 324.925C1471.67 351.589 1448.04 371.622 1419.73 371.622C1391.42 371.622 1367.78 351.589 1362.23 324.925C1361.42 329.912 1361 334.569 1361 338.691C1361 371.125 1387.29 397.418 1419.73 397.418C1452.16 397.418 1478.45 371.125 1478.45 338.691C1478.45 334.569 1478.03 329.912 1477.22 324.925Z" fill="#BCE8BB"/>
<path d="M1469.39 263.499C1469.39 289.843 1447.62 311.198 1420.76 311.198C1393.89 311.198 1372.12 289.843 1372.12 263.499C1372.12 237.155 1393.89 184 1420.75 184C1447.62 184 1469.39 237.155 1469.39 263.499Z" fill="#BCE8BB"/>
<path d="M993.013 389.007H1004.08L1013.1 475.14H983.853L993.013 389.007Z" fill="#BCE8BB"/>
<path d="M992.933 389.007H1003.93L1008.71 435.367H988.154L992.933 389.007Z" fill="#BCE8BB"/>
<path d="M1031.71 427.498C1042.74 428.61 1035.43 415.345 1030.1 403.549C1024.77 391.753 1013.23 369.563 995.526 369.564C981.017 369.564 953.522 421.63 959.961 426.528C965.112 430.447 977.203 427.372 985.252 421.204C987.667 426.647 991.312 429.194 997.107 429.63C1002.9 430.065 1006.28 426.102 1010.84 421.204C1012.45 423.018 1022.09 426.528 1031.71 427.498Z" fill="#BCE8BB"/>
<path fill-rule="evenodd" clip-rule="evenodd" d="M1029.63 402.229C1022.98 389.143 1011.49 371.801 995.172 371.801C986.779 371.801 974.389 387.833 965.691 403.63C971.611 403.031 978.638 400.183 984.009 396.066C986.632 401.98 990.939 408.129 997.235 408.602C1003.53 409.075 1008.23 402.906 1011.81 396.066C1013.29 397.731 1020.98 400.708 1029.63 402.229Z" fill="#BCE8BB"/>
<path d="M1031.71 397.525C1042.27 400.911 1035.43 385.372 1030.1 373.576C1024.77 361.78 1013.23 339.591 995.526 339.591C981.017 339.591 953.522 391.657 959.961 396.555C965.112 400.474 977.203 390.869 985.252 384.7C987.667 390.143 991.312 399.221 997.107 399.657C1002.9 400.092 1006.28 389.599 1010.84 384.7C1012.45 386.515 1022.09 394.439 1031.71 397.525Z" fill="#BCE8BB"/>
<path fill-rule="evenodd" clip-rule="evenodd" d="M1024.65 361.453C1027.21 366.893 1029.08 370.876 1028.78 370.845C1020.6 370.024 1011.12 366.413 1009.75 364.877C1006.95 370.208 1002.64 373.604 997.713 373.235C992.788 372.866 988.295 368.764 986.243 364.154C979.402 369.379 966.712 371.323 967.603 369.89C969.127 367.438 970.552 364.728 971.908 361.88C980.065 348.816 989.999 337.39 997.084 337.39C1005.64 337.39 1012.88 342.163 1018.78 348.59C1019.08 349.356 1019.39 350.087 1019.7 350.772C1021.38 354.49 1023.14 358.228 1024.65 361.453Z" fill="#BCE8BB"/>
<path d="M1028.3 362.242C1035.95 364.871 1030.24 351.312 1025.91 341.691C1021.58 332.07 1013.01 314.035 998.669 313.015C985.255 312.061 960.94 356.813 966.169 360.809C970.352 364.005 981.43 357.704 987.966 352.672C989.927 357.112 992.888 364.516 997.594 364.871C1002.3 365.226 1005.04 356.668 1008.75 352.672C1010.06 354.152 1021.48 359.899 1028.3 362.242Z" fill="#BCE8BB"/>
<path d="M1722.75 341.51C1746.53 343.907 1730.77 315.31 1719.28 289.881C1707.78 264.451 1682.92 216.615 1644.74 216.615C1613.46 216.615 1554.19 328.858 1568.07 339.419C1579.18 347.867 1605.24 341.238 1622.59 327.94C1627.8 339.674 1635.66 345.166 1648.15 346.105C1660.64 347.043 1667.93 338.5 1677.76 327.94C1681.23 331.851 1702 339.419 1722.75 341.51Z" fill="#BCE8BB"/>
<path fill-rule="evenodd" clip-rule="evenodd" d="M1718.26 287.036C1703.93 258.825 1679.15 221.439 1643.98 221.439C1625.89 221.439 1599.18 256 1580.42 290.055C1593.19 288.764 1608.34 282.623 1619.91 273.75C1625.57 286.498 1634.85 299.754 1648.43 300.774C1662 301.794 1672.12 288.493 1679.85 273.75C1683.03 277.337 1699.61 283.756 1718.26 287.036Z" fill="#BCE8BB"/>
<path d="M1722.75 276.895C1745.51 284.194 1730.77 250.695 1719.28 225.266C1707.78 199.836 1682.92 152 1644.74 152C1613.46 152 1554.19 264.243 1568.07 274.804C1579.18 283.252 1605.24 262.545 1622.59 249.247C1627.8 260.981 1635.66 280.551 1648.15 281.49C1660.64 282.428 1667.93 259.807 1677.76 249.247C1681.23 253.158 1702 270.241 1722.75 276.895Z" fill="#BCE8BB"/>
<rect x="417.616" y="330.395" width="63.9634" height="63.9634" rx="31.9817" fill="#BCE8BB"/>
<path d="M465.589 351.716C465.589 342.884 472.748 335.725 481.58 335.725V335.725V335.725C481.58 344.557 474.42 351.716 465.589 351.716V351.716V351.716Z" fill="#BCE8BB"/>
<path d="M440.499 346.043C432.299 345.27 426.278 337.995 427.051 329.795V329.795V329.795C435.251 330.569 441.272 337.843 440.499 346.043V346.043V346.043Z" fill="#BCE8BB"/>
<path d="M428.012 372.726C421.705 378.024 412.298 377.207 407 370.9V370.9V370.9C413.306 365.602 422.713 366.419 428.012 372.726V372.726V372.726Z" fill="#BCE8BB"/>
<path d="M487.336 377.819C481.029 383.117 471.622 382.3 466.324 375.994V375.994V375.994C472.63 370.696 482.037 371.513 487.336 377.819V377.819V377.819Z" fill="#BCE8BB"/>
<rect x="519.96" y="372.095" width="63.9634" height="63.9634" rx="31.9817" transform="rotate(119.838 519.96 372.095)" fill="#BCE8BB"/>
<path d="M477.596 403.1C485.257 407.494 487.905 417.267 483.511 424.927V424.927V424.927C475.85 420.533 473.202 410.761 477.596 403.1V403.1V403.1Z" fill="#BCE8BB"/>
<path d="M495.001 384.158C499.752 377.43 509.057 375.827 515.785 380.577V380.577V380.577C511.035 387.306 501.729 388.909 495.001 384.158V384.158V384.158Z" fill="#BCE8BB"/>
<path d="M478.068 360.051C476.61 351.944 481.999 344.191 490.106 342.733V342.733V342.733C491.564 350.839 486.175 358.592 478.068 360.051V360.051V360.051Z" fill="#BCE8BB"/>
<path d="M444.133 408.976C442.675 400.87 448.064 393.116 456.171 391.658V391.658V391.658C457.629 399.764 452.24 407.518 444.133 408.976V408.976V408.976Z" fill="#BCE8BB"/>
<rect x="548.436" y="357.45" width="63.9634" height="63.9634" rx="31.9817" transform="rotate(119.838 548.436 357.45)" fill="#BCE8BB"/>
<path d="M506.073 388.455C513.734 392.849 516.382 402.622 511.988 410.283V410.283V410.283C504.327 405.888 501.679 396.116 506.073 388.455V388.455V388.455Z" fill="#BCE8BB"/>
<path d="M523.477 369.514C528.228 362.785 537.534 361.182 544.262 365.933V365.933V365.933C539.511 372.661 530.206 374.264 523.477 369.514V369.514V369.514Z" fill="#BCE8BB"/>
<path d="M472.61 394.331C471.152 386.225 476.541 378.472 484.647 377.013V377.013V377.013C486.106 385.12 480.716 392.873 472.61 394.331V394.331V394.331Z" fill="#BCE8BB"/>
<path d="M502.932 314.526C517.273 322.751 522.231 341.046 514.005 355.387V355.387C505.779 369.729 487.484 374.686 473.143 366.46V366.46C458.802 358.234 453.844 339.94 462.07 325.598V325.598C470.296 311.257 488.59 306.3 502.932 314.526V314.526Z" fill="#BCE8BB"/>
<path d="M490.926 358.061C498.097 362.174 500.576 371.321 496.463 378.492V378.492V378.492C489.292 374.379 486.814 365.232 490.926 358.061V358.061V358.061Z" fill="#BCE8BB"/>
<path d="M507.217 340.331C511.664 334.033 520.374 332.533 526.672 336.979V336.979V336.979C522.226 343.277 513.515 344.778 507.217 340.331V340.331V340.331Z" fill="#BCE8BB"/>
<path d="M491.368 317.766C490.003 310.178 495.048 302.921 502.635 301.556V301.556V301.556C504 309.144 498.956 316.401 491.368 317.766V317.766V317.766Z" fill="#BCE8BB"/>
<path d="M459.604 363.561C458.239 355.974 463.284 348.716 470.872 347.351V347.351V347.351C472.237 354.939 467.192 362.197 459.604 363.561V363.561V363.561Z" fill="#BCE8BB"/>
<rect x="437.217" y="310.166" width="59.8713" height="59.8713" rx="29.9357" transform="rotate(8.46442 437.217 310.166)" fill="#BCE8BB"/>
<path d="M478.694 336.515C479.911 328.339 487.526 322.697 495.702 323.914V323.914V323.914C494.485 332.09 486.871 337.732 478.694 336.515V336.515V336.515Z" fill="#BCE8BB"/>
<path d="M456.247 327.806C448.761 325.96 444.189 318.396 446.035 310.911V310.911V310.911C453.52 312.757 458.092 320.321 456.247 327.806V327.806V327.806Z" fill="#BCE8BB"/>
<path d="M441.009 350.789C434.441 354.826 425.844 352.773 421.808 346.205V346.205V346.205C428.376 342.168 436.973 344.221 441.009 350.789V350.789V350.789Z" fill="#BCE8BB"/>
<path d="M495.231 363.679C488.663 367.715 480.066 365.662 476.03 359.094V359.094V359.094C482.598 355.058 491.195 357.11 495.231 363.679V363.679V363.679Z" fill="#BCE8BB"/>
<rect x="521.17" y="348.211" width="59.8713" height="59.8713" rx="29.9357" transform="rotate(119.838 521.17 348.211)" fill="#BCE8BB"/>
<path d="M481.517 377.232C488.687 381.345 491.166 390.492 487.053 397.663V397.663V397.663C479.883 393.55 477.404 384.403 481.517 377.232V377.232V377.232Z" fill="#BCE8BB"/>
<path d="M497.808 359.502C502.254 353.204 510.965 351.704 517.262 356.15V356.15V356.15C512.816 362.448 504.106 363.949 497.808 359.502V359.502V359.502Z" fill="#BCE8BB"/>
<path d="M481.958 336.937C480.593 329.349 485.638 322.092 493.226 320.727V320.727V320.727C494.591 328.314 489.546 335.572 481.958 336.937V336.937V336.937Z" fill="#BCE8BB"/>
<path d="M450.194 382.732C448.83 375.145 453.874 367.887 461.462 366.522V366.522V366.522C462.827 374.11 457.782 381.367 450.194 382.732V382.732V382.732Z" fill="#BCE8BB"/>
<path fill-rule="evenodd" clip-rule="evenodd" d="M524.217 359.055C523.673 363.633 521.845 368.111 518.678 371.92L517.55 373.277C509.961 382.404 497.188 384.679 487.084 379.379C486.652 380.01 486.187 380.625 485.689 381.225L484.56 382.582C475.833 393.078 460.251 394.512 449.755 385.786C442.912 380.097 439.921 371.493 441.086 363.285C437.022 365.968 432.153 367.529 426.92 367.529C423.78 367.529 420.772 366.967 417.99 365.939C418.047 366.448 418.116 366.954 418.196 367.456C414.351 367.086 410.366 368.202 407.176 370.882C410.647 375.014 415.883 376.79 420.854 376.033C425.493 385.825 434.959 392.886 446.18 394.14C446.511 395.122 446.89 396.088 447.315 397.034C444.74 400.275 443.518 404.565 444.309 408.958C447.44 408.395 450.166 406.892 452.249 404.793C454.55 407.463 457.336 409.795 460.568 411.649C465.571 414.519 471.025 415.887 476.407 415.894C477.578 419.571 480.075 422.838 483.687 424.909C485.558 421.647 486.152 418.003 485.626 414.553C492.726 412.436 499.105 407.863 503.377 401.212C503.88 401.236 504.382 401.249 504.884 401.249C506.055 404.927 508.552 408.193 512.163 410.265C514.034 407.003 514.629 403.358 514.103 399.908C521.687 397.646 528.451 392.582 532.699 385.175C535.186 380.84 536.545 376.167 536.868 371.496C539.824 370.537 542.507 368.649 544.438 365.915C541.973 364.175 539.163 363.287 536.358 363.191C535.782 360.219 534.788 357.334 533.4 354.631C530.7 356.668 527.59 358.191 524.217 359.055Z" fill="#BCE8BB"/>
<path d="M470.484 392.504H480.521L488.7 470.631H462.176L470.484 392.504Z" fill="#BCE8BB"/>
<path d="M470.412 392.504H480.592L484.902 434.554H466.077L470.412 392.504Z" fill="#BCE8BB"/>
<path fill-rule="evenodd" clip-rule="evenodd" d="M479.52 414.325C495.216 403.024 497.124 386.044 496.026 378.631L488.935 379.682C489.748 385.173 488.311 399.162 475.332 408.507L479.52 414.325Z" fill="#BCE8BB"/>
<rect x="438.797" y="365.978" width="55.5406" height="55.5406" rx="27.7703" transform="rotate(-37.5969 438.797 365.978)" fill="#BCE8BB"/>
<path d="M483.097 355.233C478.418 349.157 479.551 340.439 485.627 335.76V335.76V335.76C490.305 341.836 489.173 350.554 483.097 355.233V355.233V355.233Z" fill="#BCE8BB"/>
<path d="M462.829 364.622C456.778 368.434 448.783 366.619 444.97 360.568V360.568V360.568C451.022 356.755 459.017 358.571 462.829 364.622V364.622V364.622Z" fill="#BCE8BB"/>
<path d="M468.374 389.594C466.842 396.58 459.937 401.002 452.951 399.47V399.47V399.47C454.483 392.484 461.388 388.062 468.374 389.594V389.594V389.594Z" fill="#BCE8BB"/>
<path d="M511.887 361.671C510.355 368.657 503.45 373.078 496.464 371.546V371.546V371.546C497.996 364.561 504.901 360.139 511.887 361.671V361.671V361.671Z" fill="#BCE8BB"/>
<rect x="440.786" y="311.104" width="43.7126" height="43.7126" rx="21.8563" transform="rotate(8.46442 440.786 311.104)" fill="#BCE8BB"/>
<path d="M471.069 330.342C471.957 324.372 477.517 320.253 483.486 321.142V321.142V321.142C482.598 327.111 477.038 331.231 471.069 330.342V330.342V330.342Z" fill="#BCE8BB"/>
<path d="M454.679 323.984C449.214 322.636 445.876 317.113 447.224 311.648V311.648V311.648C452.689 312.996 456.027 318.518 454.679 323.984V323.984V323.984Z" fill="#BCE8BB"/>
<path d="M443.555 340.764C438.759 343.711 432.482 342.212 429.535 337.416V337.416V337.416C434.331 334.469 440.608 335.968 443.555 340.764V340.764V340.764Z" fill="#BCE8BB"/>
<path d="M483.143 350.174C478.347 353.121 472.07 351.623 469.123 346.827V346.827V346.827C473.919 343.88 480.196 345.379 483.143 350.174V350.174V350.174Z" fill="#BCE8BB"/>
<path d="M77.0819 378.539H95.6861L110.849 479.968H61.6804L77.0819 378.539Z" fill="#BCE8BB"/>
<path d="M76.9487 378.539H95.4313L103.467 433.132H68.9127L76.9487 378.539Z" fill="#BCE8BB"/>
<rect x="12.462" y="314.762" width="81.1078" height="81.1078" rx="40.5539" fill="#BCE8BB"/>
<path d="M73.2928 341.798C73.2928 330.599 82.3711 321.521 93.5698 321.521V321.521V321.521C93.5698 332.719 84.4915 341.798 73.2928 341.798V341.798V341.798Z" fill="#BCE8BB"/>
<path d="M41.4775 334.604C31.0795 333.624 23.4451 324.4 24.4256 314.002V314.002V314.002C34.8235 314.982 42.4579 324.206 41.4775 334.604V334.604V334.604Z" fill="#BCE8BB"/>
<path d="M25.6435 368.439C17.647 375.157 5.71832 374.121 -0.99994 366.124V366.124V366.124C6.99654 359.406 18.9252 360.442 25.6435 368.439V368.439V368.439Z" fill="#BCE8BB"/>
<path d="M100.868 374.897C92.8718 381.616 80.9432 380.58 74.2249 372.583V372.583V372.583C82.2214 365.865 94.1501 366.901 100.868 374.897V374.897V374.897Z" fill="#BCE8BB"/>
<rect x="142.236" y="367.638" width="81.1078" height="81.1078" rx="40.5539" transform="rotate(119.838 142.236 367.638)" fill="#BCE8BB"/>
<path d="M88.5183 406.954C98.2324 412.526 101.59 424.917 96.0186 434.631V434.631V434.631C86.3045 429.06 82.9465 416.668 88.5183 406.954V406.954V406.954Z" fill="#BCE8BB"/>
<path d="M110.588 382.935C116.612 374.403 128.412 372.37 136.943 378.394V378.394V378.394C130.919 386.926 119.12 388.959 110.588 382.935V382.935V382.935Z" fill="#BCE8BB"/>
<path d="M89.1168 352.366C87.2677 342.087 94.1016 332.255 104.381 330.406V330.406V330.406C106.23 340.685 99.3958 350.517 89.1168 352.366V352.366V352.366Z" fill="#BCE8BB"/>
<path d="M46.0861 414.405C44.2371 404.126 51.071 394.294 61.35 392.445V392.445V392.445C63.1991 402.724 56.3652 412.556 46.0861 414.405V414.405V414.405Z" fill="#BCE8BB"/>
<rect x="178.346" y="349.069" width="81.1078" height="81.1078" rx="40.5539" transform="rotate(119.838 178.346 349.069)" fill="#BCE8BB"/>
<path d="M124.628 388.384C134.342 393.956 137.7 406.348 132.128 416.062V416.062V416.062C122.414 410.49 119.056 398.099 124.628 388.384V388.384V388.384Z" fill="#BCE8BB"/>
<path d="M146.697 364.366C152.721 355.834 164.521 353.801 173.053 359.825V359.825V359.825C167.029 368.357 155.229 370.39 146.697 364.366V364.366V364.366Z" fill="#BCE8BB"/>
<path d="M82.1955 395.836C80.3464 385.557 87.1803 375.725 97.4594 373.876V373.876V373.876C99.3085 384.155 92.4746 393.987 82.1955 395.836V395.836V395.836Z" fill="#BCE8BB"/>
<path d="M109.137 289.099C127.322 299.53 133.609 322.728 123.178 340.913V340.913C112.747 359.098 89.5492 365.385 71.3639 354.954V354.954C53.1786 344.523 46.8922 321.325 57.323 303.14V303.14C67.7538 284.955 90.9517 278.668 109.137 289.099V289.099Z" fill="#BCE8BB"/>
<path d="M93.914 344.304C103.007 349.519 106.15 361.118 100.934 370.211V370.211V370.211C91.8417 364.996 88.6986 353.397 93.914 344.304V344.304V344.304Z" fill="#BCE8BB"/>
<path d="M114.572 321.822C120.21 313.836 131.255 311.933 139.241 317.572V317.572V317.572C133.602 325.557 122.558 327.46 114.572 321.822V321.822V321.822Z" fill="#BCE8BB"/>
<path d="M94.474 293.208C92.7432 283.587 99.1399 274.384 108.761 272.653V272.653V272.653C110.492 282.275 104.095 291.477 94.474 293.208V293.208V293.208Z" fill="#BCE8BB"/>
<path d="M54.1963 351.278C52.4655 341.657 58.8622 332.454 68.4837 330.723V330.723V330.723C70.2144 340.345 63.8177 349.548 54.1963 351.278V351.278V351.278Z" fill="#BCE8BB"/>
<rect x="143.771" y="337.353" width="75.9189" height="75.9189" rx="37.9594" transform="rotate(119.838 143.771 337.353)" fill="#BCE8BB"/>
<path d="M93.4898 374.153C102.582 379.368 105.726 390.967 100.51 400.06V400.06V400.06C91.4175 394.844 88.2744 383.246 93.4898 374.153V374.153V374.153Z" fill="#BCE8BB"/>
<path d="M114.147 351.671C119.786 343.685 130.831 341.782 138.817 347.42V347.42V347.42C133.178 355.406 122.133 357.309 114.147 351.671V351.671V351.671Z" fill="#BCE8BB"/>
<path d="M94.0496 323.057C92.3188 313.436 98.7155 304.233 108.337 302.502V302.502V302.502C110.068 312.124 103.671 321.326 94.0496 323.057V323.057V323.057Z" fill="#BCE8BB"/>
<path d="M53.772 381.127C52.0412 371.506 58.4379 362.303 68.0594 360.572V360.572V360.572C69.7902 370.194 63.3935 379.397 53.772 381.127V381.127V381.127Z" fill="#BCE8BB"/>
<path fill-rule="evenodd" clip-rule="evenodd" d="M147.634 351.104C146.945 356.908 144.627 362.587 140.611 367.417L139.18 369.138C129.558 380.711 113.361 383.596 100.549 376.875C100.001 377.674 99.4112 378.455 98.7795 379.215L97.3483 380.936C86.2829 394.246 66.5235 396.064 53.2143 384.999C44.5375 377.785 40.7444 366.876 42.2213 356.468C37.0687 359.869 30.895 361.85 24.2588 361.85C20.2778 361.85 16.4632 361.137 12.9357 359.832C13.0077 360.478 13.0948 361.12 13.1968 361.756C8.32156 361.288 3.26868 362.702 -0.777463 366.101C3.62456 371.341 10.2636 373.592 16.5676 372.632C22.4495 385.05 34.453 394.002 48.6813 395.593C49.101 396.838 49.5811 398.063 50.1203 399.263C46.855 403.372 45.3065 408.812 46.3086 414.383C50.2795 413.669 53.7362 411.763 56.3768 409.101C59.2954 412.487 62.8279 415.444 66.9261 417.795C73.2702 421.434 80.1854 423.168 87.0102 423.178C88.4949 427.841 91.6618 431.983 96.2411 434.609C98.6136 430.473 99.3671 425.851 98.7002 421.477C107.703 418.793 115.793 412.994 121.209 404.56C121.847 404.591 122.484 404.607 123.12 404.608C124.605 409.271 127.771 413.413 132.351 416.039C134.723 411.903 135.477 407.281 134.81 402.908C144.427 400.039 153.003 393.618 158.391 384.224C161.544 378.728 163.267 372.803 163.677 366.879C167.426 365.663 170.828 363.269 173.276 359.802C170.151 357.596 166.588 356.47 163.03 356.349C162.3 352.58 161.039 348.922 159.28 345.494C155.856 348.077 151.912 350.009 147.634 351.104Z" fill="#BCE8BB"/>
<rect x="32.9796" y="349.738" width="70.4273" height="70.4273" rx="35.2137" transform="rotate(-37.5969 32.9796 349.738)" fill="#BCE8BB"/>
<path d="M89.1531 336.113C83.2205 328.408 84.6569 317.353 92.3614 311.421V311.421V311.421C98.294 319.125 96.8576 330.18 89.1531 336.113V336.113V336.113Z" fill="#BCE8BB"/>
<path d="M63.4536 348.018C55.7806 352.852 45.6416 350.551 40.8077 342.878V342.878V342.878C48.4808 338.044 58.6197 340.345 63.4536 348.018V348.018V348.018Z" fill="#BCE8BB"/>
<path d="M70.4843 379.684C68.5419 388.543 59.7862 394.149 50.9279 392.207V392.207V392.207C52.8703 383.348 61.626 377.742 70.4843 379.684V379.684V379.684Z" fill="#BCE8BB"/>
<path d="M125.66 344.277C123.717 353.135 114.962 358.742 106.103 356.799V356.799V356.799C108.046 347.941 116.801 342.334 125.66 344.277V344.277V344.277Z" fill="#BCE8BB"/>
<rect x="45.703" y="307.401" width="46.5029" height="46.5029" rx="23.2515" transform="rotate(-28.4045 45.703 307.401)" fill="#BCE8BB"/>
<path d="M81.3383 301.403C80.1189 294.71 84.5557 288.296 91.2481 287.077V287.077V287.077C92.4675 293.769 88.0307 300.183 81.3383 301.403V301.403V301.403Z" fill="#BCE8BB"/>
<path d="M66.9903 330.877C64.7898 336.446 58.4913 339.177 52.9222 336.976V336.976V336.976C55.1227 331.407 61.4212 328.676 66.9903 330.877V330.877V330.877Z" fill="#BCE8BB"/>
</svg>
