<svg width="1600" height="486" viewBox="0 0 1600 486" fill="none" xmlns="http://www.w3.org/2000/svg">
<path d="M914 368.5C584 397.3 164.833 342.833 -3.5 312V487H1604V225C1511.5 260.833 1244 339.7 914 368.5Z" fill="#E0FFDF"/>
<path d="M1193.03 364.487H1207.03L1218.44 473.464H1181.44L1193.03 364.487Z" fill="#E0FFDF"/>
<path d="M1192.93 364.487H1206.84L1212.89 423.142H1186.89L1192.93 364.487Z" fill="#E0FFDF"/>
<path d="M1241.99 413.187C1255.95 414.593 1246.7 397.81 1239.96 382.886C1233.21 367.962 1218.62 339.887 1196.21 339.887C1177.86 339.887 1143.07 405.762 1151.22 411.96C1157.73 416.918 1173.03 413.027 1183.21 405.222C1186.27 412.109 1190.88 415.332 1198.21 415.883C1205.54 416.434 1209.82 411.42 1215.59 405.222C1217.63 407.518 1229.82 411.96 1241.99 413.187Z" fill="#E0FFDF"/>
<path fill-rule="evenodd" clip-rule="evenodd" d="M1239.36 381.217C1230.95 364.66 1216.41 342.719 1195.76 342.719C1185.15 342.719 1169.47 363.002 1158.47 382.988C1165.96 382.231 1174.85 378.627 1181.64 373.419C1184.96 380.901 1190.41 388.681 1198.37 389.279C1206.34 389.878 1212.28 382.072 1216.82 373.419C1218.69 375.524 1228.42 379.292 1239.36 381.217Z" fill="#E0FFDF"/>
<path d="M1241.99 375.265C1255.35 379.549 1246.7 359.888 1239.96 344.964C1233.21 330.04 1218.62 301.966 1196.21 301.966C1177.86 301.966 1143.07 367.84 1151.22 374.038C1157.73 378.996 1173.03 366.843 1183.21 359.039C1186.27 365.925 1190.88 377.41 1198.21 377.961C1205.54 378.512 1209.82 365.236 1215.59 359.039C1217.63 361.334 1229.82 371.36 1241.99 375.265Z" fill="#E0FFDF"/>
<path fill-rule="evenodd" clip-rule="evenodd" d="M1233.07 329.626C1236.3 336.509 1238.66 341.547 1238.28 341.509C1227.94 340.47 1215.94 335.902 1214.21 333.958C1210.66 340.703 1205.21 344.999 1198.98 344.533C1192.75 344.066 1187.06 338.876 1184.47 333.044C1175.81 339.654 1159.76 342.114 1160.88 340.3C1162.81 337.197 1164.62 333.769 1166.33 330.166C1176.65 313.637 1189.22 299.181 1198.18 299.181C1209.01 299.181 1218.16 305.22 1225.63 313.352C1226.02 314.322 1226.4 315.246 1226.8 316.112C1228.93 320.817 1231.15 325.545 1233.07 329.626Z" fill="#E0FFDF"/>
<path d="M1237.68 330.625C1247.35 333.95 1240.13 316.796 1234.66 304.623C1229.18 292.451 1218.34 269.632 1200.19 268.342C1183.22 267.136 1152.45 323.756 1159.07 328.811C1164.36 332.855 1178.38 324.882 1186.65 318.517C1189.13 324.133 1192.87 333.501 1198.83 333.95C1204.78 334.4 1208.26 323.572 1212.94 318.517C1214.6 320.389 1229.05 327.66 1237.68 330.625Z" fill="#E0FFDF"/>
<path d="M1041.03 364.487H1055.03L1066.44 473.464H1029.44L1041.03 364.487Z" fill="#E0FFDF"/>
<path d="M1040.93 364.487H1054.84L1060.89 423.142H1034.89L1040.93 364.487Z" fill="#E0FFDF"/>
<path d="M1089.99 413.187C1103.95 414.593 1094.7 397.81 1087.96 382.886C1081.21 367.962 1066.62 339.887 1044.21 339.887C1025.86 339.887 991.069 405.762 999.216 411.96C1005.73 416.918 1021.03 413.027 1031.21 405.222C1034.27 412.109 1038.88 415.332 1046.21 415.883C1053.54 416.434 1057.82 411.42 1063.59 405.222C1065.63 407.518 1077.82 411.96 1089.99 413.187Z" fill="#E0FFDF"/>
<path fill-rule="evenodd" clip-rule="evenodd" d="M1087.36 381.217C1078.95 364.66 1064.41 342.719 1043.76 342.719C1033.15 342.719 1017.47 363.002 1006.47 382.988C1013.96 382.231 1022.85 378.627 1029.64 373.419C1032.96 380.901 1038.41 388.681 1046.37 389.279C1054.34 389.878 1060.28 382.072 1064.82 373.419C1066.69 375.524 1076.42 379.292 1087.36 381.217Z" fill="#E0FFDF"/>
<path d="M1089.99 375.265C1103.35 379.549 1094.7 359.888 1087.96 344.964C1081.21 330.04 1066.62 301.966 1044.21 301.966C1025.86 301.966 991.069 367.84 999.216 374.038C1005.73 378.996 1021.03 366.843 1031.21 359.039C1034.27 365.925 1038.88 377.41 1046.21 377.961C1053.54 378.512 1057.82 365.236 1063.59 359.039C1065.63 361.334 1077.82 371.36 1089.99 375.265Z" fill="#E0FFDF"/>
<path fill-rule="evenodd" clip-rule="evenodd" d="M1081.07 329.626C1084.3 336.509 1086.66 341.547 1086.28 341.509C1075.94 340.47 1063.94 335.902 1062.21 333.958C1058.66 340.703 1053.21 344.999 1046.98 344.533C1040.75 344.066 1035.06 338.876 1032.47 333.044C1023.81 339.654 1007.76 342.114 1008.88 340.3C1010.81 337.197 1012.62 333.769 1014.33 330.166C1024.65 313.637 1037.22 299.181 1046.18 299.181C1057.01 299.181 1066.16 305.22 1073.63 313.352C1074.02 314.322 1074.4 315.246 1074.8 316.112C1076.93 320.817 1079.15 325.545 1081.07 329.626Z" fill="#E0FFDF"/>
<path d="M1085.68 330.625C1095.35 333.95 1088.13 316.796 1082.66 304.623C1077.18 292.451 1066.34 269.632 1048.19 268.342C1031.22 267.136 1000.45 323.756 1007.07 328.811C1012.36 332.855 1026.38 324.882 1034.65 318.517C1037.13 324.133 1040.87 333.501 1046.83 333.95C1052.78 334.4 1056.26 323.572 1060.94 318.517C1062.6 320.389 1077.05 327.66 1085.68 330.625Z" fill="#E0FFDF"/>
<path d="M1444.03 364.487H1458.03L1469.44 473.464H1432.44L1444.03 364.487Z" fill="#E0FFDF"/>
<path d="M1443.93 364.487H1457.84L1463.89 423.142H1437.89L1443.93 364.487Z" fill="#E0FFDF"/>
<path d="M1492.99 413.187C1506.95 414.593 1497.7 397.81 1490.96 382.886C1484.21 367.962 1469.62 339.887 1447.21 339.887C1428.86 339.887 1394.07 405.762 1402.22 411.96C1408.73 416.918 1424.03 413.027 1434.21 405.222C1437.27 412.109 1441.88 415.332 1449.21 415.883C1456.55 416.434 1460.82 411.42 1466.59 405.222C1468.63 407.518 1480.82 411.96 1492.99 413.187Z" fill="#E0FFDF"/>
<path fill-rule="evenodd" clip-rule="evenodd" d="M1490.36 381.217C1481.95 364.66 1467.41 342.719 1446.76 342.719C1436.15 342.719 1420.47 363.002 1409.47 382.988C1416.96 382.231 1425.85 378.627 1432.64 373.419C1435.96 380.901 1441.41 388.681 1449.37 389.279C1457.34 389.878 1463.28 382.072 1467.82 373.419C1469.69 375.524 1479.42 379.292 1490.36 381.217Z" fill="#E0FFDF"/>
<path d="M1492.99 375.265C1506.35 379.549 1497.7 359.888 1490.96 344.964C1484.21 330.04 1469.62 301.966 1447.21 301.966C1428.86 301.966 1394.07 367.84 1402.22 374.038C1408.73 378.996 1424.03 366.843 1434.21 359.039C1437.27 365.925 1441.88 377.41 1449.21 377.961C1456.55 378.512 1460.82 365.236 1466.59 359.039C1468.63 361.334 1480.82 371.36 1492.99 375.265Z" fill="#E0FFDF"/>
<path fill-rule="evenodd" clip-rule="evenodd" d="M1484.07 329.626C1487.3 336.509 1489.66 341.547 1489.28 341.509C1478.94 340.47 1466.94 335.902 1465.21 333.958C1461.66 340.703 1456.21 344.999 1449.98 344.533C1443.75 344.066 1438.06 338.876 1435.47 333.044C1426.81 339.654 1410.76 342.114 1411.88 340.3C1413.81 337.197 1415.62 333.769 1417.33 330.166C1427.65 313.637 1440.22 299.181 1449.18 299.181C1460.01 299.181 1469.16 305.22 1476.63 313.352C1477.02 314.322 1477.4 315.246 1477.8 316.112C1479.93 320.817 1482.15 325.545 1484.07 329.626Z" fill="#E0FFDF"/>
<path d="M1488.68 330.625C1498.35 333.95 1491.13 316.796 1485.66 304.623C1480.18 292.451 1469.34 269.632 1451.19 268.342C1434.22 267.136 1403.45 323.756 1410.07 328.811C1415.36 332.855 1429.38 324.882 1437.65 318.517C1440.13 324.133 1443.87 333.501 1449.83 333.95C1455.78 334.4 1459.26 323.572 1463.94 318.517C1465.6 320.389 1480.05 327.66 1488.68 330.625Z" fill="#E0FFDF"/>
<path d="M689.694 318.598H709.438L725.53 472.298H673.348L689.694 318.598Z" fill="#E0FFDF"/>
<path d="M689.552 318.598H709.168L717.696 401.325H681.024L689.552 318.598Z" fill="#E0FFDF"/>
<path d="M758.748 387.284C778.431 389.268 765.39 365.597 755.876 344.548C746.361 323.499 725.776 283.903 694.179 283.903C668.287 283.903 619.225 376.812 630.715 385.553C639.906 392.546 661.483 387.059 675.845 376.051C680.154 385.764 686.659 390.31 697 391.087C707.341 391.864 713.372 384.793 721.51 376.051C724.383 379.289 741.576 385.553 758.748 387.284Z" fill="#E0FFDF"/>
<path fill-rule="evenodd" clip-rule="evenodd" d="M755.036 342.193C743.171 318.842 722.662 287.896 693.546 287.896C678.571 287.896 656.461 316.503 640.94 344.692C651.503 343.623 664.043 338.541 673.627 331.196C678.308 341.748 685.993 352.721 697.228 353.565C708.463 354.409 716.843 343.4 723.241 331.196C725.875 334.165 739.599 339.478 755.036 342.193Z" fill="#E0FFDF"/>
<path d="M758.748 333.799C777.586 339.841 765.39 312.112 755.876 291.063C746.361 270.014 725.776 230.418 694.179 230.418C668.287 230.418 619.225 323.327 630.715 332.068C639.906 339.061 661.483 321.921 675.845 310.914C680.154 320.626 686.659 336.825 697 337.602C707.341 338.379 713.372 319.655 721.51 310.914C724.383 314.151 741.576 328.292 758.748 333.799Z" fill="#E0FFDF"/>
<path fill-rule="evenodd" clip-rule="evenodd" d="M746.155 269.429C750.714 279.138 754.051 286.244 753.516 286.19C738.922 284.724 722.001 278.281 719.56 275.539C714.556 285.053 706.869 291.113 698.081 290.454C689.293 289.796 681.274 282.477 677.612 274.25C665.407 283.573 642.761 287.043 644.351 284.485C647.072 280.109 649.614 275.274 652.034 270.191C666.588 246.879 684.315 226.491 696.958 226.491C712.232 226.491 725.138 235.008 735.67 246.477C736.213 247.845 736.757 249.148 737.312 250.371C740.321 257.005 743.453 263.674 746.155 269.429Z" fill="#E0FFDF"/>
<path d="M752.663 270.839C766.308 275.529 756.125 251.334 748.399 234.166C740.672 216.999 721.173 189.928 695.578 188.108C671.642 186.407 632.462 261.151 641.793 268.28C649.257 273.984 669.025 262.74 680.689 253.762C684.188 261.683 689.471 274.895 697.868 275.529C706.266 276.163 711.164 260.891 717.773 253.762C720.106 256.402 740.495 266.657 752.663 270.839Z" fill="#E0FFDF"/>
<path fill-rule="evenodd" clip-rule="evenodd" d="M741.655 221.234C744.432 226.133 746.133 229.133 745.84 229.049C745.207 228.868 744.426 228.65 743.533 228.401C736.007 226.297 720.486 221.96 717.696 218.815C715.992 220.953 714.452 222.94 713.042 224.759C706.799 232.815 703.108 237.578 698.933 237.578C693.692 237.578 690.576 233.074 686.611 227.343C684.753 224.657 682.708 221.702 680.171 218.815C664.567 230.775 653.733 229.902 653.733 229.902C653.733 229.902 659.496 208.55 669.59 189.239C678.782 178.839 687.881 171.908 695.252 171.908C704.315 171.908 712.544 174.907 719.938 179.741C720.043 179.971 720.149 180.203 720.255 180.437C727.048 195.466 736.331 211.841 741.655 221.234Z" fill="#E0FFDF"/>
<path d="M739.809 217.042C751.356 223.686 744.259 202.207 737.885 187.808C731.51 173.409 717.718 146.323 696.549 146.323C679.202 146.323 646.331 209.878 654.029 215.858C660.187 220.642 674.643 208.917 684.265 201.387C687.152 208.031 691.511 219.112 698.439 219.644C705.367 220.175 709.408 207.367 714.86 201.387C716.785 203.602 730.572 211.727 739.809 217.042Z" fill="#E0FFDF"/>
<path d="M181.694 243.275H201.438L217.53 396.975H165.348L181.694 243.275Z" fill="#E0FFDF"/>
<path d="M181.552 243.275H201.168L209.696 326.002H173.024L181.552 243.275Z" fill="#E0FFDF"/>
<path d="M250.748 311.961C270.431 313.945 257.39 290.274 247.876 269.225C238.361 248.176 217.776 208.58 186.179 208.58C160.287 208.58 111.225 301.489 122.715 310.23C131.906 317.223 153.483 311.736 167.845 300.728C172.154 310.441 178.659 314.987 189 315.764C199.341 316.541 205.372 309.47 213.51 300.728C216.383 303.966 233.576 310.23 250.748 311.961Z" fill="#E0FFDF"/>
<path fill-rule="evenodd" clip-rule="evenodd" d="M247.036 266.87C235.171 243.519 214.662 212.573 185.546 212.573C170.571 212.573 148.461 241.18 132.94 269.369C143.503 268.3 156.043 263.218 165.627 255.873C170.308 266.425 177.993 277.398 189.228 278.242C200.463 279.086 208.843 268.077 215.241 255.873C217.875 258.842 231.599 264.155 247.036 266.87Z" fill="#E0FFDF"/>
<path d="M250.748 258.476C269.586 264.518 257.39 236.789 247.876 215.74C238.361 194.691 217.776 155.095 186.179 155.095C160.287 155.095 111.225 248.004 122.715 256.745C131.906 263.738 153.483 246.598 167.845 235.591C172.154 245.303 178.659 261.502 189 262.279C199.341 263.056 205.372 244.332 213.51 235.591C216.383 238.828 233.576 252.969 250.748 258.476Z" fill="#E0FFDF"/>
<path fill-rule="evenodd" clip-rule="evenodd" d="M238.155 194.106C242.714 203.815 246.051 210.921 245.516 210.867C230.922 209.401 214.001 202.958 211.56 200.216C206.556 209.73 198.869 215.789 190.081 215.131C181.293 214.473 173.274 207.153 169.612 198.927C157.407 208.25 134.761 211.72 136.351 209.161C139.072 204.786 141.614 199.951 144.034 194.868C158.588 171.555 176.315 151.168 188.958 151.168C204.232 151.168 217.138 159.685 227.67 171.154C228.213 172.522 228.757 173.825 229.312 175.048C232.321 181.682 235.453 188.351 238.155 194.106Z" fill="#E0FFDF"/>
<path d="M244.663 195.516C258.308 200.206 248.125 176.011 240.399 158.843C232.672 141.676 213.173 114.605 187.578 112.785C163.642 111.084 124.462 185.828 133.793 192.957C141.257 198.661 161.025 187.416 172.689 178.438C176.188 186.36 181.471 199.572 189.868 200.206C198.266 200.84 203.164 185.568 209.773 178.438C212.106 181.079 232.495 191.334 244.663 195.516Z" fill="#E0FFDF"/>
<path fill-rule="evenodd" clip-rule="evenodd" d="M233.655 145.91C236.432 150.81 238.133 153.81 237.84 153.726C237.207 153.545 236.426 153.327 235.533 153.078C228.007 150.974 212.486 146.636 209.696 143.492C207.991 145.63 206.452 147.617 205.042 149.436C198.799 157.492 195.108 162.255 190.933 162.255C185.692 162.255 182.576 157.751 178.611 152.02C176.753 149.334 174.708 146.379 172.171 143.492C156.567 155.452 145.733 154.579 145.733 154.579C145.733 154.579 151.496 133.227 161.59 113.916C170.782 103.516 179.881 96.5854 187.252 96.5854C196.315 96.5854 204.544 99.5838 211.938 104.418C212.043 104.648 212.149 104.88 212.255 105.114C219.048 120.143 228.331 136.518 233.655 145.91Z" fill="#E0FFDF"/>
<path d="M231.809 141.719C243.356 148.363 236.259 126.884 229.885 112.485C223.51 98.0862 209.718 71 188.549 71C171.202 71 138.331 134.555 146.029 140.535C152.187 145.319 166.643 133.594 176.265 126.064C179.152 132.708 183.511 143.789 190.439 144.321C197.367 144.852 201.408 132.044 206.86 126.064C208.785 128.279 222.572 136.404 231.809 141.719Z" fill="#E0FFDF"/>
<rect x="1087.64" y="438.979" width="87.0435" height="410.348" fill="#E0FFDF"/>
<path d="M1130 366.87L1377.68 795.87H882.317L1130 366.87Z" fill="#E0FFDF"/>
<path d="M1130.23 205.218L1340.22 568.935H920.238L1130.23 205.218Z" fill="#E0FFDF"/>
<path d="M1210.95 343.731H1049.56L1025.74 383.417H1234.76L1210.95 343.731Z" fill="#E0FFDF"/>
<path d="M1132.99 56L1299.91 345.109H966.076L1132.99 56Z" fill="#E0FFDF"/>
<rect x="958.993" y="409.781" width="61.0885" height="287.989" fill="#E0FFDF"/>
<path d="M988.719 359.174L1162.55 660.253H814.891L988.719 359.174Z" fill="#E0FFDF"/>
<path d="M988.881 245.723L1136.26 500.986H841.505L988.881 245.723Z" fill="#E0FFDF"/>
<path d="M1045.53 342.934H932.263L915.551 370.787H1062.24L1045.53 342.934Z" fill="#E0FFDF"/>
<path d="M990.82 141L1107.97 343.901H873.675L990.82 141Z" fill="#E0FFDF"/>
<rect x="323.024" y="364.619" width="24.3018" height="114.566" fill="#E0FFDF"/>
<rect x="323.09" y="322.261" width="24.3018" height="114.566" fill="#E0FFDF"/>
<rect x="292.05" y="319.803" width="87.9496" height="87.9496" rx="43.9748" fill="#E0FFDF"/>
<rect x="296.478" y="263.797" width="80.4856" height="80.4856" rx="40.2428" fill="#E0FFDF"/>
<rect x="302.381" y="220.323" width="68.067" height="68.067" rx="34.0335" fill="#E0FFDF"/>
<path fill-rule="evenodd" clip-rule="evenodd" d="M292.321 359.022C292.109 360.773 292 362.557 292 364.365C292 388.652 311.688 408.34 335.975 408.34C360.261 408.34 379.95 388.652 379.95 364.365C379.95 362.557 379.84 360.773 379.628 359.022C376.991 380.788 358.453 397.653 335.975 397.653C313.497 397.653 294.958 380.788 292.321 359.022Z" fill="#E0FFDF"/>
<rect x="8.02448" y="364.619" width="24.3018" height="114.566" fill="#E0FFDF"/>
<rect x="8.0896" y="322.261" width="24.3018" height="114.566" fill="#E0FFDF"/>
<rect x="-22.9496" y="319.803" width="87.9496" height="87.9496" rx="43.9748" fill="#E0FFDF"/>
<rect x="-18.5218" y="263.797" width="80.4856" height="80.4856" rx="40.2428" fill="#E0FFDF"/>
<rect x="-12.6194" y="220.323" width="68.067" height="68.067" rx="34.0335" fill="#E0FFDF"/>
<path fill-rule="evenodd" clip-rule="evenodd" d="M-22.6786 359.022C-22.8908 360.773 -23 362.557 -23 364.365C-23 388.652 -3.31182 408.34 20.9748 408.34C45.2614 408.34 64.9496 388.652 64.9496 364.365C64.9496 362.557 64.8403 360.773 64.6282 359.022C61.9914 380.788 43.4525 397.653 20.9748 397.653C-1.503 397.653 -20.0418 380.788 -22.6786 359.022Z" fill="#E0FFDF"/>
<path d="M535.105 354.774H549.104L560.513 463.75H523.516L535.105 354.774Z" fill="#E0FFDF"/>
<path d="M535.005 354.774H548.912L554.959 413.429H528.958L535.005 354.774Z" fill="#E0FFDF"/>
<path fill-rule="evenodd" clip-rule="evenodd" d="M480.112 303.344C480.112 287.099 493.281 273.929 509.526 273.929C525.771 273.929 538.941 287.099 538.941 303.344V305.445C538.941 306.549 538.88 307.639 538.761 308.711C551.004 312.27 559.951 323.57 559.951 336.961V339.062C559.951 355.307 546.782 368.476 530.537 368.476C521.751 368.476 513.865 364.625 508.476 358.518C503.086 364.625 495.2 368.476 486.415 368.476C470.169 368.476 457 355.307 457 339.062V336.961C457 322.834 466.959 311.033 480.238 308.195C480.154 307.29 480.112 306.372 480.112 305.445V303.344Z" fill="#E0FFDF"/>
<path fill-rule="evenodd" clip-rule="evenodd" d="M546.247 393.073C536.277 405.065 518.472 406.704 506.48 396.734C494.488 386.763 492.849 368.959 502.819 356.966L504.109 355.415C504.787 354.6 505.5 353.833 506.246 353.114C499.393 342.974 499.723 329.14 507.942 319.255L509.231 317.704C519.202 305.712 537.006 304.073 548.999 314.044C555.484 319.436 558.942 327.119 559.172 334.935C566.899 333.735 575.084 335.732 581.57 341.124C593.562 351.094 595.201 368.899 585.23 380.891L583.941 382.442C575.27 392.87 560.676 395.47 549.131 389.414C548.638 390.134 548.106 390.837 547.537 391.522L546.247 393.073Z" fill="#E0FFDF"/>
<path fill-rule="evenodd" clip-rule="evenodd" d="M539.198 293.866C539.198 277.44 552.513 264.124 568.939 264.124C585.365 264.124 598.68 277.44 598.68 293.866V295.99C598.68 297.107 598.619 298.209 598.499 299.293C610.878 302.891 619.924 314.317 619.924 327.856V329.98C619.924 346.406 606.609 359.722 590.183 359.722C581.3 359.722 573.327 355.828 567.877 349.653C562.427 355.828 554.454 359.722 545.571 359.722C529.145 359.722 515.829 346.406 515.829 329.98V327.856C515.829 313.572 525.899 301.641 539.326 298.771C539.241 297.856 539.198 296.928 539.198 295.99V293.866Z" fill="#E0FFDF"/>
<path fill-rule="evenodd" clip-rule="evenodd" d="M528.366 252.063C528.366 235.637 541.681 222.321 558.107 222.321C574.533 222.321 587.849 235.637 587.849 252.063V254.187C587.849 255.303 587.787 256.405 587.667 257.49C600.046 261.088 609.092 272.514 609.092 286.053V288.177C609.092 304.603 595.777 317.919 579.351 317.919C570.468 317.919 562.495 314.024 557.045 307.85C551.595 314.024 543.622 317.919 534.739 317.919C518.313 317.919 504.997 304.603 504.997 288.177V286.053C504.997 271.769 515.067 259.837 528.494 256.968C528.409 256.053 528.366 255.125 528.366 254.187V252.063Z" fill="#E0FFDF"/>
<path fill-rule="evenodd" clip-rule="evenodd" d="M485.849 264.287C485.849 250.809 496.775 239.884 510.252 239.884C523.73 239.884 534.656 250.809 534.656 264.287V266.03C534.656 266.946 534.605 267.85 534.507 268.74C544.663 271.692 552.086 281.067 552.086 292.176V293.919C552.086 307.397 541.161 318.323 527.683 318.323C520.395 318.323 513.852 315.127 509.381 310.061C504.909 315.127 498.367 318.323 491.078 318.323C477.601 318.323 466.675 307.397 466.675 293.919V292.176C466.675 280.456 474.937 270.666 485.954 268.312C485.885 267.561 485.849 266.799 485.849 266.03V264.287Z" fill="#E0FFDF"/>
<path fill-rule="evenodd" clip-rule="evenodd" d="M564.255 240.767C573.511 250.563 573.074 266.008 563.278 275.265C553.482 284.521 538.037 284.084 528.78 274.288L527.583 273.021C526.954 272.355 526.37 271.663 525.83 270.949C516.421 275.779 504.586 274.063 496.956 265.989L495.759 264.722C486.503 254.926 486.94 239.481 496.736 230.224C502.034 225.218 508.983 223.047 515.713 223.659C515.484 216.905 518.044 210.089 523.342 205.083C533.138 195.827 548.583 196.264 557.839 206.06L559.037 207.327C567.086 215.846 567.805 228.636 561.414 237.914C561.981 238.412 562.529 238.941 563.058 239.5L564.255 240.767Z" fill="#E0FFDF"/>
<path fill-rule="evenodd" clip-rule="evenodd" d="M617.256 316.074C612.923 322.481 606.159 327.108 598.288 328.632C597.391 333.061 595.416 337.337 592.324 341.055L591.035 342.606C582.364 353.035 567.77 355.634 556.225 349.578C555.732 350.298 555.2 351.002 554.631 351.687L553.341 353.238C543.371 365.23 525.566 366.869 513.574 356.898C506.553 351.061 503.081 342.539 503.409 334.07C499.113 336.526 494.137 337.929 488.833 337.929C477.009 337.929 466.814 330.952 462.141 320.891C458.898 325.619 457 331.343 457 337.51V339.611C457 355.856 470.169 369.025 486.415 369.025C490.408 369.025 494.215 368.23 497.687 366.788C494.197 377.468 497.315 389.663 506.48 397.283C518.472 407.253 536.277 405.615 546.247 393.622L547.537 392.071C548.106 391.387 548.638 390.683 549.131 389.963C560.676 396.019 575.271 393.419 583.941 382.991L585.23 381.44C590.345 375.288 592.405 367.607 591.579 360.239C607.357 359.51 619.924 346.487 619.924 330.53V328.405C619.924 324.006 618.97 319.831 617.256 316.074Z" fill="#E0FFDF"/>
<path d="M403.105 354.774H417.104L428.513 463.75H391.516L403.105 354.774Z" fill="#E0FFDF"/>
<path d="M403.005 354.774H416.912L422.959 413.429H396.958L403.005 354.774Z" fill="#E0FFDF"/>
<path fill-rule="evenodd" clip-rule="evenodd" d="M348.112 303.344C348.112 287.099 361.281 273.929 377.526 273.929C393.771 273.929 406.941 287.099 406.941 303.344V305.445C406.941 306.549 406.88 307.639 406.761 308.711C419.004 312.27 427.951 323.57 427.951 336.961V339.062C427.951 355.307 414.782 368.476 398.537 368.476C389.751 368.476 381.865 364.625 376.476 358.518C371.086 364.625 363.2 368.476 354.415 368.476C338.169 368.476 325 355.307 325 339.062V336.961C325 322.834 334.959 311.033 348.238 308.195C348.154 307.29 348.112 306.372 348.112 305.445V303.344Z" fill="#E0FFDF"/>
<path fill-rule="evenodd" clip-rule="evenodd" d="M414.247 393.073C404.277 405.065 386.472 406.704 374.48 396.734C362.488 386.763 360.849 368.959 370.819 356.966L372.109 355.415C372.787 354.6 373.5 353.833 374.246 353.114C367.393 342.974 367.723 329.14 375.942 319.255L377.231 317.704C387.202 305.712 405.006 304.073 416.999 314.044C423.484 319.436 426.942 327.119 427.172 334.935C434.899 333.735 443.084 335.732 449.57 341.124C461.562 351.094 463.201 368.899 453.23 380.891L451.941 382.442C443.27 392.87 428.676 395.47 417.131 389.414C416.638 390.134 416.106 390.837 415.537 391.522L414.247 393.073Z" fill="#E0FFDF"/>
<path fill-rule="evenodd" clip-rule="evenodd" d="M407.198 293.866C407.198 277.44 420.513 264.124 436.939 264.124C453.365 264.124 466.68 277.44 466.68 293.866V295.99C466.68 297.107 466.619 298.209 466.499 299.293C478.878 302.891 487.924 314.317 487.924 327.856V329.98C487.924 346.406 474.609 359.722 458.183 359.722C449.3 359.722 441.327 355.828 435.877 349.653C430.427 355.828 422.454 359.722 413.571 359.722C397.145 359.722 383.829 346.406 383.829 329.98V327.856C383.829 313.572 393.899 301.641 407.326 298.771C407.241 297.856 407.198 296.928 407.198 295.99V293.866Z" fill="#E0FFDF"/>
<path fill-rule="evenodd" clip-rule="evenodd" d="M396.366 252.063C396.366 235.637 409.681 222.321 426.107 222.321C442.533 222.321 455.849 235.637 455.849 252.063V254.187C455.849 255.303 455.787 256.405 455.667 257.49C468.046 261.088 477.092 272.514 477.092 286.053V288.177C477.092 304.603 463.777 317.919 447.351 317.919C438.468 317.919 430.495 314.024 425.045 307.85C419.595 314.024 411.622 317.919 402.739 317.919C386.313 317.919 372.997 304.603 372.997 288.177V286.053C372.997 271.769 383.067 259.837 396.494 256.968C396.409 256.053 396.366 255.125 396.366 254.187V252.063Z" fill="#E0FFDF"/>
<path fill-rule="evenodd" clip-rule="evenodd" d="M353.849 264.287C353.849 250.809 364.775 239.884 378.252 239.884C391.73 239.884 402.656 250.809 402.656 264.287V266.03C402.656 266.946 402.605 267.85 402.507 268.74C412.663 271.692 420.086 281.067 420.086 292.176V293.919C420.086 307.397 409.161 318.323 395.683 318.323C388.395 318.323 381.852 315.127 377.381 310.061C372.909 315.127 366.367 318.323 359.078 318.323C345.601 318.323 334.675 307.397 334.675 293.919V292.176C334.675 280.456 342.937 270.666 353.954 268.312C353.885 267.561 353.849 266.799 353.849 266.03V264.287Z" fill="#E0FFDF"/>
<path fill-rule="evenodd" clip-rule="evenodd" d="M432.255 240.767C441.511 250.563 441.074 266.008 431.278 275.265C421.482 284.521 406.037 284.084 396.78 274.288L395.583 273.021C394.954 272.355 394.37 271.663 393.83 270.949C384.421 275.779 372.586 274.063 364.956 265.989L363.759 264.722C354.503 254.926 354.94 239.481 364.736 230.224C370.034 225.218 376.983 223.047 383.713 223.659C383.484 216.905 386.044 210.089 391.342 205.083C401.138 195.827 416.583 196.264 425.839 206.06L427.037 207.327C435.086 215.846 435.805 228.636 429.414 237.914C429.981 238.412 430.529 238.941 431.058 239.5L432.255 240.767Z" fill="#E0FFDF"/>
<path fill-rule="evenodd" clip-rule="evenodd" d="M485.256 316.074C480.923 322.481 474.159 327.108 466.288 328.632C465.391 333.061 463.416 337.337 460.324 341.055L459.035 342.606C450.364 353.035 435.77 355.634 424.225 349.578C423.732 350.298 423.2 351.002 422.631 351.687L421.341 353.238C411.371 365.23 393.566 366.869 381.574 356.898C374.553 351.061 371.081 342.539 371.409 334.07C367.113 336.526 362.137 337.929 356.833 337.929C345.009 337.929 334.814 330.952 330.141 320.891C326.898 325.619 325 331.343 325 337.51V339.611C325 355.856 338.169 369.025 354.415 369.025C358.408 369.025 362.215 368.23 365.687 366.788C362.197 377.468 365.315 389.663 374.48 397.283C386.472 407.253 404.277 405.615 414.247 393.622L415.537 392.071C416.106 391.387 416.638 390.683 417.131 389.963C428.676 396.019 443.271 393.419 451.941 382.991L453.23 381.44C458.345 375.288 460.405 367.607 459.579 360.239C475.357 359.51 487.924 346.487 487.924 330.53V328.405C487.924 324.006 486.97 319.831 485.256 316.074Z" fill="#E0FFDF"/>
<path fill-rule="evenodd" clip-rule="evenodd" d="M-63.8822 352.152C-78.0048 369.139 -103.223 371.46 -120.21 357.337L-130.4 348.865C-147.386 334.742 -149.708 309.524 -135.585 292.538L-126.734 281.892C-139.233 267.358 -139.792 245.506 -127.128 230.274L-116.526 217.522C-102.403 200.536 -77.1849 198.215 -60.1987 212.337L-50.0082 220.81C-41.492 227.89 -36.662 237.76 -35.7424 247.983C-25.5234 247.021 -14.9378 249.968 -6.4216 257.049L3.76889 265.521C20.755 279.644 23.0765 304.862 8.95391 321.848L-1.64772 334.6C-15.0458 350.714 -38.4308 353.63 -55.2986 341.828L-63.8822 352.152Z" fill="#E0FFDF"/>
<path fill-rule="evenodd" clip-rule="evenodd" d="M-71.2859 174.151C-71.2859 152.061 -53.3783 134.153 -31.2881 134.153H-13.073C9.01713 134.153 26.9247 152.061 26.9247 174.151V190.574C46.6926 193 62.0001 209.848 62.0001 230.272V251.994C62.0001 274.084 44.0924 291.992 22.0023 291.992H3.78722C-6.97516 291.992 -16.7447 287.741 -23.9343 280.827C-31.1238 287.741 -40.8934 291.992 -51.6558 291.992H-69.8708C-91.961 291.992 -109.869 274.084 -109.869 251.994V230.272C-109.869 208.655 -92.7207 191.044 -71.2859 190.298V174.151Z" fill="#E0FFDF"/>
<path fill-rule="evenodd" clip-rule="evenodd" d="M-89.1702 105.131C-89.1702 83.0411 -71.2626 65.1335 -49.1724 65.1335H-30.9574C-8.86722 65.1335 9.04037 83.0411 9.04037 105.131V121.554C28.8083 123.98 44.1157 140.828 44.1157 161.252V182.974C44.1157 205.064 26.2081 222.972 4.11792 222.972H-14.0971C-24.8595 222.972 -34.6291 218.721 -41.8186 211.807C-49.0082 218.721 -58.7777 222.972 -69.5401 222.972H-87.7551C-109.845 222.972 -127.753 205.064 -127.753 182.974V161.252C-127.753 139.635 -110.605 122.024 -89.1702 121.278V105.131Z" fill="#E0FFDF"/>
<path fill-rule="evenodd" clip-rule="evenodd" d="M-29.7128 95.8025C-14.541 111.858 -15.4713 137.375 -31.5273 152.547C-47.5832 167.719 -73.1118 167.204 -88.2835 151.148L-90.6636 148.629C-91.6362 147.6 -92.5426 146.532 -93.3831 145.43C-108.845 153.346 -128.343 150.657 -140.827 137.445L-143.208 134.926C-158.379 118.87 -157.449 93.3533 -141.393 78.1815C-132.688 69.9562 -121.199 66.3416 -110.086 67.3145C-110.428 56.1639 -106.17 44.8979 -97.4648 36.6725C-81.4089 21.5008 -55.8803 22.0158 -40.7086 38.0718L-38.3285 40.5906C-25.1522 54.5348 -24.1209 75.6149 -34.5949 90.8569C-33.7337 91.622 -32.8987 92.4309 -32.0929 93.2837L-29.7128 95.8025Z" fill="#E0FFDF"/>
<path fill-rule="evenodd" clip-rule="evenodd" d="M60.7771 221.324C54.2652 232.758 42.2769 240.669 28.3818 241.487C26.9024 246.681 24.341 251.657 20.6665 256.077L10.0649 268.828C-3.33321 284.943 -26.7182 287.859 -43.586 276.057L-52.1696 286.381C-66.2922 303.367 -91.5108 305.689 -108.497 291.566L-118.687 283.094C-127.757 275.553 -132.646 264.848 -133.083 253.922C-137.099 255.276 -141.4 256.011 -145.873 256.011H-163.009C-181.421 256.011 -196.928 243.569 -201.581 226.634C-205.026 232.543 -207 239.416 -207 246.75V267.355C-207 289.445 -189.092 307.352 -167.002 307.352H-149.866C-147.494 307.352 -145.17 307.146 -142.911 306.75C-147.764 321.836 -143.332 339.019 -130.4 349.772L-120.209 358.244C-103.223 372.367 -78.0047 370.045 -63.8821 353.059L-55.2985 342.735C-38.4307 354.537 -15.0457 351.621 -1.64761 335.506L8.95401 322.755C16.1583 314.09 19.0834 303.282 17.9655 292.898H22.0024C44.0926 292.898 62.0002 274.991 62.0002 252.901V231.178C62.0002 227.778 61.5758 224.476 60.7771 221.324Z" fill="#E0FFDF"/>
<path d="M1425.96 274.823H1449.07L1467.91 454.75H1406.82L1425.96 274.823Z" fill="#E0FFDF"/>
<path d="M1425.79 274.823H1448.75L1458.74 371.666H1415.81L1425.79 274.823Z" fill="#E0FFDF"/>
<path fill-rule="evenodd" clip-rule="evenodd" d="M1335.16 181.34C1335.16 159.25 1353.07 141.342 1375.16 141.342H1392.29C1414.38 141.342 1432.29 159.25 1432.29 181.34V197.195C1451.87 199.791 1466.98 216.553 1466.98 236.843V257.448C1466.98 279.538 1449.07 297.446 1426.98 297.446H1409.85C1399.02 297.446 1389.19 293.142 1381.99 286.151C1374.79 293.142 1364.96 297.446 1354.13 297.446H1337C1314.91 297.446 1297 279.538 1297 257.448V236.843C1297 215.37 1313.92 197.848 1335.16 196.887V181.34Z" fill="#E0FFDF"/>
<path fill-rule="evenodd" clip-rule="evenodd" d="M1440.12 343.152C1426 360.139 1400.78 362.46 1383.79 348.337L1373.6 339.865C1356.61 325.742 1354.29 300.524 1368.41 283.538L1377.27 272.892C1364.77 258.357 1364.21 236.506 1376.87 221.274L1387.47 208.522C1401.6 191.536 1426.82 189.215 1443.8 203.337L1453.99 211.81C1462.51 218.89 1467.34 228.76 1468.26 238.983C1478.48 238.021 1489.06 240.968 1497.58 248.048L1507.77 256.521C1524.76 270.644 1527.08 295.862 1512.95 312.848L1502.35 325.6C1488.95 341.714 1465.57 344.63 1448.7 332.828L1440.12 343.152Z" fill="#E0FFDF"/>
<path fill-rule="evenodd" clip-rule="evenodd" d="M1432.71 165.151C1432.71 143.061 1450.62 125.153 1472.71 125.153H1490.93C1513.02 125.153 1530.92 143.061 1530.92 165.151V181.574C1550.69 184 1566 200.848 1566 221.272V242.994C1566 265.084 1548.09 282.992 1526 282.992H1507.79C1497.02 282.992 1487.26 278.741 1480.07 271.827C1472.88 278.741 1463.11 282.992 1452.34 282.992H1434.13C1412.04 282.992 1394.13 265.084 1394.13 242.994V221.272C1394.13 199.655 1411.28 182.044 1432.71 181.298V165.151Z" fill="#E0FFDF"/>
<path fill-rule="evenodd" clip-rule="evenodd" d="M1414.83 96.1312C1414.83 74.0411 1432.74 56.1334 1454.83 56.1334H1473.04C1495.13 56.1334 1513.04 74.041 1513.04 96.1312V112.554C1532.81 114.98 1548.12 131.828 1548.12 152.252V173.974C1548.12 196.064 1530.21 213.972 1508.12 213.972H1489.9C1479.14 213.972 1469.37 209.721 1462.18 202.807C1454.99 209.721 1445.22 213.972 1434.46 213.972H1416.24C1394.15 213.972 1376.25 196.064 1376.25 173.974V152.252C1376.25 130.635 1393.39 113.024 1414.83 112.278V96.1312Z" fill="#E0FFDF"/>
<path fill-rule="evenodd" clip-rule="evenodd" d="M1344.63 125.128C1344.63 103.038 1362.83 85.1302 1384.92 85.1302C1407.01 85.1302 1425.21 103.038 1425.21 125.128V128.593C1425.21 130.009 1425.14 131.408 1424.99 132.786C1441.67 137.652 1453.99 152.997 1453.99 171.175V174.641C1453.99 196.731 1435.79 214.639 1413.7 214.639C1401.73 214.639 1390.89 209.375 1383.48 201.035C1376.07 209.375 1365.24 214.639 1353.27 214.639C1331.18 214.639 1312.97 196.731 1312.97 174.641V171.175C1312.97 151.991 1326.7 135.961 1344.78 132.076C1344.68 130.928 1344.63 129.767 1344.63 128.593V125.128Z" fill="#E0FFDF"/>
<path fill-rule="evenodd" clip-rule="evenodd" d="M1474.29 86.8024C1489.46 102.858 1488.53 128.375 1472.47 143.547C1456.42 158.719 1430.89 158.204 1415.72 142.148L1413.34 139.629C1412.36 138.6 1411.46 137.531 1410.62 136.43C1395.16 144.346 1375.66 141.657 1363.17 128.445L1360.79 125.926C1345.62 109.87 1346.55 84.3533 1362.61 69.1815C1371.31 60.9561 1382.8 57.3416 1393.91 58.3145C1393.57 47.1639 1397.83 35.8978 1406.54 27.6725C1422.59 12.5008 1448.12 13.0158 1463.29 29.0718L1465.67 31.5906C1478.85 45.5348 1479.88 66.6148 1469.41 81.8569C1470.27 82.622 1471.1 83.4309 1471.91 84.2836L1474.29 86.8024Z" fill="#E0FFDF"/>
<path fill-rule="evenodd" clip-rule="evenodd" d="M1564.78 212.324C1558.27 223.758 1546.28 231.669 1532.38 232.487C1530.9 237.681 1528.34 242.657 1524.67 247.077L1514.06 259.828C1500.67 275.943 1477.28 278.859 1460.41 267.057L1451.83 277.381C1437.71 294.367 1412.49 296.689 1395.5 282.566L1385.31 274.094C1376.24 266.553 1371.35 255.848 1370.92 244.922C1366.9 246.276 1362.6 247.011 1358.13 247.011H1340.99C1322.58 247.011 1307.07 234.569 1302.42 217.634C1298.97 223.543 1297 230.416 1297 237.75V258.355C1297 280.445 1314.91 298.352 1337 298.352H1354.13C1356.51 298.352 1358.83 298.146 1361.09 297.75C1356.24 312.836 1360.67 330.019 1373.6 340.771L1383.79 349.244C1400.78 363.367 1426 361.045 1440.12 344.059L1448.7 333.735C1465.57 345.537 1488.95 342.621 1502.35 326.506L1512.95 313.755C1520.16 305.09 1523.08 294.282 1521.97 283.898H1526C1548.09 283.898 1566 265.991 1566 243.901V222.178C1566 218.777 1565.58 215.476 1564.78 212.324Z" fill="#E0FFDF"/>
<path d="M1047.93 385.793H1068.35L1084.99 544.75H1031.02L1047.93 385.793Z" fill="#E0FFDF"/>
<path d="M1047.78 385.793H1068.07L1076.89 471.349H1038.96L1047.78 385.793Z" fill="#E0FFDF"/>
<path fill-rule="evenodd" clip-rule="evenodd" d="M967.712 307.867C967.712 285.777 985.619 267.869 1007.71 267.869H1013.52C1035.61 267.869 1053.52 285.777 1053.52 307.867V316.747C1053.52 317.165 1053.52 317.583 1053.5 317.998C1071.09 322.202 1084.17 338.025 1084.17 356.902V365.782C1084.17 387.872 1066.26 405.779 1044.17 405.779H1038.36C1026.8 405.779 1016.39 400.878 1009.08 393.04C1001.78 400.878 991.37 405.779 979.813 405.779H973.998C951.908 405.779 934 387.872 934 365.782V356.902C934 336.948 948.61 320.408 967.717 317.394C967.713 317.179 967.712 316.963 967.712 316.747V307.867Z" fill="#E0FFDF"/>
<path fill-rule="evenodd" clip-rule="evenodd" d="M1063.42 442.574C1049.3 459.561 1024.08 461.882 1007.09 447.759L1005.26 446.235C988.271 432.112 985.949 406.894 1000.07 389.907L1003.48 385.811C1004.15 385.001 1004.85 384.225 1005.57 383.482C995.423 369.066 995.734 349.105 1007.54 334.9L1010.95 330.804C1025.07 313.818 1050.29 311.497 1067.28 325.619L1069.11 327.144C1078.17 334.678 1083.06 345.371 1083.5 356.287C1094.32 354.731 1105.72 357.585 1114.79 365.119L1116.62 366.644C1133.61 380.766 1135.93 405.985 1121.8 422.971L1118.4 427.067C1105.93 442.066 1084.81 445.631 1068.34 436.537C1067.86 437.195 1067.35 437.842 1066.82 438.478L1063.42 442.574Z" fill="#E0FFDF"/>
<path fill-rule="evenodd" clip-rule="evenodd" d="M1053.9 293.565C1053.9 271.475 1071.8 253.567 1093.89 253.567H1100.66C1122.75 253.567 1140.66 271.475 1140.66 293.565V303.432C1140.66 303.677 1140.66 303.921 1140.65 304.164C1158.41 308.249 1171.65 324.15 1171.65 343.145V353.012C1171.65 375.102 1153.74 393.01 1131.65 393.01H1124.88C1113.39 393.01 1103.03 388.161 1095.73 380.398C1088.43 388.161 1078.07 393.01 1066.58 393.01H1059.81C1037.72 393.01 1019.81 375.102 1019.81 353.012V343.145C1019.81 323.063 1034.61 306.438 1053.9 303.581L1053.9 303.432V293.565Z" fill="#E0FFDF"/>
<path fill-rule="evenodd" clip-rule="evenodd" d="M1038.1 232.589C1038.1 210.499 1056 192.591 1078.09 192.591H1084.86C1106.95 192.591 1124.86 210.499 1124.86 232.589V242.457C1124.86 242.701 1124.86 242.945 1124.85 243.188C1142.61 247.273 1155.85 263.175 1155.85 282.169V292.036C1155.85 314.126 1137.94 332.034 1115.85 332.034H1109.08C1097.59 332.034 1087.23 327.186 1079.93 319.422C1072.63 327.186 1062.27 332.034 1050.78 332.034H1044.01C1021.92 332.034 1004.01 314.126 1004.01 292.036V282.169C1004.01 262.087 1018.81 245.462 1038.1 242.605L1038.1 242.457V232.589Z" fill="#E0FFDF"/>
<path fill-rule="evenodd" clip-rule="evenodd" d="M976.08 253.804C976.08 234.145 992.017 218.209 1011.68 218.209C1031.34 218.209 1047.27 234.145 1047.27 253.804V256.347C1047.27 257.683 1047.2 259.002 1047.05 260.3C1061.87 264.606 1072.7 278.281 1072.7 294.485V297.028C1072.7 316.686 1056.76 332.623 1037.1 332.623C1026.47 332.623 1016.93 327.962 1010.4 320.572C1003.88 327.962 994.339 332.623 983.708 332.623C964.049 332.623 948.112 316.686 948.112 297.027V294.485C948.112 277.39 960.164 263.109 976.234 259.675C976.132 258.579 976.08 257.469 976.08 256.347V253.804Z" fill="#E0FFDF"/>
<path fill-rule="evenodd" clip-rule="evenodd" d="M1090.45 219.497C1103.95 233.786 1103.31 256.315 1089.02 269.817C1074.73 283.319 1052.2 282.681 1038.7 268.392L1036.96 266.544C1036.04 265.573 1035.19 264.564 1034.4 263.522C1020.67 270.567 1003.41 268.064 992.282 256.286L990.536 254.438C977.034 240.149 977.672 217.621 991.961 204.119C999.688 196.817 1009.83 193.65 1019.64 194.542C1019.31 184.691 1023.04 174.749 1030.77 167.447C1045.06 153.945 1067.59 154.583 1081.09 168.872L1082.83 170.72C1094.58 183.146 1095.62 201.802 1086.3 215.335C1087.13 216.062 1087.93 216.833 1088.7 217.649L1090.45 219.497Z" fill="#E0FFDF"/>
<path fill-rule="evenodd" clip-rule="evenodd" d="M1169.05 329.737C1162.85 339.582 1152.48 346.535 1140.42 348.113C1139.07 354.084 1136.33 359.836 1132.15 364.865L1128.75 368.962C1116.28 383.96 1095.15 387.525 1078.69 378.431C1078.21 379.089 1077.7 379.736 1077.17 380.372L1073.77 384.469C1059.64 401.455 1034.42 403.776 1017.44 389.654L1015.6 388.129C1006 380.146 1001.09 368.618 1001.18 357.035C995.808 359.715 989.751 361.222 983.341 361.222H977.526C960.672 361.222 946.253 350.798 940.364 336.046C936.337 342.288 934 349.722 934 357.702V366.583C934 388.673 951.908 406.58 973.998 406.58H979.813C984.283 406.58 988.581 405.847 992.595 404.495C987.988 419.463 992.462 436.398 1005.26 447.036L1007.09 448.56C1024.08 462.683 1049.3 460.361 1063.42 443.375L1066.82 439.279C1067.35 438.643 1067.86 437.996 1068.34 437.337C1084.81 446.432 1105.93 442.867 1118.4 427.868L1121.8 423.772C1129.03 415.078 1131.95 404.227 1130.8 393.811H1131.65C1153.74 393.811 1171.65 375.903 1171.65 353.813V343.946C1171.65 338.941 1170.73 334.152 1169.05 329.737Z" fill="#E0FFDF"/>
<path d="M141.927 344.793H162.347L178.989 503.75H125.023L141.927 344.793Z" fill="#E0FFDF"/>
<path d="M141.781 344.793H162.067L170.888 430.349H132.961L141.781 344.793Z" fill="#E0FFDF"/>
<path fill-rule="evenodd" clip-rule="evenodd" d="M61.7115 266.867C61.7115 244.777 79.6191 226.869 101.709 226.869H107.525C129.615 226.869 147.522 244.777 147.522 266.867V275.747C147.522 276.165 147.516 276.583 147.503 276.998C165.092 281.202 178.169 297.024 178.169 315.902V324.782C178.169 346.872 160.262 364.779 138.171 364.779H132.356C120.799 364.779 110.387 359.878 103.085 352.04C95.7826 359.878 85.3703 364.779 73.8131 364.779H67.9978C45.9076 364.779 28 346.872 28 324.782V315.901C28 295.948 42.6104 279.408 61.7166 276.394C61.7132 276.179 61.7115 275.963 61.7115 275.747V266.867Z" fill="#E0FFDF"/>
<path fill-rule="evenodd" clip-rule="evenodd" d="M157.418 401.574C143.295 418.56 118.077 420.882 101.091 406.759L99.257 405.235C82.2709 391.112 79.9495 365.894 94.072 348.907L97.4776 344.811C98.151 344.001 98.8497 343.225 99.5715 342.482C89.4232 328.066 89.7338 308.105 101.544 293.9L104.949 289.804C119.072 272.818 144.29 270.497 161.277 284.619L163.11 286.144C172.173 293.678 177.061 304.371 177.505 315.287C188.318 313.731 199.724 316.585 208.786 324.119L210.62 325.644C227.606 339.766 229.927 364.985 215.805 381.971L212.399 386.067C199.929 401.066 178.807 404.631 162.341 395.537C161.858 396.195 161.352 396.842 160.824 397.478L157.418 401.574Z" fill="#E0FFDF"/>
<path fill-rule="evenodd" clip-rule="evenodd" d="M147.897 252.565C147.897 230.475 165.805 212.567 187.895 212.567H194.664C216.754 212.567 234.661 230.475 234.661 252.565V262.432C234.661 262.677 234.659 262.921 234.655 263.164C252.409 267.249 265.649 283.15 265.649 302.145V312.012C265.649 334.102 247.741 352.01 225.651 352.01H218.882C207.388 352.01 197.026 347.161 189.73 339.398C182.434 347.161 172.072 352.01 160.578 352.01H153.809C131.719 352.01 113.811 334.102 113.811 312.012V302.145C113.811 282.063 128.61 265.438 147.897 262.581L147.897 262.432V252.565Z" fill="#E0FFDF"/>
<path fill-rule="evenodd" clip-rule="evenodd" d="M132.097 191.589C132.097 169.499 150.005 151.591 172.095 151.591H178.864C200.954 151.591 218.861 169.499 218.861 191.589V201.457C218.861 201.701 218.859 201.945 218.855 202.188C236.609 206.273 249.849 222.175 249.849 241.169V251.036C249.849 273.126 231.941 291.034 209.851 291.034H203.082C191.588 291.034 181.226 286.185 173.93 278.422C166.634 286.185 156.272 291.034 144.778 291.034H138.009C115.919 291.034 98.0111 273.126 98.0111 251.036V241.169C98.0111 221.087 112.81 204.462 132.097 201.605L132.097 201.457V191.589Z" fill="#E0FFDF"/>
<path fill-rule="evenodd" clip-rule="evenodd" d="M70.0804 212.804C70.0804 193.145 86.0171 177.209 105.676 177.209C125.335 177.209 141.272 193.145 141.272 212.804V215.347C141.272 216.683 141.198 218.002 141.055 219.299C155.87 223.606 166.697 237.281 166.697 253.485V256.027C166.697 275.686 150.76 291.623 131.102 291.623C120.47 291.623 110.927 286.962 104.405 279.572C97.8823 286.962 88.3395 291.623 77.708 291.623C58.049 291.623 42.1123 275.686 42.1123 256.027V253.485C42.1123 236.39 54.1635 222.109 70.234 218.675C70.1323 217.579 70.0804 216.469 70.0804 215.347V212.804Z" fill="#E0FFDF"/>
<path fill-rule="evenodd" clip-rule="evenodd" d="M184.447 178.497C197.949 192.786 197.311 215.315 183.022 228.817C168.733 242.319 146.204 241.681 132.702 227.392L130.956 225.544C130.038 224.573 129.186 223.564 128.399 222.522C114.673 229.567 97.4113 227.064 86.2821 215.286L84.5359 213.438C71.0339 199.149 71.6718 176.621 85.9607 163.119C93.688 155.817 103.825 152.65 113.641 153.542C113.307 143.691 117.042 133.749 124.769 126.447C139.058 112.945 161.587 113.583 175.089 127.872L176.835 129.72C188.576 142.146 189.625 160.802 180.303 174.335C181.129 175.062 181.929 175.833 182.7 176.649L184.447 178.497Z" fill="#E0FFDF"/>
<path fill-rule="evenodd" clip-rule="evenodd" d="M263.051 288.737C256.853 298.582 246.481 305.535 234.418 307.113C233.074 313.084 230.334 318.836 226.152 323.865L222.747 327.961C210.276 342.96 189.155 346.525 172.688 337.431C172.206 338.089 171.7 338.736 171.171 339.372L167.765 343.469C153.643 360.455 128.424 362.776 111.438 348.654L109.604 347.129C100.003 339.146 95.0869 327.618 95.178 316.035C89.8081 318.715 83.7508 320.222 77.3413 320.222H71.5259C54.6724 320.222 40.2534 309.798 34.3643 295.046C30.3372 301.288 28.0001 308.722 28.0001 316.702V325.582C28.0001 347.673 45.9077 365.58 67.9978 365.58H73.8132C78.2829 365.58 82.5814 364.847 86.595 363.494C81.9876 378.463 86.4618 395.398 99.2569 406.036L101.091 407.56C118.077 421.683 143.295 419.361 157.418 402.375L160.823 398.279C161.352 397.643 161.858 396.996 162.341 396.337C178.807 405.432 199.929 401.867 212.399 386.868L215.805 382.772C223.033 374.078 225.954 363.227 224.805 352.811H225.651C247.741 352.811 265.649 334.903 265.649 312.813V302.945C265.649 297.941 264.73 293.152 263.051 288.737Z" fill="#E0FFDF"/>
<rect x="753.772" y="274.266" width="101.047" height="101.047" rx="50.5237" fill="#E0FFDF"/>
<path d="M829.557 307.948C829.557 293.996 840.867 282.686 854.819 282.686V282.686V282.686C854.819 296.638 843.509 307.948 829.557 307.948V307.948V307.948Z" fill="#E0FFDF"/>
<path d="M789.92 298.986C776.966 297.765 767.455 286.273 768.676 273.319V273.319V273.319C781.63 274.54 791.142 286.032 789.92 298.986V298.986V298.986Z" fill="#E0FFDF"/>
<path d="M770.193 341.139C760.231 349.509 745.37 348.218 737 338.255V338.255V338.255C746.962 329.886 761.824 331.176 770.193 341.139V341.139V341.139Z" fill="#E0FFDF"/>
<path d="M863.912 349.186C853.949 357.555 839.088 356.265 830.718 346.302V346.302V346.302C840.681 337.932 855.542 339.223 863.912 349.186V349.186V349.186Z" fill="#E0FFDF"/>
<rect x="915.45" y="340.143" width="101.047" height="101.047" rx="50.5237" transform="rotate(119.838 915.45 340.143)" fill="#E0FFDF"/>
<path d="M848.526 389.124C860.628 396.065 864.812 411.503 857.87 423.606V423.606V423.606C845.768 416.664 841.584 401.226 848.526 389.124V389.124V389.124Z" fill="#E0FFDF"/>
<path d="M876.021 359.2C883.526 348.571 898.227 346.038 908.856 353.543V353.543V353.543C901.351 364.172 886.65 366.705 876.021 359.2V359.2V359.2Z" fill="#E0FFDF"/>
<path d="M849.271 321.115C846.968 308.309 855.482 296.06 868.288 293.757V293.757V293.757C870.592 306.563 862.078 318.812 849.271 321.115V321.115V321.115Z" fill="#E0FFDF"/>
<path d="M795.662 398.407C793.358 385.6 801.872 373.352 814.679 371.048V371.048V371.048C816.982 383.854 808.468 396.103 795.662 398.407V398.407V398.407Z" fill="#E0FFDF"/>
<rect x="963.448" y="304.145" width="101.047" height="101.047" rx="50.5237" transform="rotate(119.838 963.448 304.145)" fill="#E0FFDF"/>
<path d="M896.523 353.126C908.626 360.067 912.809 375.505 905.867 387.608V387.608V387.608C893.765 380.666 889.582 365.228 896.523 353.126V353.126V353.126Z" fill="#E0FFDF"/>
<path d="M924.019 323.202C931.523 312.573 946.224 310.04 956.853 317.545V317.545V317.545C949.348 328.174 934.648 330.707 924.019 323.202V323.202V323.202Z" fill="#E0FFDF"/>
<path d="M897.269 285.117C894.965 272.311 903.479 260.062 916.285 257.759V257.759V257.759C918.589 270.565 910.075 282.814 897.269 285.117V285.117V285.117Z" fill="#E0FFDF"/>
<path d="M843.659 362.409C841.356 349.602 849.87 337.354 862.676 335.05V335.05V335.05C864.98 347.856 856.466 360.105 843.659 362.409V362.409V362.409Z" fill="#E0FFDF"/>
<rect x="938.335" y="258" width="94.5829" height="94.5829" rx="47.2914" transform="rotate(119.838 938.335 258)" fill="#E0FFDF"/>
<path d="M875.692 303.847C887.02 310.345 890.936 324.795 884.438 336.123V336.123V336.123C873.11 329.626 869.195 315.175 875.692 303.847V303.847V303.847Z" fill="#E0FFDF"/>
<path d="M901.428 275.838C908.453 265.889 922.213 263.518 932.162 270.543V270.543V270.543C925.138 280.492 911.378 282.863 901.428 275.838V275.838V275.838Z" fill="#E0FFDF"/>
<path d="M876.39 240.19C874.234 228.203 882.203 216.738 894.19 214.582V214.582V214.582C896.346 226.568 888.377 238.034 876.39 240.19V240.19V240.19Z" fill="#E0FFDF"/>
<path d="M826.21 312.536C824.054 300.549 832.023 289.084 844.01 286.928V286.928V286.928C846.166 298.915 838.197 310.38 826.21 312.536V312.536V312.536Z" fill="#E0FFDF"/>
<path fill-rule="evenodd" clip-rule="evenodd" d="M755.684 311.581C754.499 315.872 753.866 320.393 753.866 325.061C753.866 327.801 754.084 330.491 754.504 333.114C748.431 332.53 742.135 334.292 737.095 338.527C742.579 345.054 750.85 347.859 758.704 346.663C766.032 362.133 780.986 373.287 798.713 375.269C799.236 376.819 799.834 378.345 800.505 379.841C796.437 384.96 794.508 391.737 795.757 398.678C800.704 397.788 805.01 395.414 808.3 392.097C811.936 396.315 816.337 400 821.443 402.929C829.347 407.462 837.962 409.623 846.464 409.635C848.314 415.444 852.259 420.604 857.965 423.877C860.92 418.724 861.859 412.966 861.028 407.516C873.01 403.943 883.695 395.943 890.407 384.24C892.225 381.07 893.662 377.785 894.732 374.438C896.68 379.919 900.52 384.758 905.962 387.879C908.918 382.726 909.856 376.968 909.025 371.518C921.008 367.945 931.692 359.945 938.404 348.242C942.332 341.394 944.479 334.013 944.99 326.633C949.66 325.118 953.898 322.135 956.948 317.816C953.055 315.067 948.616 313.665 944.184 313.514C943.473 309.846 942.359 306.262 940.86 302.833C939.754 306.816 938.137 310.727 935.985 314.478C926.172 331.586 907.869 340.782 889.433 339.801C889.16 340.317 888.877 340.83 888.585 341.34C874.701 365.545 843.825 373.912 819.621 360.028C811.716 355.495 805.501 349.148 801.198 341.814C780.84 341.509 763.4 329.162 755.684 311.581Z" fill="#E0FFDF"/>
<path d="M847.852 363.302H861.851L873.261 472.278H836.263L847.852 363.302Z" fill="#E0FFDF"/>
<path d="M847.752 363.302H861.952L867.964 421.957H841.705L847.752 363.302Z" fill="#E0FFDF"/>
<path fill-rule="evenodd" clip-rule="evenodd" d="M843.92 409.739C822.027 393.975 819.365 370.29 820.897 359.951L830.789 361.417C829.654 369.077 831.659 388.589 849.763 401.624L843.92 409.739Z" fill="#E0FFDF"/>
<path fill-rule="evenodd" clip-rule="evenodd" d="M860.456 393.74C882.35 377.976 885.011 354.291 883.479 343.952L873.588 345.418C874.723 353.077 872.718 372.59 854.614 385.625L860.456 393.74Z" fill="#E0FFDF"/>
<rect x="898.429" y="325.096" width="72.4067" height="72.4067" rx="36.2034" transform="rotate(119.838 898.429 325.096)" fill="#E0FFDF"/>
<path d="M850.474 360.194C859.146 365.168 862.144 376.231 857.17 384.903V384.903V384.903C848.498 379.929 845.5 368.866 850.474 360.194V360.194V360.194Z" fill="#E0FFDF"/>
<path d="M870.176 338.752C875.554 331.136 886.088 329.321 893.704 334.698V334.698V334.698C888.326 342.315 877.793 344.13 870.176 338.752V338.752V338.752Z" fill="#E0FFDF"/>
<path d="M851.008 311.462C849.357 302.286 855.458 293.509 864.635 291.858V291.858V291.858C866.285 301.034 860.185 309.811 851.008 311.462V311.462V311.462Z" fill="#E0FFDF"/>
<path d="M812.594 366.846C810.943 357.67 817.044 348.893 826.22 347.242V347.242V347.242C827.871 356.418 821.77 365.195 812.594 366.846V366.846V366.846Z" fill="#E0FFDF"/>
<rect x="779.847" y="209.271" width="94.5829" height="94.5829" rx="47.2914" transform="rotate(8.46442 779.847 209.271)" fill="#E0FFDF"/>
<path d="M845.371 250.897C847.293 237.98 859.323 229.067 872.24 230.989V230.989V230.989C870.318 243.906 858.288 252.819 845.371 250.897V250.897V250.897Z" fill="#E0FFDF"/>
<path d="M809.909 237.138C798.084 234.223 790.861 222.273 793.777 210.448V210.448V210.448C805.602 213.364 812.824 225.313 809.909 237.138V237.138V237.138Z" fill="#E0FFDF"/>
<path d="M785.838 273.447C775.461 279.823 761.88 276.58 755.503 266.204V266.204V266.204C765.88 259.827 779.461 263.07 785.838 273.447V273.447V273.447Z" fill="#E0FFDF"/>
<path d="M871.496 293.809C861.119 300.185 847.538 296.943 841.162 286.566V286.566V286.566C851.538 280.19 865.119 283.432 871.496 293.809V293.809V293.809Z" fill="#E0FFDF"/>
<rect x="135.281" y="361.493" width="19.8936" height="93.7843" fill="#E0FFDF"/>
<rect x="135.335" y="326.818" width="19.8936" height="93.7843" fill="#E0FFDF"/>
<path d="M188.267 364.747C188.267 389.283 168.376 409.173 143.84 409.173C119.304 409.173 99.413 389.283 99.413 364.747C99.413 340.21 119.304 290.702 143.84 290.702C168.376 290.702 188.267 340.21 188.267 364.747Z" fill="#E0FFDF"/>
<path fill-rule="evenodd" clip-rule="evenodd" d="M186.921 354.332C182.722 374.504 164.844 389.659 143.427 389.659C122.01 389.659 104.132 374.504 99.9329 354.332C99.3214 358.105 99 361.628 99 364.747C99 389.283 118.891 409.173 143.427 409.173C167.963 409.173 187.854 389.283 187.854 364.747C187.854 361.628 187.532 358.105 186.921 354.332Z" fill="#E0FFDF"/>
<path d="M180.997 307.864C180.997 327.793 164.524 343.948 144.205 343.948C123.885 343.948 107.413 327.793 107.413 307.864C107.413 287.935 123.885 247.723 144.205 247.723C164.524 247.723 180.997 287.935 180.997 307.864Z" fill="#E0FFDF"/>
<path d="M172.015 256.921C172.015 272.161 159.344 284.515 143.714 284.515C128.083 284.515 115.412 272.161 115.412 256.921C115.412 241.681 128.083 210.931 143.714 210.931C159.344 210.931 172.015 241.681 172.015 256.921Z" fill="#E0FFDF"/>
<rect x="1364.96" y="342.714" width="26.297" height="123.972" fill="#E0FFDF"/>
<rect x="1365.03" y="296.878" width="26.297" height="123.972" fill="#E0FFDF"/>
<path d="M1435 347.014C1435 379.448 1408.71 405.741 1376.27 405.741C1343.84 405.741 1317.55 379.448 1317.55 347.014C1317.55 314.58 1343.84 249.136 1376.27 249.136C1408.71 249.136 1435 314.58 1435 347.014Z" fill="#E0FFDF"/>
<path fill-rule="evenodd" clip-rule="evenodd" d="M1433.22 333.248C1427.67 359.912 1404.04 379.945 1375.73 379.945C1347.42 379.945 1323.78 359.912 1318.23 333.248C1317.42 338.235 1317 342.892 1317 347.015C1317 379.449 1343.29 405.742 1375.73 405.742C1408.16 405.742 1434.45 379.449 1434.45 347.015C1434.45 342.892 1434.03 338.235 1433.22 333.248Z" fill="#E0FFDF"/>
<path d="M1425.39 271.822C1425.39 298.166 1403.62 319.521 1376.76 319.521C1349.89 319.521 1328.12 298.166 1328.12 271.822C1328.12 245.478 1349.89 192.323 1376.75 192.323C1403.62 192.323 1425.39 245.478 1425.39 271.822Z" fill="#E0FFDF"/>
<path d="M949.013 397.33H960.078L969.095 483.464H939.853L949.013 397.33Z" fill="#E0FFDF"/>
<path d="M948.933 397.33H959.926L964.705 443.69H944.154L948.933 397.33Z" fill="#E0FFDF"/>
<path d="M987.711 435.822C998.741 436.933 991.433 423.668 986.101 411.872C980.769 400.076 969.233 377.887 951.526 377.887C937.017 377.887 909.522 429.953 915.961 434.852C921.112 438.77 933.203 435.695 941.252 429.527C943.667 434.97 947.312 437.517 953.107 437.953C958.902 438.388 962.282 434.425 966.843 429.527C968.452 431.341 978.088 434.852 987.711 435.822Z" fill="#E0FFDF"/>
<path fill-rule="evenodd" clip-rule="evenodd" d="M985.631 410.553C978.982 397.466 967.488 380.124 951.172 380.124C942.779 380.124 930.389 396.156 921.691 411.953C927.611 411.354 934.638 408.506 940.009 404.39C942.632 410.303 946.939 416.452 953.235 416.925C959.531 417.399 964.227 411.229 967.812 404.39C969.289 406.054 976.98 409.031 985.631 410.553Z" fill="#E0FFDF"/>
<path d="M987.711 405.849C998.268 409.234 991.433 393.695 986.101 381.899C980.769 370.104 969.233 347.914 951.526 347.914C937.017 347.914 909.522 399.98 915.961 404.879C921.112 408.798 933.203 399.192 941.252 393.023C943.667 398.467 947.312 407.544 953.107 407.98C958.902 408.415 962.282 397.922 966.843 393.023C968.452 394.838 978.088 402.762 987.711 405.849Z" fill="#E0FFDF"/>
<path fill-rule="evenodd" clip-rule="evenodd" d="M980.654 369.776C983.209 375.216 985.079 379.199 984.779 379.169C976.601 378.347 967.118 374.737 965.75 373.2C962.946 378.531 958.638 381.927 953.713 381.558C948.788 381.189 944.295 377.087 942.243 372.477C935.402 377.702 922.712 379.646 923.603 378.213C925.127 375.761 926.552 373.051 927.908 370.203C936.064 357.139 945.999 345.713 953.084 345.713C961.644 345.713 968.876 350.486 974.778 356.913C975.082 357.68 975.387 358.41 975.698 359.095C977.385 362.813 979.14 366.551 980.654 369.776Z" fill="#E0FFDF"/>
<path d="M984.301 370.566C991.948 373.194 986.241 359.635 981.911 350.014C977.581 340.394 969.012 322.358 954.669 321.338C941.255 320.385 916.94 365.136 922.169 369.132C926.352 372.328 937.43 366.027 943.966 360.995C945.927 365.435 948.888 372.839 953.594 373.194C958.3 373.549 961.045 364.991 964.749 360.995C966.056 362.475 977.482 368.222 984.301 370.566Z" fill="#E0FFDF"/>
<path d="M1595.32 290.144H1619.18L1638.62 420.192H1575.58L1595.32 290.144Z" fill="#E0FFDF"/>
<path d="M1595.15 290.144H1618.85L1629.15 360.14H1584.85L1595.15 290.144Z" fill="#E0FFDF"/>
<path d="M1678.75 349.833C1702.53 352.23 1686.77 323.633 1675.28 298.204C1663.78 272.774 1638.92 224.938 1600.74 224.938C1569.46 224.938 1510.19 337.182 1524.07 347.742C1535.18 356.191 1561.24 349.561 1578.59 336.263C1583.8 347.997 1591.66 353.489 1604.15 354.428C1616.64 355.366 1623.93 346.823 1633.76 336.263C1637.23 340.174 1658 347.742 1678.75 349.833Z" fill="#E0FFDF"/>
<path fill-rule="evenodd" clip-rule="evenodd" d="M1674.26 295.359C1659.93 267.148 1635.15 229.762 1599.98 229.762C1581.89 229.762 1555.18 264.323 1536.42 298.378C1549.19 297.087 1564.34 290.946 1575.91 282.073C1581.57 294.821 1590.85 308.078 1604.43 309.097C1618 310.117 1628.12 296.817 1635.85 282.073C1639.03 285.66 1655.61 292.079 1674.26 295.359Z" fill="#E0FFDF"/>
<path d="M1678.75 285.218C1701.51 292.517 1686.77 259.018 1675.28 233.589C1663.78 208.159 1638.92 160.323 1600.74 160.323C1569.46 160.323 1510.19 272.566 1524.07 283.127C1535.18 291.576 1561.24 270.868 1578.59 257.57C1583.8 269.304 1591.66 288.874 1604.15 289.813C1616.64 290.751 1623.93 268.131 1633.76 257.57C1637.23 261.481 1658 278.565 1678.75 285.218Z" fill="#E0FFDF"/>
<rect x="373.616" y="338.718" width="63.9634" height="63.9634" rx="31.9817" fill="#E0FFDF"/>
<path d="M421.589 360.039C421.589 351.208 428.748 344.048 437.58 344.048V344.048V344.048C437.58 352.88 430.42 360.039 421.589 360.039V360.039V360.039Z" fill="#E0FFDF"/>
<path d="M396.499 354.366C388.299 353.593 382.278 346.319 383.051 338.118V338.118V338.118C391.251 338.892 397.272 346.166 396.499 354.366V354.366V354.366Z" fill="#E0FFDF"/>
<path d="M384.012 381.049C377.705 386.347 368.298 385.53 363 379.224V379.224V379.224C369.306 373.925 378.713 374.743 384.012 381.049V381.049V381.049Z" fill="#E0FFDF"/>
<path d="M443.336 386.142C437.029 391.441 427.622 390.623 422.324 384.317V384.317V384.317C428.63 379.019 438.037 379.836 443.336 386.142V386.142V386.142Z" fill="#E0FFDF"/>
<rect x="475.96" y="380.418" width="63.9634" height="63.9634" rx="31.9817" transform="rotate(119.838 475.96 380.418)" fill="#E0FFDF"/>
<path d="M433.596 411.423C441.257 415.817 443.905 425.59 439.511 433.25V433.25V433.25C431.85 428.856 429.202 419.084 433.596 411.423V411.423V411.423Z" fill="#E0FFDF"/>
<path d="M451.001 392.482C455.752 385.753 465.057 384.15 471.785 388.901V388.901V388.901C467.035 395.629 457.729 397.232 451.001 392.482V392.482V392.482Z" fill="#E0FFDF"/>
<path d="M434.068 368.374C432.61 360.268 437.999 352.514 446.106 351.056V351.056V351.056C447.564 359.162 442.175 366.916 434.068 368.374V368.374V368.374Z" fill="#E0FFDF"/>
<path d="M400.133 417.299C398.675 409.193 404.064 401.439 412.171 399.981V399.981V399.981C413.629 408.088 408.24 415.841 400.133 417.299V417.299V417.299Z" fill="#E0FFDF"/>
<rect x="504.436" y="365.774" width="63.9634" height="63.9634" rx="31.9817" transform="rotate(119.838 504.436 365.774)" fill="#E0FFDF"/>
<path d="M462.073 396.778C469.734 401.173 472.382 410.945 467.988 418.606V418.606V418.606C460.327 414.212 457.679 404.439 462.073 396.778V396.778V396.778Z" fill="#E0FFDF"/>
<path d="M479.477 377.837C484.228 371.108 493.534 369.505 500.262 374.256V374.256V374.256C495.511 380.984 486.206 382.587 479.477 377.837V377.837V377.837Z" fill="#E0FFDF"/>
<path d="M428.61 402.655C427.152 394.548 432.541 386.795 440.647 385.337V385.337V385.337C442.106 393.443 436.716 401.196 428.61 402.655V402.655V402.655Z" fill="#E0FFDF"/>
<path d="M458.932 322.849C473.273 331.075 478.231 349.369 470.005 363.71V363.71C461.779 378.052 443.484 383.009 429.143 374.783V374.783C414.802 366.557 409.844 348.263 418.07 333.922V333.922C426.296 319.58 444.59 314.623 458.932 322.849V322.849Z" fill="#E0FFDF"/>
<path d="M446.926 366.384C454.097 370.497 456.576 379.645 452.463 386.815V386.815V386.815C445.292 382.702 442.814 373.555 446.926 366.384V366.384V366.384Z" fill="#E0FFDF"/>
<path d="M463.217 348.655C467.664 342.357 476.374 340.856 482.672 345.303V345.303V345.303C478.226 351.601 469.515 353.101 463.217 348.655V348.655V348.655Z" fill="#E0FFDF"/>
<path d="M447.368 326.089C446.003 318.501 451.048 311.244 458.635 309.879V309.879V309.879C460 317.467 454.956 324.724 447.368 326.089V326.089V326.089Z" fill="#E0FFDF"/>
<path d="M415.604 371.885C414.239 364.297 419.284 357.039 426.872 355.674V355.674V355.674C428.237 363.262 423.192 370.52 415.604 371.885V371.885V371.885Z" fill="#E0FFDF"/>
<rect x="393.217" y="318.489" width="59.8713" height="59.8713" rx="29.9357" transform="rotate(8.46442 393.217 318.489)" fill="#E0FFDF"/>
<path d="M434.694 344.838C435.911 336.662 443.526 331.02 451.702 332.237V332.237V332.237C450.485 340.413 442.871 346.055 434.694 344.838V344.838V344.838Z" fill="#E0FFDF"/>
<path d="M412.247 336.129C404.761 334.284 400.189 326.719 402.035 319.234V319.234V319.234C409.52 321.08 414.092 328.644 412.247 336.129V336.129V336.129Z" fill="#E0FFDF"/>
<path d="M397.009 359.112C390.441 363.149 381.844 361.096 377.808 354.528V354.528V354.528C384.376 350.491 392.973 352.544 397.009 359.112V359.112V359.112Z" fill="#E0FFDF"/>
<path d="M451.231 372.002C444.663 376.038 436.066 373.986 432.03 367.417V367.417V367.417C438.598 363.381 447.195 365.433 451.231 372.002V372.002V372.002Z" fill="#E0FFDF"/>
<rect x="477.17" y="356.534" width="59.8713" height="59.8713" rx="29.9357" transform="rotate(119.838 477.17 356.534)" fill="#E0FFDF"/>
<path d="M437.517 385.555C444.687 389.668 447.166 398.815 443.053 405.986V405.986V405.986C435.883 401.873 433.404 392.726 437.517 385.555V385.555V385.555Z" fill="#E0FFDF"/>
<path d="M453.808 367.825C458.254 361.527 466.965 360.027 473.262 364.473V364.473V364.473C468.816 370.771 460.106 372.272 453.808 367.825V367.825V367.825Z" fill="#E0FFDF"/>
<path d="M437.958 345.26C436.593 337.672 441.638 330.415 449.226 329.05V329.05V329.05C450.591 336.637 445.546 343.895 437.958 345.26V345.26V345.26Z" fill="#E0FFDF"/>
<path d="M406.194 391.055C404.83 383.468 409.874 376.21 417.462 374.845V374.845V374.845C418.827 382.433 413.782 389.691 406.194 391.055V391.055V391.055Z" fill="#E0FFDF"/>
<path fill-rule="evenodd" clip-rule="evenodd" d="M480.217 367.378C479.673 371.956 477.845 376.434 474.678 380.243L473.55 381.601C465.961 390.728 453.188 393.003 443.084 387.703C442.652 388.333 442.187 388.948 441.689 389.548L440.56 390.905C431.833 401.401 416.251 402.835 405.755 394.109C398.912 388.42 395.921 379.816 397.086 371.608C393.022 374.291 388.153 375.853 382.92 375.853C379.78 375.853 376.772 375.291 373.99 374.262C374.047 374.771 374.116 375.277 374.196 375.779C370.351 375.41 366.366 376.525 363.176 379.206C366.647 383.338 371.883 385.113 376.854 384.356C381.493 394.149 390.959 401.209 402.18 402.464C402.511 403.445 402.89 404.411 403.315 405.358C400.74 408.598 399.518 412.888 400.309 417.281C403.44 416.718 406.166 415.215 408.249 413.116C410.55 415.786 413.336 418.118 416.568 419.972C421.571 422.842 427.025 424.21 432.407 424.217C433.578 427.894 436.075 431.161 439.687 433.233C441.558 429.971 442.152 426.326 441.626 422.876C448.726 420.759 455.105 416.186 459.377 409.535C459.88 409.559 460.382 409.572 460.884 409.572C462.055 413.25 464.552 416.516 468.163 418.588C470.034 415.326 470.629 411.681 470.103 408.232C477.687 405.97 484.451 400.905 488.699 393.498C491.186 389.163 492.545 384.49 492.868 379.819C495.824 378.86 498.507 376.972 500.438 374.238C497.973 372.498 495.163 371.61 492.358 371.515C491.782 368.543 490.788 365.658 489.4 362.954C486.7 364.991 483.59 366.514 480.217 367.378Z" fill="#E0FFDF"/>
<path d="M426.484 400.827H436.521L444.7 478.954H418.176L426.484 400.827Z" fill="#E0FFDF"/>
<path d="M426.412 400.827H436.592L440.902 442.878H422.077L426.412 400.827Z" fill="#E0FFDF"/>
<path fill-rule="evenodd" clip-rule="evenodd" d="M435.52 422.648C451.216 411.347 453.124 394.367 452.026 386.954L444.935 388.005C445.748 393.496 444.311 407.485 431.332 416.831L435.52 422.648Z" fill="#E0FFDF"/>
<rect x="394.797" y="374.301" width="55.5406" height="55.5406" rx="27.7703" transform="rotate(-37.5969 394.797 374.301)" fill="#E0FFDF"/>
<path d="M439.097 363.556C434.418 357.48 435.551 348.762 441.627 344.083V344.083V344.083C446.305 350.159 445.173 358.877 439.097 363.556V363.556V363.556Z" fill="#E0FFDF"/>
<path d="M418.829 372.945C412.778 376.757 404.783 374.942 400.97 368.891V368.891V368.891C407.022 365.079 415.017 366.894 418.829 372.945V372.945V372.945Z" fill="#E0FFDF"/>
<path d="M424.374 397.917C422.842 404.903 415.937 409.325 408.951 407.793V407.793V407.793C410.483 400.807 417.388 396.386 424.374 397.917V397.917V397.917Z" fill="#E0FFDF"/>
<path d="M467.887 369.994C466.355 376.98 459.45 381.401 452.464 379.87V379.87V379.87C453.996 372.884 460.901 368.462 467.887 369.994V369.994V369.994Z" fill="#E0FFDF"/>
<rect x="396.786" y="319.427" width="43.7126" height="43.7126" rx="21.8563" transform="rotate(8.46442 396.786 319.427)" fill="#E0FFDF"/>
<path d="M427.069 338.665C427.957 332.696 433.517 328.576 439.486 329.465V329.465V329.465C438.598 335.434 433.038 339.554 427.069 338.665V338.665V338.665Z" fill="#E0FFDF"/>
<path d="M410.679 332.307C405.214 330.959 401.876 325.436 403.224 319.971V319.971V319.971C408.689 321.319 412.027 326.842 410.679 332.307V332.307V332.307Z" fill="#E0FFDF"/>
<path d="M399.555 349.087C394.759 352.034 388.482 350.535 385.535 345.74V345.74V345.74C390.331 342.793 396.608 344.291 399.555 349.087V349.087V349.087Z" fill="#E0FFDF"/>
<path d="M439.143 358.498C434.347 361.445 428.07 359.946 425.123 355.15V355.15V355.15C429.919 352.203 436.196 353.702 439.143 358.498V358.498V358.498Z" fill="#E0FFDF"/>
<path d="M33.0819 386.862H51.6861L66.8486 488.291H17.6804L33.0819 386.862Z" fill="#E0FFDF"/>
<path d="M32.9487 386.862H51.4313L59.4673 441.455H24.9127L32.9487 386.862Z" fill="#E0FFDF"/>
<rect x="-31.538" y="323.085" width="81.1078" height="81.1078" rx="40.5539" fill="#E0FFDF"/>
<path d="M29.2928 350.121C29.2928 338.922 38.3711 329.844 49.5698 329.844V329.844V329.844C49.5698 341.042 40.4915 350.121 29.2928 350.121V350.121V350.121Z" fill="#E0FFDF"/>
<path d="M56.8683 383.221C48.8718 389.939 36.9432 388.903 30.2249 380.906V380.906V380.906C38.2214 374.188 50.1501 375.224 56.8683 383.221V383.221V383.221Z" fill="#E0FFDF"/>
<rect x="98.2363" y="375.961" width="81.1078" height="81.1078" rx="40.5539" transform="rotate(119.838 98.2363 375.961)" fill="#E0FFDF"/>
<path d="M44.5183 415.277C54.2324 420.849 57.5904 433.24 52.0185 442.954V442.954V442.954C42.3044 437.383 38.9464 424.991 44.5183 415.277V415.277V415.277Z" fill="#E0FFDF"/>
<path d="M66.5878 391.258C72.6118 382.726 84.4115 380.693 92.9432 386.717V386.717V386.717C86.9193 395.249 75.1196 397.282 66.5878 391.258V391.258V391.258Z" fill="#E0FFDF"/>
<path d="M45.1167 360.689C43.2676 350.41 50.1015 340.578 60.3806 338.729V338.729V338.729C62.2297 349.008 55.3958 358.84 45.1167 360.689V360.689V360.689Z" fill="#E0FFDF"/>
<path d="M2.08605 422.728C0.236994 412.449 7.07089 402.617 17.35 400.768V400.768V400.768C19.199 411.047 12.3651 420.879 2.08605 422.728V422.728V422.728Z" fill="#E0FFDF"/>
<rect x="134.346" y="357.392" width="81.1078" height="81.1078" rx="40.5539" transform="rotate(119.838 134.346 357.392)" fill="#E0FFDF"/>
<path d="M80.6277 396.708C90.3418 402.279 93.6998 414.671 88.128 424.385V424.385V424.385C78.4138 418.813 75.0558 406.422 80.6277 396.708V396.708V396.708Z" fill="#E0FFDF"/>
<path d="M102.697 372.689C108.721 364.157 120.521 362.124 129.053 368.148V368.148V368.148C123.029 376.68 111.229 378.713 102.697 372.689V372.689V372.689Z" fill="#E0FFDF"/>
<path d="M38.1955 404.159C36.3464 393.88 43.1803 384.048 53.4594 382.199V382.199V382.199C55.3085 392.478 48.4746 402.31 38.1955 404.159V404.159V404.159Z" fill="#E0FFDF"/>
<path d="M65.137 297.422C83.3223 307.853 89.6086 331.051 79.1779 349.236V349.236C68.7471 367.422 45.5492 373.708 27.3639 363.277V363.277C9.17856 352.846 2.89224 329.649 13.323 311.463V311.463C23.7538 293.278 46.9517 286.992 65.137 297.422V297.422Z" fill="#E0FFDF"/>
<path d="M49.914 352.627C59.0066 357.843 62.1498 369.442 56.9344 378.534V378.534V378.534C47.8417 373.319 44.6986 361.72 49.914 352.627V352.627V352.627Z" fill="#E0FFDF"/>
<path d="M70.5716 330.145C76.2102 322.159 87.255 320.256 95.2409 325.895V325.895V325.895C89.6024 333.881 78.5576 335.784 70.5716 330.145V330.145V330.145Z" fill="#E0FFDF"/>
<path d="M50.474 301.531C48.7432 291.91 55.1399 282.707 64.7614 280.976V280.976V280.976C66.4921 290.598 60.0954 299.801 50.474 301.531V301.531V301.531Z" fill="#E0FFDF"/>
<path d="M10.1963 359.602C8.4655 349.98 14.8622 340.777 24.4837 339.047V339.047V339.047C26.2144 348.668 19.8177 357.871 10.1963 359.602V359.602V359.602Z" fill="#E0FFDF"/>
<rect x="99.7711" y="345.676" width="75.9189" height="75.9189" rx="37.9594" transform="rotate(119.838 99.7711 345.676)" fill="#E0FFDF"/>
<path d="M49.4898 382.476C58.5824 387.691 61.7256 399.29 56.5102 408.383V408.383V408.383C47.4175 403.168 44.2744 391.569 49.4898 382.476V382.476V382.476Z" fill="#E0FFDF"/>
<path d="M70.1473 359.994C75.7859 352.008 86.8307 350.105 94.8166 355.744V355.744V355.744C89.1781 363.73 78.1333 365.633 70.1473 359.994V359.994V359.994Z" fill="#E0FFDF"/>
<path d="M50.0496 331.38C48.3188 321.759 54.7155 312.556 64.337 310.825V310.825V310.825C66.0678 320.447 59.6711 329.65 50.0496 331.38V331.38V331.38Z" fill="#E0FFDF"/>
<path d="M9.772 389.451C8.04124 379.829 14.4379 370.626 24.0594 368.896V368.896V368.896C25.7902 378.517 19.3935 387.72 9.772 389.451V389.451V389.451Z" fill="#E0FFDF"/>
<path fill-rule="evenodd" clip-rule="evenodd" d="M103.634 359.427C102.945 365.232 100.627 370.91 96.6115 375.74L95.1803 377.461C85.558 389.034 69.3614 391.919 56.5489 385.199C56.0009 385.998 55.4112 386.778 54.7795 387.538L53.3483 389.26C42.2829 402.569 22.5235 404.388 9.21432 393.322C0.537495 386.108 -3.2556 375.199 -1.77868 364.791C-6.93127 368.192 -13.105 370.173 -19.7412 370.173C-23.7222 370.173 -27.5368 369.46 -31.0643 368.155C-30.9923 368.802 -30.9052 369.443 -30.8032 370.08C-35.6784 369.611 -40.7313 371.025 -44.7775 374.425C-40.3754 379.664 -33.7364 381.915 -27.4324 380.955C-21.5505 393.373 -9.54701 402.326 4.68127 403.917C5.10104 405.161 5.58115 406.386 6.12028 407.586C2.85499 411.695 1.30647 417.135 2.30865 422.706C6.27947 421.992 9.73616 420.086 12.3768 417.424C15.2954 420.81 18.8279 423.767 22.9261 426.118C29.2702 429.757 36.1854 431.492 43.0102 431.501C44.4949 436.164 47.6618 440.306 52.2411 442.933C54.6136 438.796 55.3671 434.175 54.7002 429.801C63.7027 427.116 71.7925 421.318 77.2092 412.883C77.8465 412.914 78.4836 412.93 79.1199 412.931C80.6046 417.594 83.7715 421.736 88.3508 424.363C90.7233 420.226 91.4767 415.605 90.8099 411.231C100.427 408.362 109.003 401.941 114.391 392.548C117.544 387.051 119.267 381.126 119.677 375.202C123.426 373.986 126.828 371.592 129.276 368.125C126.151 365.919 122.588 364.794 119.03 364.672C118.3 360.904 117.039 357.245 115.28 353.817C111.856 356.4 107.912 358.332 103.634 359.427Z" fill="#E0FFDF"/>
<rect x="-11.0204" y="358.061" width="70.4273" height="70.4273" rx="35.2137" transform="rotate(-37.5969 -11.0204 358.061)" fill="#E0FFDF"/>
<path d="M45.1531 344.436C39.2205 336.731 40.6569 325.676 48.3614 319.744V319.744V319.744C54.294 327.448 52.8576 338.503 45.1531 344.436V344.436V344.436Z" fill="#E0FFDF"/>
<path d="M19.4536 356.342C11.7806 361.175 1.64164 358.874 -3.19228 351.201V351.201V351.201C4.48079 346.367 14.6197 348.668 19.4536 356.342V356.342V356.342Z" fill="#E0FFDF"/>
<path d="M26.4843 388.008C24.5419 396.866 15.7862 402.472 6.92788 400.53V400.53V400.53C8.87028 391.672 17.626 386.065 26.4843 388.008V388.008V388.008Z" fill="#E0FFDF"/>
<path d="M81.6597 352.6C79.7173 361.458 70.9616 367.065 62.1033 365.122V365.122V365.122C64.0457 356.264 72.8014 350.658 81.6597 352.6V352.6V352.6Z" fill="#E0FFDF"/>
<rect x="1.703" y="315.724" width="46.5029" height="46.5029" rx="23.2515" transform="rotate(-28.4045 1.703 315.724)" fill="#E0FFDF"/>
<path d="M37.3383 309.726C36.1189 303.033 40.5557 296.62 47.2481 295.4V295.4V295.4C48.4675 302.093 44.0307 308.506 37.3383 309.726V309.726V309.726Z" fill="#E0FFDF"/>
<path d="M22.9903 339.2C20.7898 344.769 14.4913 347.5 8.92221 345.299V345.299V345.299C11.1227 339.73 17.4212 336.999 22.9903 339.2V339.2V339.2Z" fill="#E0FFDF"/>
</svg>
