<svg width="160" height="160" viewBox="0 0 160 160" fill="none" xmlns="http://www.w3.org/2000/svg">
<path fill-rule="evenodd" clip-rule="evenodd" d="M0 0L160 2.74119e-08L160 160L-2.7412e-08 160L0 0ZM70.9567 57.913L65.7393 57.913L65.7393 76L61.0436 76L61.0436 57.913L55.8263 57.913L55.8263 53.913L70.9567 53.913L70.9567 57.913ZM68.8693 113.913L77.0432 91.6523L71.9997 91.6523L66.2606 108.522L60.5214 91.6523L55.6519 91.6523L63.8258 113.913L68.8693 113.913ZM105.217 95.8258L99.9995 95.8258L99.9995 113.913L95.4778 113.913L95.4778 95.8258L90.2604 95.8258L90.2604 91.8258L105.391 91.8258L105.391 95.8258L105.217 95.8258ZM89.2167 72.0004L106.086 72.0004L106.086 76.0004L89.2167 76.0004L89.2167 72.0004Z" fill="black"/>
</svg>
