<svg width="181" height="601" viewBox="0 0 181 601" fill="none" xmlns="http://www.w3.org/2000/svg">
<path d="M26.2975 335.78H64.7812L96.1456 635.355H-5.56152L26.2975 335.78Z" fill="#93642D"/>
<path d="M26.0214 335.78H64.2538L80.8766 497.021H9.39862L26.0214 335.78Z" fill="#714D22"/>
<path d="M160.891 469.655C199.255 473.522 173.837 427.385 155.292 386.359C136.747 345.332 96.625 268.156 35.0401 268.156C-15.4251 268.156 -111.052 449.243 -88.6578 466.281C-70.7422 479.911 -28.6879 469.216 -0.694824 447.761C7.70309 466.692 20.3828 475.553 40.5378 477.067C60.6928 478.582 72.4479 464.799 88.3107 447.761C93.9093 454.071 127.421 466.281 160.891 469.655Z" fill="#66A865"/>
<path fill-rule="evenodd" clip-rule="evenodd" d="M153.656 381.769C130.531 336.255 90.5555 275.938 33.8064 275.938C4.61793 275.938 -38.4763 331.696 -68.7278 386.639C-48.1386 384.556 -23.6975 374.65 -5.01867 360.333C4.10547 380.901 19.0843 402.288 40.9822 403.934C62.8801 405.579 79.2146 384.12 91.6835 360.333C96.8186 366.121 123.567 376.477 153.656 381.769Z" fill="#458244"/>
<path d="M160.891 365.408C197.607 377.184 173.837 323.138 155.292 282.112C136.747 241.085 96.625 163.909 35.0401 163.909C-15.4251 163.909 -111.052 344.996 -88.6578 362.034C-70.7422 375.665 -28.6879 342.257 -0.694809 320.802C7.70311 339.733 20.3828 371.306 40.5378 372.821C60.6928 374.335 72.448 337.84 88.3107 320.802C93.9093 327.112 127.421 354.673 160.891 365.408Z" fill="#83C082"/>
<path fill-rule="evenodd" clip-rule="evenodd" d="M136.347 239.945C145.233 258.868 151.736 272.719 150.693 272.614C122.248 269.756 89.2683 257.199 84.5102 251.854C74.7569 270.397 59.7734 282.208 42.6445 280.925C25.5157 279.642 9.88676 265.376 2.74973 249.342C-21.0403 267.513 -65.1787 274.276 -62.0787 269.289C-56.7769 260.76 -51.822 251.337 -47.1053 241.43C-18.7368 195.992 15.8144 156.254 40.4554 156.254C70.2271 156.254 95.3821 172.855 115.91 195.21C116.967 197.875 118.029 200.416 119.11 202.798C124.975 215.73 131.079 228.729 136.347 239.945Z" fill="#458244"/>
<path d="M149.03 242.693C175.626 251.834 155.779 204.676 140.719 171.215C125.658 137.753 87.6537 84.9899 37.7662 81.4435C-8.8862 78.1271 -85.2527 223.81 -67.0661 237.706C-52.5168 248.823 -13.9876 226.906 8.74569 209.407C15.5657 224.848 25.8629 250.599 42.2309 251.834C58.5989 253.07 68.1452 223.304 81.0275 209.407C85.5741 214.554 125.315 234.541 149.03 242.693Z" fill="#66A865"/>
<path fill-rule="evenodd" clip-rule="evenodd" d="M127.574 146.007C132.988 155.558 136.302 161.404 135.732 161.241C134.498 160.888 132.976 160.463 131.236 159.977C116.566 155.877 86.3144 147.422 80.8769 141.294C77.5543 145.46 74.5534 149.333 71.806 152.878C59.6375 168.58 52.4434 177.864 44.3066 177.864C34.0914 177.864 28.0171 169.085 20.2887 157.915C16.6668 152.681 12.6816 146.921 7.73665 141.294C-22.6771 164.604 -43.794 162.903 -43.794 162.903C-43.794 162.903 -32.5614 121.286 -12.8856 83.6465C5.02912 63.3763 22.7645 49.8682 37.1311 49.8682C54.7955 49.8682 70.8347 55.7123 85.2464 65.135C85.4515 65.5823 85.6572 66.0343 85.8637 66.4911C99.1047 95.7837 117.197 127.701 127.574 146.007Z" fill="#458244"/>
<path d="M123.977 137.838C146.483 150.788 132.651 108.923 120.226 80.8581C107.801 52.7936 80.9199 -1.2587e-05 39.6589 7.17306e-06C5.84793 2.33653e-05 -58.2209 123.875 -43.217 135.53C-31.2138 144.854 -3.03796 122.001 15.717 107.324C21.3435 120.274 29.8387 141.872 43.3423 142.908C56.8459 143.944 64.7216 118.979 75.3494 107.324C79.1004 111.641 105.972 127.478 123.977 137.838Z" fill="#83C082"/>
</svg>
