<svg width="100" height="190" viewBox="0 0 100 190" fill="none" xmlns="http://www.w3.org/2000/svg">
<path d="M43.033 96.1642H57.0323L68.4417 205.14H31.4437L43.033 96.1642Z" fill="#93642D"/>
<path d="M42.9327 96.1642H56.8405L62.8873 154.819H36.8858L42.9327 96.1642Z" fill="#714D22"/>
<path d="M91.9939 144.864C105.95 146.27 96.7034 129.487 89.9573 114.563C83.2112 99.6389 68.616 71.5643 46.2133 71.5643C27.8556 71.5643 -6.93067 137.439 1.21576 143.636C7.7329 148.595 23.031 144.704 33.214 136.899C36.2689 143.786 40.8814 147.009 48.2132 147.56C55.545 148.111 59.8211 143.097 65.5915 136.899C67.6281 139.195 79.8186 143.636 91.9939 144.864Z" fill="#83C082"/>
<path fill-rule="evenodd" clip-rule="evenodd" d="M89.3622 112.893C80.9499 96.3368 66.4081 74.3955 45.7646 74.3955C35.1467 74.3955 19.4703 94.6786 8.46573 114.665C15.9555 113.907 24.8464 110.304 31.6412 105.096C34.9603 112.578 40.4091 120.358 48.3749 120.956C56.3407 121.555 62.2827 113.749 66.8185 105.096C68.6865 107.201 78.4168 110.969 89.3622 112.893Z" fill="#458244"/>
<path d="M91.9939 106.942C105.35 111.225 96.7034 91.5653 89.9573 76.6411C83.2112 61.717 68.616 33.6424 46.2133 33.6425C27.8556 33.6425 -6.93067 99.5167 1.21576 105.715C7.7329 110.673 23.031 98.5201 33.214 90.7154C36.2689 97.6019 40.8814 109.087 48.2132 109.638C55.545 110.189 59.8211 96.9133 65.5915 90.7154C67.6281 93.0109 79.8186 103.037 91.9939 106.942Z" fill="#66A865"/>
<path fill-rule="evenodd" clip-rule="evenodd" d="M83.0658 61.3024C86.2983 68.186 88.6642 73.2242 88.2845 73.1861C77.9373 72.1467 65.9402 67.5787 64.2093 65.6345C60.6614 72.3798 55.2108 76.6761 48.9799 76.2095C42.7489 75.7429 37.0636 70.5531 34.4674 64.7205C25.8132 71.3307 9.75707 73.7908 10.8847 71.9767C12.8133 68.8742 14.6158 65.4462 16.3315 61.8425C26.6512 45.3134 39.2199 30.8581 48.1835 30.8581C59.0136 30.8581 68.1642 36.8969 75.6315 45.029C76.0162 45.9985 76.4025 46.9226 76.7956 47.7893C78.9292 52.4934 81.1497 57.2221 83.0658 61.3024Z" fill="#458244"/>
<path d="M87.6794 62.3017C97.3544 65.6272 90.1345 48.4725 84.656 36.3002C79.1775 24.1279 68.3365 1.30912 50.1889 0.0190377C33.2182 -1.18738 2.45449 55.4326 9.07023 60.4877C14.3628 64.5317 28.3786 56.5591 36.6482 50.1935C39.1291 55.8102 42.875 65.1779 48.8292 65.6272C54.7833 66.0765 58.256 55.2486 62.9422 50.1935C64.5961 52.0658 79.0525 59.3365 87.6794 62.3017Z" fill="#83C082"/>
</svg>
