<svg width="221" height="369" viewBox="0 0 221 369" fill="none" xmlns="http://www.w3.org/2000/svg">
<path d="M105.91 226.656H124.893L140.364 374.427H90.1946L105.91 226.656Z" fill="#93642D"/>
<path d="M105.774 226.656H124.633L132.832 306.191H97.5742L105.774 226.656Z" fill="#714D22"/>
<path fill-rule="evenodd" clip-rule="evenodd" d="M31.3391 156.917C31.3391 134.889 49.1966 117.031 71.2251 117.031C93.2535 117.031 111.111 134.889 111.111 156.917V159.766C111.111 161.263 111.029 162.741 110.868 164.195C127.469 169.02 139.601 184.344 139.601 202.501V205.35C139.601 227.379 121.744 245.236 99.7152 245.236C87.8023 245.236 77.1092 240.014 69.8007 231.733C62.4921 240.014 51.799 245.236 39.8861 245.236C17.8577 245.236 8.27633e-05 227.379 8.27633e-05 205.35V202.501C8.27633e-05 183.345 13.5038 167.344 31.5111 163.496C31.3973 162.268 31.3391 161.024 31.3391 159.766V156.917Z" fill="#66A865"/>
<path fill-rule="evenodd" clip-rule="evenodd" d="M121.019 278.589C107.499 294.851 83.3562 297.073 67.0947 283.553C50.8332 270.033 48.6108 245.89 62.1309 229.629L63.8794 227.526C64.7983 226.421 65.7662 225.38 66.7773 224.405C57.4841 210.655 57.9326 191.897 69.0767 178.493L70.8253 176.39C84.3454 160.128 108.488 157.906 124.75 171.426C133.544 178.737 138.232 189.156 138.545 199.754C149.022 198.127 160.122 200.835 168.916 208.146C185.177 221.666 187.4 245.809 173.88 262.071L172.131 264.174C160.374 278.315 140.584 281.839 124.93 273.627C124.26 274.604 123.539 275.558 122.768 276.486L121.019 278.589Z" fill="#66A865"/>
<path fill-rule="evenodd" clip-rule="evenodd" d="M111.459 143.734C111.459 121.643 129.698 103.736 151.789 103.736C173.879 103.736 192.118 121.643 192.118 143.734V147.277C192.118 148.682 192.044 150.07 191.9 151.438C208.579 156.307 220.924 171.65 220.924 189.824V193.368C220.924 215.458 202.685 233.365 180.595 233.365C168.615 233.365 157.768 228.099 150.348 219.754C142.929 228.099 132.081 233.365 120.101 233.365C98.0112 233.365 79.7722 215.458 79.7722 193.368V189.824C79.7722 170.643 93.5243 154.615 111.609 150.726C111.51 149.59 111.459 148.439 111.459 147.277V143.734Z" fill="#66A865"/>
<path fill-rule="evenodd" clip-rule="evenodd" d="M96.7713 87.0489C96.7713 64.9587 115.01 47.0511 137.101 47.0511C159.191 47.0511 177.43 64.9587 177.43 87.0489V90.5923C177.43 91.9975 177.356 93.3857 177.212 94.7534C193.891 99.6221 206.236 114.965 206.236 133.139V136.683C206.236 158.773 187.997 176.681 165.907 176.681C153.927 176.681 143.08 171.414 135.66 163.069C128.241 171.414 117.393 176.681 105.413 176.681C83.3232 176.681 65.0841 158.773 65.0841 136.683V133.139C65.0841 113.958 78.8363 97.9299 96.9206 94.0416C96.8218 92.9048 96.7713 91.7543 96.7713 90.5923V87.0489Z" fill="#66A865"/>
<path fill-rule="evenodd" clip-rule="evenodd" d="M39.1191 103.956C39.1191 85.6807 53.9343 70.8655 72.2098 70.8655C90.4852 70.8655 105.3 85.6807 105.3 103.956V106.32C105.3 107.562 105.232 108.788 105.099 109.994C118.871 113.997 128.937 126.71 128.937 141.774V144.138C128.937 162.413 114.121 177.228 95.846 177.228C85.9627 177.228 77.0914 172.895 71.028 166.026C64.9646 172.895 56.0932 177.228 46.2099 177.228C27.9345 177.228 13.1193 162.413 13.1193 144.138V141.774C13.1193 125.882 24.3224 112.606 39.2619 109.414C39.1674 108.395 39.1191 107.363 39.1191 106.32V103.956Z" fill="#66A865"/>
<path fill-rule="evenodd" clip-rule="evenodd" d="M145.437 72.0636C157.989 85.3469 157.396 106.29 144.112 118.842C130.829 131.394 109.886 130.801 97.3338 117.518L95.7105 115.8C94.8574 114.897 94.0651 113.959 93.3334 112.99C80.5739 119.54 64.5265 117.213 54.1806 106.264L52.5572 104.546C40.0054 91.2624 40.5984 70.319 53.8817 57.7672C61.0653 50.9793 70.4892 48.0357 79.6145 48.8645C79.3034 39.7069 82.7755 30.4647 89.9591 23.6767C103.242 11.1249 124.186 11.718 136.738 25.0012L138.361 26.7192C149.276 38.2703 150.251 55.6139 141.585 68.1947C142.353 68.8703 143.097 69.5873 143.813 70.3456L145.437 72.0636Z" fill="#83C082"/>
<path fill-rule="evenodd" clip-rule="evenodd" d="M217.362 174.171C211.471 182.853 202.248 189.132 191.586 191.204C190.37 197.21 187.691 203.011 183.499 208.054L181.75 210.157C169.993 224.298 150.204 227.822 134.549 219.611C133.879 220.587 133.159 221.541 132.387 222.47L130.638 224.573C117.118 240.834 92.9755 243.057 76.714 229.537C67.1938 221.621 62.4854 210.065 62.9307 198.581C57.1045 201.911 50.3575 203.815 43.1659 203.815C27.1323 203.815 13.3083 194.354 6.97166 180.711C2.57353 187.122 9.15527e-05 194.883 9.15527e-05 203.246V206.095C9.15527e-05 228.123 17.8577 245.981 39.8861 245.981C45.3008 245.981 50.4635 244.902 55.171 242.947C50.4391 257.429 54.6671 273.965 67.0947 284.298C83.3562 297.818 107.499 295.596 121.019 279.334L122.768 277.231C123.539 276.303 124.26 275.348 124.93 274.372C140.584 282.584 160.374 279.059 172.131 264.918L173.88 262.815C180.815 254.473 183.608 244.058 182.488 234.066C203.718 233.078 220.925 215.568 220.925 194.112V190.569C220.925 184.726 219.648 179.175 217.362 174.171Z" fill="#458244"/>
</svg>
