<svg width="79" height="137" viewBox="0 0 79 137" fill="none" xmlns="http://www.w3.org/2000/svg">
<path d="M34.0128 76.007H45.0776L54.0954 162.14H24.8527L34.0128 76.007Z" fill="#93642D"/>
<path d="M33.9334 76.007H44.926L49.7053 122.367H29.1541L33.9334 76.007Z" fill="#714D22"/>
<path d="M72.7109 114.498C83.7414 115.61 76.4332 102.345 71.1011 90.5491C65.7691 78.7533 54.2332 56.5635 36.5264 56.5635C22.0167 56.5635 -5.47789 108.63 0.960942 113.528C6.11201 117.447 18.2034 114.372 26.252 108.204C28.6665 113.647 32.3122 116.194 38.1071 116.63C43.9021 117.065 47.2819 113.102 51.8427 108.204C53.4524 110.018 63.0876 113.528 72.7109 114.498Z" fill="#83C082"/>
<path fill-rule="evenodd" clip-rule="evenodd" d="M70.6307 89.2295C63.9817 76.1433 52.4881 58.8012 36.1717 58.8013C27.7795 58.8013 15.3891 74.8328 6.6912 90.63C12.611 90.031 19.6383 87.1826 25.0088 83.0664C27.6321 88.9801 31.9388 95.1293 38.2349 95.6024C44.531 96.0755 49.2274 89.9056 52.8125 83.0664C54.2889 84.7306 61.9797 87.7081 70.6307 89.2295Z" fill="#458244"/>
<path d="M72.7109 84.5255C83.2676 87.9113 76.4332 72.3721 71.1011 60.5762C65.7691 48.7804 54.2332 26.5906 36.5264 26.5906C22.0167 26.5906 -5.47789 78.6568 0.960942 83.5555C6.11201 87.4745 18.2034 77.8691 26.252 71.7004C28.6665 77.1434 32.3122 86.2213 38.1071 86.6568C43.9021 87.0922 47.2819 76.5991 51.8427 71.7004C53.4524 73.5147 63.0876 81.4391 72.7109 84.5255Z" fill="#66A865"/>
<path fill-rule="evenodd" clip-rule="evenodd" d="M65.6541 48.4526C68.209 53.8933 70.079 57.8756 69.779 57.8454C61.6006 57.0239 52.1182 53.4134 50.7502 51.8767C47.9459 57.2082 43.6379 60.6039 38.713 60.2351C33.7882 59.8663 29.2946 55.7643 27.2425 51.1543C20.4024 56.379 7.71183 58.3234 8.60313 56.8896C10.1274 54.4376 11.5519 51.7283 12.9079 48.8802C21.0645 35.8156 30.9989 24.3898 38.0838 24.3898C46.6435 24.3898 53.876 29.1627 59.778 35.59C60.0821 36.3565 60.3875 37.087 60.6982 37.7721C62.3846 41.4901 64.1397 45.2276 65.6541 48.4526Z" fill="#458244"/>
<path d="M69.3007 49.2425C76.9477 51.8709 71.2412 38.312 66.9111 28.6912C62.5809 19.0704 54.0123 1.03469 39.6687 0.015023C26.2553 -0.938518 1.94003 43.8132 7.16903 47.8087C11.3522 51.005 22.4301 44.7036 28.9663 39.6723C30.9272 44.1117 33.8879 51.5157 38.594 51.8709C43.3001 52.226 46.0448 43.6678 49.7487 39.6723C51.056 41.1521 62.4821 46.8988 69.3007 49.2425Z" fill="#83C082"/>
</svg>
