<svg width="88" height="238" viewBox="0 0 88 238" fill="none" xmlns="http://www.w3.org/2000/svg">
<rect x="31.0245" y="144.296" width="24.3018" height="114.566" fill="#93642D"/>
<rect x="31.0896" y="101.938" width="24.3018" height="114.566" fill="#714D22"/>
<rect x="0.050415" y="99.4801" width="87.9496" height="87.9496" rx="43.9748" fill="#83C082"/>
<rect x="4.47821" y="43.4742" width="80.4856" height="80.4856" rx="40.2428" fill="#66A865"/>
<rect x="10.3806" width="68.067" height="68.067" rx="34.0335" fill="#83C082"/>
<path fill-rule="evenodd" clip-rule="evenodd" d="M0.321397 138.699C0.10921 140.45 0 142.233 0 144.042C0 168.329 19.6882 188.017 43.9748 188.017C68.2614 188.017 87.9496 168.329 87.9496 144.042C87.9496 142.233 87.8403 140.45 87.6282 138.699C84.9914 160.465 66.4525 177.33 43.9748 177.33C21.497 177.33 2.95819 160.465 0.321397 138.699Z" fill="#679A66"/>
</svg>
