<svg width="118" height="266" viewBox="0 0 118 266" fill="none" xmlns="http://www.w3.org/2000/svg">
<rect x="47.9593" y="150.39" width="26.297" height="123.972" fill="#93642D"/>
<rect x="48.0298" y="104.555" width="26.297" height="123.972" fill="#714D22"/>
<path d="M118 154.691C118 187.125 91.707 213.418 59.273 213.418C26.8389 213.418 0.545898 187.125 0.545898 154.691C0.545898 122.257 26.8389 56.8129 59.2729 56.8129C91.707 56.8129 118 122.257 118 154.691Z" fill="#66A865"/>
<path fill-rule="evenodd" clip-rule="evenodd" d="M116.221 140.925C110.67 167.589 87.0382 187.622 58.7271 187.622C30.4159 187.622 6.78375 167.589 1.23317 140.925C0.424855 145.912 0 150.569 0 154.691C0 187.126 26.293 213.419 58.7271 213.419C91.1611 213.419 117.454 187.126 117.454 154.691C117.454 150.569 117.029 145.912 116.221 140.925Z" fill="#458244"/>
<path d="M108.39 79.4989C108.39 105.843 86.6152 127.198 59.755 127.198C32.8948 127.198 11.1203 105.843 11.1203 79.4989C11.1203 53.1553 32.8948 -9.15527e-05 59.755 -9.15527e-05C86.6152 -9.15527e-05 108.39 53.1553 108.39 79.4989Z" fill="#83C082"/>
</svg>
