<svg width="914" height="87" viewBox="0 0 914 87" fill="none" xmlns="http://www.w3.org/2000/svg">
<g filter="url(#filter0_b_1_2097)">
<path d="M62.3191 1.24V14.8H39.9991V85H23.1991V14.8H0.879063V1.24H62.3191ZM91.3769 28.84C93.5369 25.32 96.3369 22.56 99.7769 20.56C103.297 18.56 107.297 17.56 111.777 17.56V35.2H107.337C102.057 35.2 98.0569 36.44 95.3369 38.92C92.6969 41.4 91.3769 45.72 91.3769 51.88V85H74.5769V18.52H91.3769V28.84ZM184.893 50.32C184.893 52.72 184.733 54.88 184.413 56.8H135.813C136.213 61.6 137.893 65.36 140.853 68.08C143.813 70.8 147.453 72.16 151.773 72.16C158.013 72.16 162.453 69.48 165.093 64.12H183.213C181.293 70.52 177.613 75.8 172.173 79.96C166.733 84.04 160.053 86.08 152.133 86.08C145.733 86.08 139.973 84.68 134.853 81.88C129.813 79 125.853 74.96 122.973 69.76C120.173 64.56 118.772 58.56 118.772 51.76C118.772 44.88 120.173 38.84 122.973 33.64C125.773 28.44 129.693 24.44 134.733 21.64C139.773 18.84 145.573 17.44 152.133 17.44C158.453 17.44 164.093 18.8 169.053 21.52C174.093 24.24 177.973 28.12 180.693 33.16C183.493 38.12 184.893 43.84 184.893 50.32ZM167.493 45.52C167.413 41.2 165.853 37.76 162.813 35.2C159.773 32.56 156.053 31.24 151.653 31.24C147.493 31.24 143.973 32.52 141.093 35.08C138.293 37.56 136.573 41.04 135.933 45.52H167.493ZM258.955 50.32C258.955 52.72 258.795 54.88 258.475 56.8H209.875C210.275 61.6 211.955 65.36 214.915 68.08C217.875 70.8 221.515 72.16 225.835 72.16C232.075 72.16 236.515 69.48 239.155 64.12H257.275C255.355 70.52 251.675 75.8 246.235 79.96C240.795 84.04 234.115 86.08 226.195 86.08C219.795 86.08 214.035 84.68 208.915 81.88C203.875 79 199.915 74.96 197.035 69.76C194.235 64.56 192.835 58.56 192.835 51.76C192.835 44.88 194.235 38.84 197.035 33.64C199.835 28.44 203.755 24.44 208.795 21.64C213.835 18.84 219.635 17.44 226.195 17.44C232.515 17.44 238.155 18.8 243.115 21.52C248.155 24.24 252.035 28.12 254.755 33.16C257.555 38.12 258.955 43.84 258.955 50.32ZM241.555 45.52C241.475 41.2 239.915 37.76 236.875 35.2C233.835 32.56 230.115 31.24 225.715 31.24C221.555 31.24 218.035 32.52 215.155 35.08C212.355 37.56 210.635 41.04 209.995 45.52H241.555ZM375.051 1.24L344.331 85H323.931L293.211 1.24H311.211L334.251 67.84L357.171 1.24H375.051ZM446.924 50.32C446.924 52.72 446.764 54.88 446.444 56.8H397.844C398.244 61.6 399.924 65.36 402.884 68.08C405.844 70.8 409.484 72.16 413.804 72.16C420.044 72.16 424.484 69.48 427.124 64.12H445.244C443.324 70.52 439.644 75.8 434.204 79.96C428.764 84.04 422.084 86.08 414.164 86.08C407.764 86.08 402.004 84.68 396.884 81.88C391.844 79 387.884 74.96 385.004 69.76C382.204 64.56 380.804 58.56 380.804 51.76C380.804 44.88 382.204 38.84 385.004 33.64C387.804 28.44 391.724 24.44 396.764 21.64C401.804 18.84 407.604 17.44 414.164 17.44C420.484 17.44 426.124 18.8 431.084 21.52C436.124 24.24 440.004 28.12 442.724 33.16C445.524 38.12 446.924 43.84 446.924 50.32ZM429.524 45.52C429.444 41.2 427.884 37.76 424.844 35.2C421.804 32.56 418.084 31.24 413.684 31.24C409.524 31.24 406.004 32.52 403.124 35.08C400.324 37.56 398.604 41.04 397.964 45.52H429.524ZM454.866 51.76C454.866 44.88 456.266 38.88 459.066 33.76C461.866 28.56 465.746 24.56 470.706 21.76C475.666 18.88 481.346 17.44 487.746 17.44C495.986 17.44 502.786 19.52 508.146 23.68C513.586 27.76 517.226 33.52 519.066 40.96H500.946C499.986 38.08 498.346 35.84 496.026 34.24C493.786 32.56 490.986 31.72 487.626 31.72C482.826 31.72 479.026 33.48 476.226 37C473.426 40.44 472.026 45.36 472.026 51.76C472.026 58.08 473.426 63 476.226 66.52C479.026 69.96 482.826 71.68 487.626 71.68C494.426 71.68 498.866 68.64 500.946 62.56H519.066C517.226 69.76 513.586 75.48 508.146 79.72C502.706 83.96 495.906 86.08 487.746 86.08C481.346 86.08 475.666 84.68 470.706 81.88C465.746 79 461.866 75 459.066 69.88C456.266 64.68 454.866 58.64 454.866 51.76ZM550.934 32.32V64.48C550.934 66.72 551.454 68.36 552.494 69.4C553.614 70.36 555.454 70.84 558.014 70.84H565.814V85H555.254C541.094 85 534.014 78.12 534.014 64.36V32.32H526.094V18.52H534.014V2.07999H550.934V18.52H565.814V32.32H550.934ZM607.417 86.08C601.017 86.08 595.257 84.68 590.137 81.88C585.017 79 580.977 74.96 578.017 69.76C575.137 64.56 573.697 58.56 573.697 51.76C573.697 44.96 575.177 38.96 578.137 33.76C581.177 28.56 585.297 24.56 590.497 21.76C595.697 18.88 601.497 17.44 607.897 17.44C614.297 17.44 620.097 18.88 625.297 21.76C630.497 24.56 634.577 28.56 637.537 33.76C640.577 38.96 642.097 44.96 642.097 51.76C642.097 58.56 640.537 64.56 637.417 69.76C634.377 74.96 630.217 79 624.937 81.88C619.737 84.68 613.897 86.08 607.417 86.08ZM607.417 71.44C610.457 71.44 613.297 70.72 615.937 69.28C618.657 67.76 620.817 65.52 622.417 62.56C624.017 59.6 624.817 56 624.817 51.76C624.817 45.44 623.137 40.6 619.777 37.24C616.497 33.8 612.457 32.08 607.657 32.08C602.857 32.08 598.817 33.8 595.537 37.24C592.337 40.6 590.737 45.44 590.737 51.76C590.737 58.08 592.297 62.96 595.417 66.4C598.617 69.76 602.617 71.44 607.417 71.44ZM671.221 28.84C673.381 25.32 676.181 22.56 679.621 20.56C683.141 18.56 687.141 17.56 691.621 17.56V35.2H687.181C681.901 35.2 677.901 36.44 675.181 38.92C672.541 41.4 671.221 45.72 671.221 51.88V85H654.421V18.52H671.221V28.84ZM760.45 85.84C754.61 85.84 749.33 84.84 744.61 82.84C739.97 80.84 736.29 77.96 733.57 74.2C730.85 70.44 729.45 66 729.37 60.88H747.37C747.61 64.32 748.81 67.04 750.97 69.04C753.21 71.04 756.25 72.04 760.09 72.04C764.01 72.04 767.09 71.12 769.33 69.28C771.57 67.36 772.69 64.88 772.69 61.84C772.69 59.36 771.93 57.32 770.41 55.72C768.89 54.12 766.97 52.88 764.65 52C762.41 51.04 759.29 50 755.29 48.88C749.85 47.28 745.41 45.72 741.97 44.2C738.61 42.6 735.69 40.24 733.21 37.12C730.81 33.92 729.61 29.68 729.61 24.4C729.61 19.44 730.85 15.12 733.33 11.44C735.81 7.76 739.29 4.96 743.77 3.04C748.25 1.04 753.37 0.0399995 759.13 0.0399995C767.77 0.0399995 774.77 2.16 780.13 6.4C785.57 10.56 788.57 16.4 789.13 23.92H770.65C770.49 21.04 769.25 18.68 766.93 16.84C764.69 14.92 761.69 13.96 757.93 13.96C754.65 13.96 752.01 14.8 750.01 16.48C748.09 18.16 747.13 20.6 747.13 23.8C747.13 26.04 747.85 27.92 749.29 29.44C750.81 30.88 752.65 32.08 754.81 33.04C757.05 33.92 760.17 34.96 764.17 36.16C769.61 37.76 774.05 39.36 777.49 40.96C780.93 42.56 783.89 44.96 786.37 48.16C788.85 51.36 790.09 55.56 790.09 60.76C790.09 65.24 788.93 69.4 786.61 73.24C784.29 77.08 780.89 80.16 776.41 82.48C771.93 84.72 766.61 85.84 760.45 85.84ZM866.455 50.32C866.455 52.72 866.295 54.88 865.975 56.8H817.375C817.775 61.6 819.455 65.36 822.415 68.08C825.375 70.8 829.015 72.16 833.335 72.16C839.575 72.16 844.015 69.48 846.655 64.12H864.775C862.855 70.52 859.175 75.8 853.735 79.96C848.295 84.04 841.615 86.08 833.695 86.08C827.295 86.08 821.535 84.68 816.415 81.88C811.375 79 807.415 74.96 804.535 69.76C801.735 64.56 800.335 58.56 800.335 51.76C800.335 44.88 801.735 38.84 804.535 33.64C807.335 28.44 811.255 24.44 816.295 21.64C821.335 18.84 827.135 17.44 833.695 17.44C840.015 17.44 845.655 18.8 850.615 21.52C855.655 24.24 859.535 28.12 862.255 33.16C865.055 38.12 866.455 43.84 866.455 50.32ZM849.055 45.52C848.975 41.2 847.415 37.76 844.375 35.2C841.335 32.56 837.615 31.24 833.215 31.24C829.055 31.24 825.535 32.52 822.655 35.08C819.855 37.56 818.135 41.04 817.495 45.52H849.055ZM898.278 32.32V64.48C898.278 66.72 898.798 68.36 899.838 69.4C900.958 70.36 902.798 70.84 905.358 70.84H913.158V85H902.598C888.438 85 881.358 78.12 881.358 64.36V32.32H873.438V18.52H881.358V2.07999H898.278V18.52H913.158V32.32H898.278Z" fill="white"/>
</g>
<defs>
<filter id="filter0_b_1_2097" x="-3.12094" y="-3.96001" width="920.278" height="94.04" filterUnits="userSpaceOnUse" color-interpolation-filters="sRGB">
<feFlood flood-opacity="0" result="BackgroundImageFix"/>
<feGaussianBlur in="BackgroundImageFix" stdDeviation="2"/>
<feComposite in2="SourceAlpha" operator="in" result="effect1_backgroundBlur_1_2097"/>
<feBlend mode="normal" in="SourceGraphic" in2="effect1_backgroundBlur_1_2097" result="shape"/>
</filter>
</defs>
</svg>
