<svg width="126" height="305" viewBox="0 0 126 305" fill="none" xmlns="http://www.w3.org/2000/svg">
<path d="M85.8962 152.523H113.84L136.613 304.869H62.7632L85.8962 152.523Z" fill="#93642D"/>
<path d="M85.696 152.523H113.457L125.527 234.521H73.6261L85.696 152.523Z" fill="#714D22"/>
<path d="M183.625 222.446C211.482 225.254 193.026 191.754 179.56 161.964C166.095 132.175 136.962 76.1365 92.2445 76.1366C55.6014 76.1366 -13.834 207.625 2.42678 219.997C15.4354 229.894 45.9713 222.128 66.2972 206.549C72.395 220.295 81.6018 226.729 96.2364 227.829C110.871 228.928 119.407 218.92 130.925 206.549C134.99 211.131 159.323 219.997 183.625 222.446Z" fill="#66A865"/>
<path fill-rule="evenodd" clip-rule="evenodd" d="M178.372 158.632C161.58 125.584 132.554 81.7877 91.3484 81.7877C70.1545 81.7877 38.8635 122.274 16.8977 162.169C31.8476 160.656 49.5945 153.463 63.1573 143.067C69.7824 158.002 80.6586 173.531 96.5588 174.726C112.459 175.921 124.32 160.339 133.373 143.067C137.102 147.27 156.524 154.79 178.372 158.632Z" fill="#458244"/>
<path d="M183.625 146.752C210.285 155.303 193.026 116.06 179.56 86.2704C166.095 56.481 136.962 0.442545 92.2445 0.442566C55.6014 0.442583 -13.834 131.931 2.42678 144.303C15.4354 154.2 45.9713 129.942 66.2972 114.364C72.395 128.109 81.6018 151.035 96.2364 152.135C110.871 153.234 119.407 126.735 130.925 114.364C134.99 118.945 159.323 138.958 183.625 146.752Z" fill="#66A865"/>
</svg>
