<svg width="117" height="192" viewBox="0 0 117 192" fill="none" xmlns="http://www.w3.org/2000/svg">
<path d="M14.0819 120.539H32.6861L47.8486 221.968H-1.31964L14.0819 120.539Z" fill="#93642D"/>
<path d="M13.9487 120.539H32.4313L40.4673 175.132H5.91272L13.9487 120.539Z" fill="#714D22"/>
<rect x="-50.538" y="56.7616" width="81.1078" height="81.1078" rx="40.5539" fill="#66A865"/>
<path d="M10.2928 83.7976C10.2928 72.599 19.3711 63.5207 30.5698 63.5207V63.5207V63.5207C30.5698 74.7193 21.4915 83.7976 10.2928 83.7976V83.7976V83.7976Z" fill="#66A865"/>
<path d="M37.8683 116.898C29.8718 123.616 17.9432 122.58 11.2249 114.583V114.583V114.583C19.2214 107.865 31.1501 108.901 37.8683 116.898V116.898V116.898Z" fill="#66A865"/>
<rect x="79.2364" y="109.639" width="81.1078" height="81.1078" rx="40.5539" transform="rotate(119.838 79.2364 109.639)" fill="#66A865"/>
<path d="M25.5184 148.954C35.2325 154.526 38.5905 166.918 33.0186 176.632V176.632V176.632C23.3045 171.06 19.9465 158.668 25.5184 148.954V148.954V148.954Z" fill="#66A865"/>
<path d="M47.5879 124.935C53.6119 116.404 65.4116 114.371 73.9434 120.395V120.395V120.395C67.9194 128.926 56.1197 130.959 47.5879 124.935V124.935V124.935Z" fill="#66A865"/>
<path d="M26.1168 94.366C24.2678 84.0869 31.1017 74.2551 41.3807 72.406V72.406V72.406C43.2298 82.6851 36.3959 92.5169 26.1168 94.366V94.366V94.366Z" fill="#66A865"/>
<path d="M-16.9138 156.405C-18.7629 146.126 -11.929 136.294 -1.6499 134.445V134.445V134.445C0.199157 144.725 -6.63474 154.556 -16.9138 156.405V156.405V156.405Z" fill="#66A865"/>
<rect x="115.346" y="91.0691" width="81.1078" height="81.1078" rx="40.5539" transform="rotate(119.838 115.346 91.0691)" fill="#66A865"/>
<path d="M61.6277 130.384C71.3418 135.956 74.6998 148.348 69.128 158.062V158.062V158.062C59.4138 152.49 56.0558 140.099 61.6277 130.384V130.384V130.384Z" fill="#66A865"/>
<path d="M83.6973 106.366C89.7212 97.834 101.521 95.801 110.053 101.825V101.825V101.825C104.029 110.357 92.229 112.39 83.6973 106.366V106.366V106.366Z" fill="#66A865"/>
<path d="M19.1955 137.836C17.3464 127.557 24.1803 117.725 34.4594 115.876V115.876V115.876C36.3085 126.155 29.4746 135.987 19.1955 137.836V137.836V137.836Z" fill="#66A865"/>
<path d="M46.137 31.0992C64.3223 41.53 70.6086 64.7279 60.1779 82.9132V82.9132C49.7471 101.099 26.5492 107.385 8.36388 96.9541V96.9541C-9.82144 86.5233 -16.1078 63.3254 -5.67699 45.1401V45.1401C4.75377 26.9548 27.9517 20.6684 46.137 31.0992V31.0992Z" fill="#66A865"/>
<path d="M30.914 86.3041C40.0066 91.5194 43.1498 103.118 37.9344 112.211V112.211V112.211C28.8417 106.996 25.6986 95.3967 30.914 86.3041V86.3041V86.3041Z" fill="#66A865"/>
<path d="M51.5716 63.8219C57.2102 55.836 68.255 53.933 76.2409 59.5716V59.5716V59.5716C70.6024 67.5575 59.5576 69.4605 51.5716 63.8219V63.8219V63.8219Z" fill="#66A865"/>
<path d="M31.474 35.2082C29.7432 25.5868 36.1399 16.384 45.7614 14.6532V14.6532V14.6532C47.4921 24.2747 41.0954 33.4775 31.474 35.2082V35.2082V35.2082Z" fill="#66A865"/>
<path d="M-8.80374 93.2785C-10.5345 83.657 -4.13781 74.4542 5.48367 72.7234V72.7234V72.7234C7.21443 82.3449 0.817737 91.5477 -8.80374 93.2785V93.2785V93.2785Z" fill="#66A865"/>
<rect x="80.7711" y="79.3528" width="75.9189" height="75.9189" rx="37.9594" transform="rotate(119.838 80.7711 79.3528)" fill="#66A865"/>
<path d="M30.4898 116.153C39.5824 121.368 42.7256 132.967 37.5102 142.06V142.06V142.06C28.4175 136.845 25.2744 125.246 30.4898 116.153V116.153V116.153Z" fill="#66A865"/>
<path d="M51.1473 93.6709C56.7859 85.6849 67.8307 83.782 75.8166 89.4205V89.4205V89.4205C70.1781 97.4065 59.1333 99.3094 51.1473 93.6709V93.6709V93.6709Z" fill="#66A865"/>
<path d="M31.0496 65.0572C29.3188 55.4358 35.7155 46.233 45.337 44.5022V44.5022V44.5022C47.0678 54.1237 40.6711 63.3265 31.0496 65.0572V65.0572V65.0572Z" fill="#66A865"/>
<path d="M-9.228 123.127C-10.9588 113.506 -4.56206 104.303 5.05941 102.572V102.572V102.572C6.79017 112.194 0.393481 121.397 -9.228 123.127V123.127V123.127Z" fill="#66A865"/>
<path fill-rule="evenodd" clip-rule="evenodd" d="M84.6343 93.1041C83.9454 98.9085 81.6267 104.587 77.6115 109.417L76.1803 111.138C66.558 122.711 50.3614 125.596 37.5489 118.875C37.0009 119.674 36.4112 120.455 35.7795 121.215L34.3483 122.936C23.2829 136.246 3.52345 138.064 -9.78568 126.999C-18.4625 119.785 -22.2556 108.876 -20.7787 98.4676C-25.9313 101.869 -32.105 103.85 -38.7412 103.85C-42.7222 103.85 -46.5368 103.137 -50.0643 101.832C-49.9923 102.478 -49.9052 103.12 -49.8032 103.757C-54.6784 103.288 -59.7313 104.702 -63.7775 108.102C-59.3754 113.341 -52.7364 115.592 -46.4324 114.632C-40.5505 127.05 -28.547 136.002 -14.3187 137.593C-13.899 138.838 -13.4189 140.063 -12.8797 141.263C-16.145 145.372 -17.6935 150.812 -16.6914 156.383C-12.7205 155.669 -9.26384 153.763 -6.6232 151.101C-3.70461 154.487 -0.172089 157.444 3.92606 159.795C10.2702 163.434 17.1854 165.168 24.0102 165.178C25.4949 169.841 28.6618 173.983 33.2411 176.609C35.6136 172.473 36.3671 167.852 35.7002 163.478C44.7027 160.793 52.7925 154.994 58.2092 146.56C58.8465 146.591 59.4836 146.607 60.1199 146.608C61.6046 151.271 64.7715 155.413 69.3508 158.039C71.7233 153.903 72.4767 149.282 71.8099 144.908C81.4275 142.039 90.0034 135.618 95.3911 126.224C98.5438 120.728 100.267 114.803 100.677 108.879C104.426 107.663 107.828 105.269 110.276 101.802C107.151 99.5959 103.588 98.4704 100.03 98.3491C99.3001 94.5804 98.039 90.9221 96.2798 87.4942C92.8556 90.0772 88.9124 92.0086 84.6343 93.1041Z" fill="#458244"/>
<rect x="-30.0204" y="91.7382" width="70.4273" height="70.4273" rx="35.2137" transform="rotate(-37.5969 -30.0204 91.7382)" fill="#66A865"/>
<path d="M26.1531 78.1128C20.2205 70.4083 21.6569 59.3532 29.3614 53.4206V53.4206V53.4206C35.294 61.1251 33.8576 72.1802 26.1531 78.1128V78.1128V78.1128Z" fill="#66A865"/>
<path d="M0.453617 90.0184C-7.21945 94.8523 -17.3584 92.5507 -22.1923 84.8777V84.8777V84.8777C-14.5192 80.0437 -4.3803 82.3453 0.453617 90.0184V90.0184V90.0184Z" fill="#66A865"/>
<path d="M7.48431 121.684C5.54191 130.543 -3.2138 136.149 -12.0721 134.207V134.207V134.207C-10.1297 125.348 -1.37401 119.742 7.48431 121.684V121.684V121.684Z" fill="#66A865"/>
<path d="M62.6597 86.2768C60.7173 95.1351 51.9616 100.742 43.1033 98.7992V98.7992V98.7992C45.0457 89.9409 53.8014 84.3344 62.6597 86.2768V86.2768V86.2768Z" fill="#66A865"/>
<rect x="-17.297" y="49.4011" width="46.5029" height="46.5029" rx="23.2515" transform="rotate(-28.4045 -17.297 49.4011)" fill="#83C082"/>
<path d="M18.3383 43.4027C17.1189 36.7103 21.5557 30.2965 28.2481 29.0771V29.0771V29.0771C29.4675 35.7695 25.0307 42.1833 18.3383 43.4027V43.4027V43.4027Z" fill="#83C082"/>
<path d="M3.99032 72.8766C1.78983 78.4458 -4.50868 81.1766 -10.0778 78.9761V78.9761V78.9761C-7.87731 73.407 -1.57879 70.6762 3.99032 72.8766V72.8766V72.8766Z" fill="#83C082"/>
</svg>
