<svg width="140" height="312" viewBox="0 0 140 312" fill="none" xmlns="http://www.w3.org/2000/svg">
<path d="M60.6937 172.275H80.4381L96.5299 325.975H44.3481L60.6937 172.275Z" fill="#93642D"/>
<path d="M60.552 172.275H80.1675L88.696 255.002H52.0236L60.552 172.275Z" fill="#714D22"/>
<path d="M129.748 240.961C149.431 242.945 136.39 219.274 126.876 198.225C117.361 177.176 96.7759 137.58 65.1792 137.58C39.2875 137.58 -9.77495 230.489 1.71474 239.23C10.9065 246.223 32.4829 240.736 46.845 229.728C51.1536 239.441 57.6591 243.987 67.9998 244.764C78.3405 245.541 84.3716 238.47 92.5101 229.728C95.3826 232.966 112.576 239.23 129.748 240.961Z" fill="#66A865"/>
<path fill-rule="evenodd" clip-rule="evenodd" d="M126.036 195.87C114.171 172.519 93.6618 141.573 64.5462 141.573C49.5707 141.573 27.4608 170.18 11.94 198.369C22.5035 197.3 35.0433 192.218 44.6266 184.873C49.3078 195.425 56.9928 206.398 68.2278 207.242C79.4627 208.086 87.8433 197.077 94.2406 184.873C96.8752 187.842 110.599 193.155 126.036 195.87Z" fill="#458244"/>
<path d="M129.748 187.476C148.586 193.518 136.39 165.789 126.876 144.74C117.361 123.691 96.7759 84.095 65.1792 84.095C39.2875 84.095 -9.77495 177.004 1.71474 185.745C10.9065 192.738 32.4829 175.598 46.845 164.591C51.1536 174.303 57.6591 190.502 67.9998 191.279C78.3405 192.056 84.3716 173.332 92.5101 164.591C95.3826 167.828 112.576 181.969 129.748 187.476Z" fill="#83C082"/>
<path fill-rule="evenodd" clip-rule="evenodd" d="M117.155 123.106C121.714 132.815 125.051 139.921 124.516 139.867C109.922 138.401 93.0014 131.958 90.5603 129.216C85.5562 138.73 77.8688 144.789 69.0807 144.131C60.2926 143.473 52.274 136.154 48.6123 127.927C36.4066 137.25 13.761 140.72 15.3514 138.161C18.0716 133.786 20.6137 128.951 23.0337 123.868C37.5884 100.555 55.3152 80.1678 67.9575 80.1678C83.2322 80.1678 96.1382 88.6849 106.67 100.154C107.213 101.522 107.757 102.825 108.312 104.048C111.321 110.682 114.453 117.351 117.155 123.106Z" fill="#458244"/>
<path d="M123.663 124.516C137.308 129.206 127.125 105.011 119.399 87.8434C111.672 70.6756 92.173 43.6049 66.5778 41.7854C42.6423 40.0839 3.46176 114.828 12.7926 121.957C20.2573 127.661 40.025 116.417 51.6886 107.438C55.1876 115.36 60.4707 128.572 68.8685 129.206C77.2662 129.84 82.1641 114.568 88.7734 107.438C91.1061 110.079 111.495 120.334 123.663 124.516Z" fill="#66A865"/>
<path fill-rule="evenodd" clip-rule="evenodd" d="M112.655 74.9104C115.432 79.8103 117.133 82.8098 116.84 82.7263C116.207 82.5453 115.426 82.3272 114.533 82.0776C107.007 79.9742 91.4859 75.6365 88.6962 72.4921C86.9915 74.6299 85.4518 76.6167 84.0423 78.4356C77.7991 86.4918 74.1081 91.2548 69.9334 91.2548C64.6924 91.2548 61.576 86.7507 57.6108 81.0199C55.7526 78.3343 53.7079 75.3792 51.1709 72.4921C35.5668 84.4517 24.7326 83.5791 24.7326 83.5791C24.7326 83.5791 30.4956 62.227 40.5905 42.9156C49.7817 32.5158 58.881 25.5854 66.2519 25.5854C75.3149 25.5854 83.544 28.5838 90.938 33.4182C91.0432 33.6477 91.1488 33.8796 91.2547 34.114C98.0481 49.1428 107.331 65.518 112.655 74.9104Z" fill="#458244"/>
<path d="M110.809 70.719C122.356 77.3631 115.259 55.8838 108.885 41.485C102.51 27.0863 88.7183 2.40597e-05 67.5489 3.41978e-05C50.2018 4.25054e-05 17.3307 63.5553 25.0286 69.535C31.187 74.3187 45.6428 62.5939 55.2653 55.0639C58.152 61.708 62.5105 72.7891 69.4387 73.3206C76.3668 73.8521 80.4076 61.0436 85.8603 55.0639C87.7848 57.2786 101.572 65.4038 110.809 70.719Z" fill="#83C082"/>
</svg>
