<svg width="236" height="261" viewBox="0 0 236 261" fill="none" xmlns="http://www.w3.org/2000/svg">
<rect x="16.7715" y="76.9426" width="101.047" height="101.047" rx="50.5237" fill="#66A865"/>
<path d="M92.5571 110.625C92.5571 96.6734 103.867 85.3633 117.819 85.3633V85.3633V85.3633C117.819 99.315 106.509 110.625 92.5571 110.625V110.625V110.625Z" fill="#66A865"/>
<path d="M52.9202 101.663C39.966 100.442 30.4547 88.95 31.6762 75.9958V75.9958V75.9958C44.6304 77.2173 54.1416 88.709 52.9202 101.663V101.663V101.663Z" fill="#66A865"/>
<path d="M33.1935 143.816C23.2311 152.186 8.36991 150.895 1.34859e-05 140.932V140.932V140.932C9.96236 132.562 24.8236 133.853 33.1935 143.816V143.816V143.816Z" fill="#66A865"/>
<path d="M126.912 151.863C116.949 160.232 102.088 158.941 93.7183 148.979V148.979V148.979C103.681 140.609 118.542 141.9 126.912 151.863V151.863V151.863Z" fill="#66A865"/>
<rect x="178.45" y="142.82" width="101.047" height="101.047" rx="50.5237" transform="rotate(119.838 178.45 142.82)" fill="#66A865"/>
<path d="M111.526 191.8C123.628 198.742 127.812 214.18 120.87 226.282V226.282V226.282C108.768 219.341 104.584 203.903 111.526 191.8V191.8V191.8Z" fill="#66A865"/>
<path d="M139.021 161.877C146.526 151.248 161.227 148.715 171.856 156.22V156.22V156.22C164.351 166.849 149.65 169.382 139.021 161.877V161.877V161.877Z" fill="#66A865"/>
<path d="M112.271 123.792C109.968 110.986 118.482 98.7372 131.288 96.4336V96.4336V96.4336C133.592 109.24 125.078 121.489 112.271 123.792V123.792V123.792Z" fill="#66A865"/>
<path d="M58.6621 201.083C56.3585 188.277 64.8724 176.028 77.6786 173.725V173.725V173.725C79.9822 186.531 71.4682 198.78 58.6621 201.083V201.083V201.083Z" fill="#66A865"/>
<rect x="226.448" y="106.822" width="101.047" height="101.047" rx="50.5237" transform="rotate(119.838 226.448 106.822)" fill="#66A865"/>
<path d="M159.523 155.802C171.626 162.744 175.809 178.182 168.867 190.285V190.285V190.285C156.765 183.343 152.582 167.905 159.523 155.802V155.802V155.802Z" fill="#66A865"/>
<path d="M187.019 125.879C194.523 115.25 209.224 112.717 219.853 120.222V120.222V120.222C212.348 130.851 197.648 133.384 187.019 125.879V125.879V125.879Z" fill="#66A865"/>
<path d="M160.269 87.7944C157.965 74.9883 166.479 62.7394 179.285 60.4357V60.4357V60.4357C181.589 73.2419 173.075 85.4907 160.269 87.7944V87.7944V87.7944Z" fill="#66A865"/>
<path d="M106.659 165.085C104.356 152.279 112.87 140.03 125.676 137.727V137.727V137.727C127.98 150.533 119.466 162.782 106.659 165.085V165.085V165.085Z" fill="#66A865"/>
<rect x="201.335" y="60.6769" width="94.5829" height="94.5829" rx="47.2914" transform="rotate(119.838 201.335 60.6769)" fill="#66A865"/>
<path d="M138.692 106.524C150.02 113.022 153.936 127.472 147.438 138.8V138.8V138.8C136.11 132.303 132.195 117.852 138.692 106.524V106.524V106.524Z" fill="#66A865"/>
<path d="M164.428 78.5149C171.453 68.5657 185.213 66.1949 195.162 73.2197V73.2197V73.2197C188.138 83.1689 174.378 85.5397 164.428 78.5149V78.5149V78.5149Z" fill="#66A865"/>
<path d="M139.39 42.8668C137.234 30.8799 145.203 19.4147 157.19 17.2584V17.2584V17.2584C159.346 29.2453 151.377 40.7105 139.39 42.8668V42.8668V42.8668Z" fill="#66A865"/>
<path d="M89.2102 115.213C87.054 103.226 95.0233 91.7611 107.01 89.6048V89.6048V89.6048C109.166 101.592 101.197 113.057 89.2102 115.213V115.213V115.213Z" fill="#66A865"/>
<path fill-rule="evenodd" clip-rule="evenodd" d="M18.6842 114.258C17.4991 118.549 16.866 123.069 16.866 127.738C16.866 130.478 17.0843 133.168 17.5043 135.791C11.4305 135.207 5.13542 136.969 0.0945722 141.204C5.5788 147.731 13.85 150.536 21.7038 149.34C29.0318 164.81 43.9863 175.964 61.7126 177.946C62.2356 179.496 62.8337 181.022 63.5054 182.518C59.4373 187.637 57.508 194.414 58.7566 201.355C63.7037 200.465 68.0102 198.091 71.3 194.774C74.9361 198.992 79.3371 202.677 84.4427 205.606C92.3465 210.139 100.962 212.3 109.464 212.312C111.314 218.121 115.259 223.281 120.965 226.554C123.92 221.401 124.859 215.643 124.028 210.193C136.01 206.62 146.695 198.62 153.407 186.917C155.225 183.747 156.662 180.462 157.732 177.115C159.68 182.596 163.52 187.435 168.962 190.556C171.918 185.403 172.856 179.645 172.025 174.195C184.008 170.622 194.692 162.621 201.404 150.919C205.332 144.071 207.479 136.69 207.99 129.31C212.66 127.795 216.898 124.812 219.948 120.493C216.055 117.744 211.616 116.342 207.184 116.191C206.473 112.523 205.359 108.939 203.86 105.51C202.754 109.493 201.137 113.404 198.985 117.155C189.172 134.263 170.869 143.459 152.433 142.478C152.16 142.994 151.877 143.507 151.585 144.017C137.701 168.222 106.825 176.589 82.6206 162.705C74.7161 158.171 68.5007 151.825 64.1976 144.491C43.8397 144.186 26.4002 131.839 18.6842 114.258Z" fill="#458244"/>
<path d="M110.852 165.979H124.851L136.261 274.955H99.2629L110.852 165.979Z" fill="#93642D"/>
<path d="M110.752 165.979H124.952L130.964 224.634H104.705L110.752 165.979Z" fill="#714D22"/>
<path fill-rule="evenodd" clip-rule="evenodd" d="M106.92 212.416C85.0266 196.652 82.3653 172.967 83.897 162.628L93.7885 164.094C92.6537 171.753 94.6589 191.266 112.763 204.301L106.92 212.416Z" fill="#714D22"/>
<path fill-rule="evenodd" clip-rule="evenodd" d="M123.456 196.417C145.35 180.653 148.011 156.968 146.479 146.629L136.588 148.094C137.723 155.754 135.718 175.267 117.614 188.302L123.456 196.417Z" fill="#714D22"/>
<rect x="161.429" y="127.773" width="72.4067" height="72.4067" rx="36.2034" transform="rotate(119.838 161.429 127.773)" fill="#66A865"/>
<path d="M113.474 162.871C122.146 167.845 125.144 178.908 120.17 187.58V187.58V187.58C111.498 182.605 108.5 171.543 113.474 162.871V162.871V162.871Z" fill="#66A865"/>
<path d="M133.176 141.429C138.554 133.812 149.088 131.998 156.704 137.375V137.375V137.375C151.326 144.992 140.793 146.807 133.176 141.429V141.429V141.429Z" fill="#66A865"/>
<path d="M114.008 114.139C112.358 104.963 118.458 96.1855 127.635 94.5348V94.5348V94.5348C129.285 103.711 123.185 112.488 114.008 114.139V114.139V114.139Z" fill="#66A865"/>
<path d="M75.5938 169.523C73.9431 160.346 80.0439 151.569 89.2202 149.919V149.919V149.919C90.8709 159.095 84.7702 167.872 75.5938 169.523V169.523V169.523Z" fill="#66A865"/>
<rect x="42.8473" y="11.9479" width="94.5829" height="94.5829" rx="47.2914" transform="rotate(8.46442 42.8473 11.9479)" fill="#83C082"/>
<path d="M108.371 53.5739C110.293 40.6569 122.323 31.744 135.24 33.6662V33.6662V33.6662C133.318 46.5832 121.288 55.4961 108.371 53.5739V53.5739V53.5739Z" fill="#83C082"/>
<path d="M72.9088 39.8154C61.0837 36.8997 53.8612 24.9499 56.7769 13.1248V13.1248V13.1248C68.602 16.0405 75.8245 27.9903 72.9088 39.8154V39.8154V39.8154Z" fill="#83C082"/>
<path d="M48.8375 76.1235C38.4609 82.5 24.8798 79.2573 18.5033 68.8807V68.8807V68.8807C28.8799 62.5042 42.461 65.7469 48.8375 76.1235V76.1235V76.1235Z" fill="#83C082"/>
<path d="M134.496 96.4858C124.119 102.862 110.538 99.6196 104.162 89.243V89.243V89.243C114.538 82.8665 128.119 86.1092 134.496 96.4858V96.4858V96.4858Z" fill="#83C082"/>
</svg>
