<svg width="124" height="152" viewBox="0 0 124 152" fill="none" xmlns="http://www.w3.org/2000/svg">
<rect x="10.0672" y="35.0276" width="55.4648" height="55.4648" rx="27.7324" fill="#66A865"/>
<path d="M51.6658 53.5159C51.6658 45.8578 57.8739 39.6497 65.532 39.6497V39.6497V39.6497C65.532 47.3078 59.3239 53.5159 51.6658 53.5159V53.5159V53.5159Z" fill="#66A865"/>
<path d="M29.9092 48.5966C22.7986 47.9261 17.5779 41.6184 18.2484 34.5079V34.5079V34.5079C25.3589 35.1783 30.5796 41.4861 29.9092 48.5966V48.5966V48.5966Z" fill="#66A865"/>
<path d="M19.0812 71.7341C13.6129 76.3283 5.45558 75.6197 0.861364 70.1514V70.1514V70.1514C6.32968 65.5572 14.487 66.2658 19.0812 71.7341V71.7341V71.7341Z" fill="#66A865"/>
<path d="M70.523 76.151C65.0546 80.7452 56.8974 80.0366 52.3031 74.5683V74.5683V74.5683C57.7715 69.9741 65.9287 70.6827 70.523 76.151V76.151V76.151Z" fill="#66A865"/>
<rect x="98.8123" y="71.1874" width="55.4648" height="55.4648" rx="27.7324" transform="rotate(119.838 98.8123 71.1874)" fill="#66A865"/>
<path d="M62.0777 98.0728C68.7206 101.883 71.0169 110.357 67.2067 117V117V117C60.5638 113.19 58.2674 104.716 62.0777 98.0728V98.0728V98.0728Z" fill="#66A865"/>
<path d="M77.1698 81.6478C81.2892 75.8135 89.3583 74.4232 95.1927 78.5426V78.5426V78.5426C91.0733 84.377 83.0042 85.7672 77.1698 81.6478V81.6478V81.6478Z" fill="#66A865"/>
<path d="M62.4869 60.7432C61.2224 53.714 65.8957 46.9906 72.925 45.7262V45.7262V45.7262C74.1894 52.7554 69.5162 59.4788 62.4869 60.7432V60.7432V60.7432Z" fill="#66A865"/>
<path d="M33.0608 103.168C31.7963 96.1389 36.4696 89.4156 43.4989 88.1511V88.1511V88.1511C44.7634 95.1804 40.0901 101.904 33.0608 103.168V103.168V103.168Z" fill="#66A865"/>
<rect x="123.505" y="58.4884" width="55.4648" height="55.4648" rx="27.7324" transform="rotate(119.838 123.505 58.4884)" fill="#66A865"/>
<path d="M86.7707 85.3739C93.4136 89.1841 95.7099 97.6581 91.8996 104.301V104.301V104.301C85.2567 100.491 82.9604 92.0168 86.7707 85.3739V85.3739V85.3739Z" fill="#66A865"/>
<path d="M101.863 68.9489C105.982 63.1145 114.051 61.7243 119.886 65.8437V65.8437V65.8437C115.766 71.678 107.697 73.0683 101.863 68.9489V68.9489V68.9489Z" fill="#66A865"/>
<path d="M57.7538 90.4693C56.4893 83.44 61.1626 76.7166 68.1919 75.4522V75.4522V75.4522C69.4563 82.4814 64.783 89.2048 57.7538 90.4693V90.4693V90.4693Z" fill="#66A865"/>
<path d="M84.0468 21.2669C96.4827 28.3999 100.782 44.2636 93.6485 56.6994V56.6994C86.5156 69.1353 70.6519 73.4341 58.216 66.3011V66.3011C45.7802 59.1682 41.4814 43.3045 48.6143 30.8686V30.8686C55.7473 18.4328 71.611 14.1339 84.0468 21.2669V21.2669Z" fill="#66A865"/>
<path d="M73.6367 59.0182C79.8546 62.5847 82.0041 70.5165 78.4376 76.7344V76.7344V76.7344C72.2196 73.1679 70.0702 65.2361 73.6367 59.0182V59.0182V59.0182Z" fill="#66A865"/>
<path d="M87.7632 43.644C91.619 38.1829 99.1719 36.8816 104.633 40.7375V40.7375V40.7375C100.777 46.1986 93.2243 47.4999 87.7632 43.644V43.644V43.644Z" fill="#66A865"/>
<path d="M74.0197 24.0768C72.8361 17.4973 77.2104 11.204 83.79 10.0205V10.0205V10.0205C84.9735 16.6 80.5992 22.8933 74.0197 24.0768V24.0768V24.0768Z" fill="#66A865"/>
<path d="M46.4762 63.7876C45.2926 57.208 49.6669 50.9148 56.2465 49.7312V49.7312V49.7312C57.43 56.3108 53.0557 62.604 46.4762 63.7876V63.7876V63.7876Z" fill="#66A865"/>
<rect x="27.0638" y="17.4865" width="51.9164" height="51.9164" rx="25.9582" transform="rotate(8.46442 27.0638 17.4865)" fill="#66A865"/>
<path d="M63.0298 40.3349C64.0849 33.2448 70.6879 28.3525 77.778 29.4076V29.4076V29.4076C76.7228 36.4977 70.1199 41.39 63.0298 40.3349V40.3349V40.3349Z" fill="#66A865"/>
<path d="M43.5646 32.7829C37.0738 31.1825 33.1094 24.6233 34.7098 18.1325V18.1325V18.1325C41.2006 19.7329 45.165 26.2921 43.5646 32.7829V32.7829V32.7829Z" fill="#66A865"/>
<path d="M30.3519 52.7124C24.6562 56.2124 17.2015 54.4325 13.7015 48.7368V48.7368V48.7368C19.3972 45.2367 26.8518 47.0167 30.3519 52.7124V52.7124V52.7124Z" fill="#66A865"/>
<path d="M77.3696 63.8892C71.6739 67.3893 64.2193 65.6093 60.7193 59.9136V59.9136V59.9136C66.415 56.4136 73.8696 58.1935 77.3696 63.8892V63.8892V63.8892Z" fill="#66A865"/>
<rect x="99.8616" y="50.4764" width="51.9164" height="51.9164" rx="25.9582" transform="rotate(119.838 99.8616 50.4764)" fill="#66A865"/>
<path d="M65.4772 75.6418C71.6951 79.2083 73.8445 87.1401 70.2781 93.358V93.358V93.358C64.0601 89.7916 61.9107 81.8597 65.4772 75.6418V75.6418V75.6418Z" fill="#66A865"/>
<path d="M79.6037 60.2676C83.4595 54.8065 91.0124 53.5052 96.4735 57.361V57.361V57.361C92.6177 62.8221 85.0648 64.1234 79.6037 60.2676V60.2676V60.2676Z" fill="#66A865"/>
<path d="M65.8602 40.7004C64.6766 34.1209 69.0509 27.8276 75.6305 26.644V26.644V26.644C76.814 33.2236 72.4397 39.5168 65.8602 40.7004V40.7004V40.7004Z" fill="#66A865"/>
<path d="M38.3166 80.4112C37.1331 73.8316 41.5074 67.5384 48.0869 66.3548V66.3548V66.3548C49.2705 72.9344 44.8962 79.2276 38.3166 80.4112V80.4112V80.4112Z" fill="#66A865"/>
<path fill-rule="evenodd" clip-rule="evenodd" d="M102.504 59.88C102.033 63.8494 100.447 67.7329 97.7011 71.0355L96.7225 72.2126C90.1423 80.1269 79.0665 82.0996 70.3048 77.5038C69.93 78.0502 69.5267 78.5842 69.0947 79.1038L68.1161 80.2809C60.5491 89.3822 47.0368 90.6261 37.9354 83.0591C32.0018 78.1257 29.4079 70.6653 30.418 63.5478C26.8945 65.8741 22.6726 67.2282 18.1344 67.2282C15.4121 67.2282 12.8035 66.7409 10.3913 65.8488C10.4405 66.2906 10.5001 66.7293 10.5698 67.1646C7.23592 66.8442 3.78053 67.8112 1.01361 70.1358C4.0239 73.7189 8.56395 75.2584 12.8749 74.6016C16.8972 83.0933 25.1057 89.2156 34.8356 90.3036C35.1227 91.1546 35.451 91.9921 35.8196 92.813C33.5867 95.6227 32.5277 99.3427 33.213 103.153C35.9285 102.664 38.2923 101.361 40.0981 99.5403C42.0939 101.856 44.5096 103.878 47.3121 105.486C51.6505 107.974 56.3794 109.16 61.0464 109.167C62.0617 112.355 64.2273 115.188 67.3589 116.984C68.9813 114.156 69.4966 110.995 69.0405 108.004C75.1968 106.168 80.729 102.203 84.4331 96.4352C84.8689 96.4564 85.3045 96.4673 85.7395 96.4679C86.7548 99.6565 88.9204 102.489 92.052 104.285C93.6744 101.457 94.1896 98.2963 93.7336 95.3052C100.31 93.3437 106.175 88.9523 109.859 82.529C112.015 78.7703 113.194 74.7184 113.474 70.6676C116.038 69.836 118.364 68.199 120.038 65.8281C117.901 64.3193 115.464 63.5497 113.032 63.4667C112.533 60.8896 111.67 58.3879 110.467 56.0438C108.126 57.8101 105.429 59.1308 102.504 59.88Z" fill="#458244"/>
<path d="M55.9106 88.8843H64.6134L71.7063 156.631H48.7058L55.9106 88.8843Z" fill="#93642D"/>
<path d="M55.8482 88.8843H64.6756L68.4131 125.348H52.0891L55.8482 88.8843Z" fill="#714D22"/>
<path fill-rule="evenodd" clip-rule="evenodd" d="M63.746 107.806C77.3566 98.0068 79.011 83.2825 78.0588 76.855L71.9096 77.766C72.6151 82.5279 71.3685 94.6582 60.1138 102.762L63.746 107.806Z" fill="#714D22"/>
<rect x="28.4336" y="65.8831" width="48.161" height="48.161" rx="24.0805" transform="rotate(-37.5969 28.4336 65.8831)" fill="#66A865"/>
<path d="M66.8473 56.5655C62.7903 51.2968 63.7726 43.7369 69.0412 39.6799V39.6799V39.6799C73.0982 44.9486 72.1159 52.5085 66.8473 56.5655V56.5655V56.5655Z" fill="#66A865"/>
<path d="M49.2729 64.707C44.0258 68.0126 37.0924 66.4387 33.7867 61.1915V61.1915V61.1915C39.0339 57.8859 45.9673 59.4598 49.2729 64.707V64.707V64.707Z" fill="#66A865"/>
<path d="M54.0808 86.3615C52.7525 92.4192 46.765 96.2531 40.7073 94.9248V94.9248V94.9248C42.0356 88.8671 48.0231 85.0332 54.0808 86.3615V86.3615V86.3615Z" fill="#66A865"/>
<path d="M91.812 62.1483C90.4837 68.206 84.4962 72.0399 78.4385 70.7116V70.7116V70.7116C79.7668 64.6539 85.7543 60.82 91.812 62.1483V62.1483V62.1483Z" fill="#66A865"/>
<rect x="30.1584" y="18.3002" width="37.9046" height="37.9046" rx="18.9523" transform="rotate(8.46442 30.1584 18.3002)" fill="#83C082"/>
<path d="M56.4174 34.982C57.1878 29.8055 62.0087 26.2336 67.1852 27.0039V27.0039V27.0039C66.4148 32.1805 61.5939 35.7524 56.4174 34.982V34.982V34.982Z" fill="#83C082"/>
<path d="M42.2057 29.4683C37.4668 28.2998 34.5723 23.5108 35.7408 18.7719V18.7719V18.7719C40.4797 19.9404 43.3742 24.7293 42.2057 29.4683V29.4683V29.4683Z" fill="#83C082"/>
<path d="M32.559 44.019C28.4005 46.5744 22.9578 45.2748 20.4024 41.1164V41.1164V41.1164C24.5609 38.5609 30.0036 39.8605 32.559 44.019V44.019V44.019Z" fill="#83C082"/>
<path d="M66.887 52.1793C62.7285 54.7347 57.2858 53.4352 54.7304 49.2767V49.2767V49.2767C58.8889 46.7213 64.3316 48.0208 66.887 52.1793V52.1793V52.1793Z" fill="#83C082"/>
</svg>
